<?xml version="1.0" encoding="utf-8" standalone="no"?>
<!DOCTYPE svg PUBLIC "-//W3C//DTD SVG 1.1//EN"
  "http://www.w3.org/Graphics/SVG/1.1/DTD/svg11.dtd">
<svg xmlns:xlink="http://www.w3.org/1999/xlink" width="460.8pt" height="345.6pt" viewBox="0 0 460.8 345.6" xmlns="http://www.w3.org/2000/svg" version="1.1">
 <metadata>
  <rdf:RDF xmlns:dc="http://purl.org/dc/elements/1.1/" xmlns:cc="http://creativecommons.org/ns#" xmlns:rdf="http://www.w3.org/1999/02/22-rdf-syntax-ns#">
   <cc:Work>
    <dc:type rdf:resource="http://purl.org/dc/dcmitype/StillImage"/>
    <dc:date>2025-11-17T21:03:04.866056</dc:date>
    <dc:format>image/svg+xml</dc:format>
    <dc:creator>
     <cc:Agent>
      <dc:title>Matplotlib v3.10.6, https://matplotlib.org/</dc:title>
     </cc:Agent>
    </dc:creator>
   </cc:Work>
  </rdf:RDF>
 </metadata>
 <defs>
  <style type="text/css">*{stroke-linejoin: round; stroke-linecap: butt}</style>
 </defs>
 <g id="figure_1">
  <g id="patch_1">
   <path d="M 0 345.6 
L 460.8 345.6 
L 460.8 0 
L 0 0 
z
" style="fill: #ffffff"/>
  </g>
  <g id="axes_1">
   <g id="text_1">
    <!-- Surrogate Decision Tree - AdaBoost -->
    <g transform="translate(130.400625 35.472) scale(0.12 -0.12)">
     <defs>
      <path id="DejaVuSans-53" d="M 3425 4513 
L 3425 3897 
Q 3066 4069 2747 4153 
Q 2428 4238 2131 4238 
Q 1616 4238 1336 4038 
Q 1056 3838 1056 3469 
Q 1056 3159 1242 3001 
Q 1428 2844 1947 2747 
L 2328 2669 
Q 3034 2534 3370 2195 
Q 3706 1856 3706 1288 
Q 3706 609 3251 259 
Q 2797 -91 1919 -91 
Q 1588 -91 1214 -16 
Q 841 59 441 206 
L 441 856 
Q 825 641 1194 531 
Q 1563 422 1919 422 
Q 2459 422 2753 634 
Q 3047 847 3047 1241 
Q 3047 1584 2836 1778 
Q 2625 1972 2144 2069 
L 1759 2144 
Q 1053 2284 737 2584 
Q 422 2884 422 3419 
Q 422 4038 858 4394 
Q 1294 4750 2059 4750 
Q 2388 4750 2728 4690 
Q 3069 4631 3425 4513 
z
" transform="scale(0.015625)"/>
      <path id="DejaVuSans-75" d="M 544 1381 
L 544 3500 
L 1119 3500 
L 1119 1403 
Q 1119 906 1312 657 
Q 1506 409 1894 409 
Q 2359 409 2629 706 
Q 2900 1003 2900 1516 
L 2900 3500 
L 3475 3500 
L 3475 0 
L 2900 0 
L 2900 538 
Q 2691 219 2414 64 
Q 2138 -91 1772 -91 
Q 1169 -91 856 284 
Q 544 659 544 1381 
z
M 1991 3584 
L 1991 3584 
z
" transform="scale(0.015625)"/>
      <path id="DejaVuSans-72" d="M 2631 2963 
Q 2534 3019 2420 3045 
Q 2306 3072 2169 3072 
Q 1681 3072 1420 2755 
Q 1159 2438 1159 1844 
L 1159 0 
L 581 0 
L 581 3500 
L 1159 3500 
L 1159 2956 
Q 1341 3275 1631 3429 
Q 1922 3584 2338 3584 
Q 2397 3584 2469 3576 
Q 2541 3569 2628 3553 
L 2631 2963 
z
" transform="scale(0.015625)"/>
      <path id="DejaVuSans-6f" d="M 1959 3097 
Q 1497 3097 1228 2736 
Q 959 2375 959 1747 
Q 959 1119 1226 758 
Q 1494 397 1959 397 
Q 2419 397 2687 759 
Q 2956 1122 2956 1747 
Q 2956 2369 2687 2733 
Q 2419 3097 1959 3097 
z
M 1959 3584 
Q 2709 3584 3137 3096 
Q 3566 2609 3566 1747 
Q 3566 888 3137 398 
Q 2709 -91 1959 -91 
Q 1206 -91 779 398 
Q 353 888 353 1747 
Q 353 2609 779 3096 
Q 1206 3584 1959 3584 
z
" transform="scale(0.015625)"/>
      <path id="DejaVuSans-67" d="M 2906 1791 
Q 2906 2416 2648 2759 
Q 2391 3103 1925 3103 
Q 1463 3103 1205 2759 
Q 947 2416 947 1791 
Q 947 1169 1205 825 
Q 1463 481 1925 481 
Q 2391 481 2648 825 
Q 2906 1169 2906 1791 
z
M 3481 434 
Q 3481 -459 3084 -895 
Q 2688 -1331 1869 -1331 
Q 1566 -1331 1297 -1286 
Q 1028 -1241 775 -1147 
L 775 -588 
Q 1028 -725 1275 -790 
Q 1522 -856 1778 -856 
Q 2344 -856 2625 -561 
Q 2906 -266 2906 331 
L 2906 616 
Q 2728 306 2450 153 
Q 2172 0 1784 0 
Q 1141 0 747 490 
Q 353 981 353 1791 
Q 353 2603 747 3093 
Q 1141 3584 1784 3584 
Q 2172 3584 2450 3431 
Q 2728 3278 2906 2969 
L 2906 3500 
L 3481 3500 
L 3481 434 
z
" transform="scale(0.015625)"/>
      <path id="DejaVuSans-61" d="M 2194 1759 
Q 1497 1759 1228 1600 
Q 959 1441 959 1056 
Q 959 750 1161 570 
Q 1363 391 1709 391 
Q 2188 391 2477 730 
Q 2766 1069 2766 1631 
L 2766 1759 
L 2194 1759 
z
M 3341 1997 
L 3341 0 
L 2766 0 
L 2766 531 
Q 2569 213 2275 61 
Q 1981 -91 1556 -91 
Q 1019 -91 701 211 
Q 384 513 384 1019 
Q 384 1609 779 1909 
Q 1175 2209 1959 2209 
L 2766 2209 
L 2766 2266 
Q 2766 2663 2505 2880 
Q 2244 3097 1772 3097 
Q 1472 3097 1187 3025 
Q 903 2953 641 2809 
L 641 3341 
Q 956 3463 1253 3523 
Q 1550 3584 1831 3584 
Q 2591 3584 2966 3190 
Q 3341 2797 3341 1997 
z
" transform="scale(0.015625)"/>
      <path id="DejaVuSans-74" d="M 1172 4494 
L 1172 3500 
L 2356 3500 
L 2356 3053 
L 1172 3053 
L 1172 1153 
Q 1172 725 1289 603 
Q 1406 481 1766 481 
L 2356 481 
L 2356 0 
L 1766 0 
Q 1100 0 847 248 
Q 594 497 594 1153 
L 594 3053 
L 172 3053 
L 172 3500 
L 594 3500 
L 594 4494 
L 1172 4494 
z
" transform="scale(0.015625)"/>
      <path id="DejaVuSans-65" d="M 3597 1894 
L 3597 1613 
L 953 1613 
Q 991 1019 1311 708 
Q 1631 397 2203 397 
Q 2534 397 2845 478 
Q 3156 559 3463 722 
L 3463 178 
Q 3153 47 2828 -22 
Q 2503 -91 2169 -91 
Q 1331 -91 842 396 
Q 353 884 353 1716 
Q 353 2575 817 3079 
Q 1281 3584 2069 3584 
Q 2775 3584 3186 3129 
Q 3597 2675 3597 1894 
z
M 3022 2063 
Q 3016 2534 2758 2815 
Q 2500 3097 2075 3097 
Q 1594 3097 1305 2825 
Q 1016 2553 972 2059 
L 3022 2063 
z
" transform="scale(0.015625)"/>
      <path id="DejaVuSans-20" transform="scale(0.015625)"/>
      <path id="DejaVuSans-44" d="M 1259 4147 
L 1259 519 
L 2022 519 
Q 2988 519 3436 956 
Q 3884 1394 3884 2338 
Q 3884 3275 3436 3711 
Q 2988 4147 2022 4147 
L 1259 4147 
z
M 628 4666 
L 1925 4666 
Q 3281 4666 3915 4102 
Q 4550 3538 4550 2338 
Q 4550 1131 3912 565 
Q 3275 0 1925 0 
L 628 0 
L 628 4666 
z
" transform="scale(0.015625)"/>
      <path id="DejaVuSans-63" d="M 3122 3366 
L 3122 2828 
Q 2878 2963 2633 3030 
Q 2388 3097 2138 3097 
Q 1578 3097 1268 2742 
Q 959 2388 959 1747 
Q 959 1106 1268 751 
Q 1578 397 2138 397 
Q 2388 397 2633 464 
Q 2878 531 3122 666 
L 3122 134 
Q 2881 22 2623 -34 
Q 2366 -91 2075 -91 
Q 1284 -91 818 406 
Q 353 903 353 1747 
Q 353 2603 823 3093 
Q 1294 3584 2113 3584 
Q 2378 3584 2631 3529 
Q 2884 3475 3122 3366 
z
" transform="scale(0.015625)"/>
      <path id="DejaVuSans-69" d="M 603 3500 
L 1178 3500 
L 1178 0 
L 603 0 
L 603 3500 
z
M 603 4863 
L 1178 4863 
L 1178 4134 
L 603 4134 
L 603 4863 
z
" transform="scale(0.015625)"/>
      <path id="DejaVuSans-73" d="M 2834 3397 
L 2834 2853 
Q 2591 2978 2328 3040 
Q 2066 3103 1784 3103 
Q 1356 3103 1142 2972 
Q 928 2841 928 2578 
Q 928 2378 1081 2264 
Q 1234 2150 1697 2047 
L 1894 2003 
Q 2506 1872 2764 1633 
Q 3022 1394 3022 966 
Q 3022 478 2636 193 
Q 2250 -91 1575 -91 
Q 1294 -91 989 -36 
Q 684 19 347 128 
L 347 722 
Q 666 556 975 473 
Q 1284 391 1588 391 
Q 1994 391 2212 530 
Q 2431 669 2431 922 
Q 2431 1156 2273 1281 
Q 2116 1406 1581 1522 
L 1381 1569 
Q 847 1681 609 1914 
Q 372 2147 372 2553 
Q 372 3047 722 3315 
Q 1072 3584 1716 3584 
Q 2034 3584 2315 3537 
Q 2597 3491 2834 3397 
z
" transform="scale(0.015625)"/>
      <path id="DejaVuSans-6e" d="M 3513 2113 
L 3513 0 
L 2938 0 
L 2938 2094 
Q 2938 2591 2744 2837 
Q 2550 3084 2163 3084 
Q 1697 3084 1428 2787 
Q 1159 2491 1159 1978 
L 1159 0 
L 581 0 
L 581 3500 
L 1159 3500 
L 1159 2956 
Q 1366 3272 1645 3428 
Q 1925 3584 2291 3584 
Q 2894 3584 3203 3211 
Q 3513 2838 3513 2113 
z
" transform="scale(0.015625)"/>
      <path id="DejaVuSans-54" d="M -19 4666 
L 3928 4666 
L 3928 4134 
L 2272 4134 
L 2272 0 
L 1638 0 
L 1638 4134 
L -19 4134 
L -19 4666 
z
" transform="scale(0.015625)"/>
      <path id="DejaVuSans-2d" d="M 313 2009 
L 1997 2009 
L 1997 1497 
L 313 1497 
L 313 2009 
z
" transform="scale(0.015625)"/>
      <path id="DejaVuSans-41" d="M 2188 4044 
L 1331 1722 
L 3047 1722 
L 2188 4044 
z
M 1831 4666 
L 2547 4666 
L 4325 0 
L 3669 0 
L 3244 1197 
L 1141 1197 
L 716 0 
L 50 0 
L 1831 4666 
z
" transform="scale(0.015625)"/>
      <path id="DejaVuSans-64" d="M 2906 2969 
L 2906 4863 
L 3481 4863 
L 3481 0 
L 2906 0 
L 2906 525 
Q 2725 213 2448 61 
Q 2172 -91 1784 -91 
Q 1150 -91 751 415 
Q 353 922 353 1747 
Q 353 2572 751 3078 
Q 1150 3584 1784 3584 
Q 2172 3584 2448 3432 
Q 2725 3281 2906 2969 
z
M 947 1747 
Q 947 1113 1208 752 
Q 1469 391 1925 391 
Q 2381 391 2643 752 
Q 2906 1113 2906 1747 
Q 2906 2381 2643 2742 
Q 2381 3103 1925 3103 
Q 1469 3103 1208 2742 
Q 947 2381 947 1747 
z
" transform="scale(0.015625)"/>
      <path id="DejaVuSans-42" d="M 1259 2228 
L 1259 519 
L 2272 519 
Q 2781 519 3026 730 
Q 3272 941 3272 1375 
Q 3272 1813 3026 2020 
Q 2781 2228 2272 2228 
L 1259 2228 
z
M 1259 4147 
L 1259 2741 
L 2194 2741 
Q 2656 2741 2882 2914 
Q 3109 3088 3109 3444 
Q 3109 3797 2882 3972 
Q 2656 4147 2194 4147 
L 1259 4147 
z
M 628 4666 
L 2241 4666 
Q 2963 4666 3353 4366 
Q 3744 4066 3744 3513 
Q 3744 3084 3544 2831 
Q 3344 2578 2956 2516 
Q 3422 2416 3680 2098 
Q 3938 1781 3938 1306 
Q 3938 681 3513 340 
Q 3088 0 2303 0 
L 628 0 
L 628 4666 
z
" transform="scale(0.015625)"/>
     </defs>
     <use xlink:href="#DejaVuSans-53"/>
     <use xlink:href="#DejaVuSans-75" transform="translate(63.476562 0)"/>
     <use xlink:href="#DejaVuSans-72" transform="translate(126.855469 0)"/>
     <use xlink:href="#DejaVuSans-72" transform="translate(166.21875 0)"/>
     <use xlink:href="#DejaVuSans-6f" transform="translate(205.082031 0)"/>
     <use xlink:href="#DejaVuSans-67" transform="translate(266.263672 0)"/>
     <use xlink:href="#DejaVuSans-61" transform="translate(329.740234 0)"/>
     <use xlink:href="#DejaVuSans-74" transform="translate(391.019531 0)"/>
     <use xlink:href="#DejaVuSans-65" transform="translate(430.228516 0)"/>
     <use xlink:href="#DejaVuSans-20" transform="translate(491.751953 0)"/>
     <use xlink:href="#DejaVuSans-44" transform="translate(523.539062 0)"/>
     <use xlink:href="#DejaVuSans-65" transform="translate(600.541016 0)"/>
     <use xlink:href="#DejaVuSans-63" transform="translate(662.064453 0)"/>
     <use xlink:href="#DejaVuSans-69" transform="translate(717.044922 0)"/>
     <use xlink:href="#DejaVuSans-73" transform="translate(744.828125 0)"/>
     <use xlink:href="#DejaVuSans-69" transform="translate(796.927734 0)"/>
     <use xlink:href="#DejaVuSans-6f" transform="translate(824.710938 0)"/>
     <use xlink:href="#DejaVuSans-6e" transform="translate(885.892578 0)"/>
     <use xlink:href="#DejaVuSans-20" transform="translate(949.271484 0)"/>
     <use xlink:href="#DejaVuSans-54" transform="translate(981.058594 0)"/>
     <use xlink:href="#DejaVuSans-72" transform="translate(1027.392578 0)"/>
     <use xlink:href="#DejaVuSans-65" transform="translate(1066.255859 0)"/>
     <use xlink:href="#DejaVuSans-65" transform="translate(1127.779297 0)"/>
     <use xlink:href="#DejaVuSans-20" transform="translate(1189.302734 0)"/>
     <use xlink:href="#DejaVuSans-2d" transform="translate(1221.089844 0)"/>
     <use xlink:href="#DejaVuSans-20" transform="translate(1257.173828 0)"/>
     <use xlink:href="#DejaVuSans-41" transform="translate(1288.960938 0)"/>
     <use xlink:href="#DejaVuSans-64" transform="translate(1355.619141 0)"/>
     <use xlink:href="#DejaVuSans-61" transform="translate(1419.095703 0)"/>
     <use xlink:href="#DejaVuSans-42" transform="translate(1480.375 0)"/>
     <use xlink:href="#DejaVuSans-6f" transform="translate(1548.978516 0)"/>
     <use xlink:href="#DejaVuSans-6f" transform="translate(1610.160156 0)"/>
     <use xlink:href="#DejaVuSans-73" transform="translate(1671.341797 0)"/>
     <use xlink:href="#DejaVuSans-74" transform="translate(1723.441406 0)"/>
    </g>
   </g>
   <g id="patch_2">
    <path d="M 97.68973 258.696383 
Q 109.426833 234.644789 121.654263 209.588417 
" style="fill: none; stroke: #000000; stroke-linecap: round"/>
    <path d="M 99.465557 257.337546 
L 97.68973 258.696383 
L 97.668156 256.46042 
" style="fill: none; stroke: #000000; stroke-linecap: round"/>
   </g>
   <g id="text_2">
    <g id="patch_3">
     <path d="M 72.83147 286.637891 
L 107.299439 286.637891 
Q 108.799439 286.637891 108.799439 285.137891 
L 108.799439 263.502109 
Q 108.799439 262.002109 107.299439 262.002109 
L 72.83147 262.002109 
Q 71.33147 262.002109 71.33147 263.502109 
L 71.33147 285.137891 
Q 71.33147 286.637891 72.83147 286.637891 
z
" style="fill: #ea9a61; stroke: #000000; stroke-linejoin: miter"/>
    </g>
    <!-- gini = 0.278 -->
    <g transform="translate(74.663892 267.301328) scale(0.05 -0.05)">
     <defs>
      <path id="DejaVuSans-3d" d="M 678 2906 
L 4684 2906 
L 4684 2381 
L 678 2381 
L 678 2906 
z
M 678 1631 
L 4684 1631 
L 4684 1100 
L 678 1100 
L 678 1631 
z
" transform="scale(0.015625)"/>
      <path id="DejaVuSans-30" d="M 2034 4250 
Q 1547 4250 1301 3770 
Q 1056 3291 1056 2328 
Q 1056 1369 1301 889 
Q 1547 409 2034 409 
Q 2525 409 2770 889 
Q 3016 1369 3016 2328 
Q 3016 3291 2770 3770 
Q 2525 4250 2034 4250 
z
M 2034 4750 
Q 2819 4750 3233 4129 
Q 3647 3509 3647 2328 
Q 3647 1150 3233 529 
Q 2819 -91 2034 -91 
Q 1250 -91 836 529 
Q 422 1150 422 2328 
Q 422 3509 836 4129 
Q 1250 4750 2034 4750 
z
" transform="scale(0.015625)"/>
      <path id="DejaVuSans-2e" d="M 684 794 
L 1344 794 
L 1344 0 
L 684 0 
L 684 794 
z
" transform="scale(0.015625)"/>
      <path id="DejaVuSans-32" d="M 1228 531 
L 3431 531 
L 3431 0 
L 469 0 
L 469 531 
Q 828 903 1448 1529 
Q 2069 2156 2228 2338 
Q 2531 2678 2651 2914 
Q 2772 3150 2772 3378 
Q 2772 3750 2511 3984 
Q 2250 4219 1831 4219 
Q 1534 4219 1204 4116 
Q 875 4013 500 3803 
L 500 4441 
Q 881 4594 1212 4672 
Q 1544 4750 1819 4750 
Q 2544 4750 2975 4387 
Q 3406 4025 3406 3419 
Q 3406 3131 3298 2873 
Q 3191 2616 2906 2266 
Q 2828 2175 2409 1742 
Q 1991 1309 1228 531 
z
" transform="scale(0.015625)"/>
      <path id="DejaVuSans-37" d="M 525 4666 
L 3525 4666 
L 3525 4397 
L 1831 0 
L 1172 0 
L 2766 4134 
L 525 4134 
L 525 4666 
z
" transform="scale(0.015625)"/>
      <path id="DejaVuSans-38" d="M 2034 2216 
Q 1584 2216 1326 1975 
Q 1069 1734 1069 1313 
Q 1069 891 1326 650 
Q 1584 409 2034 409 
Q 2484 409 2743 651 
Q 3003 894 3003 1313 
Q 3003 1734 2745 1975 
Q 2488 2216 2034 2216 
z
M 1403 2484 
Q 997 2584 770 2862 
Q 544 3141 544 3541 
Q 544 4100 942 4425 
Q 1341 4750 2034 4750 
Q 2731 4750 3128 4425 
Q 3525 4100 3525 3541 
Q 3525 3141 3298 2862 
Q 3072 2584 2669 2484 
Q 3125 2378 3379 2068 
Q 3634 1759 3634 1313 
Q 3634 634 3220 271 
Q 2806 -91 2034 -91 
Q 1263 -91 848 271 
Q 434 634 434 1313 
Q 434 1759 690 2068 
Q 947 2378 1403 2484 
z
M 1172 3481 
Q 1172 3119 1398 2916 
Q 1625 2713 2034 2713 
Q 2441 2713 2670 2916 
Q 2900 3119 2900 3481 
Q 2900 3844 2670 4047 
Q 2441 4250 2034 4250 
Q 1625 4250 1398 4047 
Q 1172 3844 1172 3481 
z
" transform="scale(0.015625)"/>
     </defs>
     <use xlink:href="#DejaVuSans-67"/>
     <use xlink:href="#DejaVuSans-69" transform="translate(63.476562 0)"/>
     <use xlink:href="#DejaVuSans-6e" transform="translate(91.259766 0)"/>
     <use xlink:href="#DejaVuSans-69" transform="translate(154.638672 0)"/>
     <use xlink:href="#DejaVuSans-20" transform="translate(182.421875 0)"/>
     <use xlink:href="#DejaVuSans-3d" transform="translate(214.208984 0)"/>
     <use xlink:href="#DejaVuSans-20" transform="translate(297.998047 0)"/>
     <use xlink:href="#DejaVuSans-30" transform="translate(329.785156 0)"/>
     <use xlink:href="#DejaVuSans-2e" transform="translate(393.408203 0)"/>
     <use xlink:href="#DejaVuSans-32" transform="translate(425.195312 0)"/>
     <use xlink:href="#DejaVuSans-37" transform="translate(488.818359 0)"/>
     <use xlink:href="#DejaVuSans-38" transform="translate(552.441406 0)"/>
    </g>
    <!-- samples = 6 -->
    <g transform="translate(74.399048 272.900234) scale(0.05 -0.05)">
     <defs>
      <path id="DejaVuSans-6d" d="M 3328 2828 
Q 3544 3216 3844 3400 
Q 4144 3584 4550 3584 
Q 5097 3584 5394 3201 
Q 5691 2819 5691 2113 
L 5691 0 
L 5113 0 
L 5113 2094 
Q 5113 2597 4934 2840 
Q 4756 3084 4391 3084 
Q 3944 3084 3684 2787 
Q 3425 2491 3425 1978 
L 3425 0 
L 2847 0 
L 2847 2094 
Q 2847 2600 2669 2842 
Q 2491 3084 2119 3084 
Q 1678 3084 1418 2786 
Q 1159 2488 1159 1978 
L 1159 0 
L 581 0 
L 581 3500 
L 1159 3500 
L 1159 2956 
Q 1356 3278 1631 3431 
Q 1906 3584 2284 3584 
Q 2666 3584 2933 3390 
Q 3200 3197 3328 2828 
z
" transform="scale(0.015625)"/>
      <path id="DejaVuSans-70" d="M 1159 525 
L 1159 -1331 
L 581 -1331 
L 581 3500 
L 1159 3500 
L 1159 2969 
Q 1341 3281 1617 3432 
Q 1894 3584 2278 3584 
Q 2916 3584 3314 3078 
Q 3713 2572 3713 1747 
Q 3713 922 3314 415 
Q 2916 -91 2278 -91 
Q 1894 -91 1617 61 
Q 1341 213 1159 525 
z
M 3116 1747 
Q 3116 2381 2855 2742 
Q 2594 3103 2138 3103 
Q 1681 3103 1420 2742 
Q 1159 2381 1159 1747 
Q 1159 1113 1420 752 
Q 1681 391 2138 391 
Q 2594 391 2855 752 
Q 3116 1113 3116 1747 
z
" transform="scale(0.015625)"/>
      <path id="DejaVuSans-6c" d="M 603 4863 
L 1178 4863 
L 1178 0 
L 603 0 
L 603 4863 
z
" transform="scale(0.015625)"/>
      <path id="DejaVuSans-36" d="M 2113 2584 
Q 1688 2584 1439 2293 
Q 1191 2003 1191 1497 
Q 1191 994 1439 701 
Q 1688 409 2113 409 
Q 2538 409 2786 701 
Q 3034 994 3034 1497 
Q 3034 2003 2786 2293 
Q 2538 2584 2113 2584 
z
M 3366 4563 
L 3366 3988 
Q 3128 4100 2886 4159 
Q 2644 4219 2406 4219 
Q 1781 4219 1451 3797 
Q 1122 3375 1075 2522 
Q 1259 2794 1537 2939 
Q 1816 3084 2150 3084 
Q 2853 3084 3261 2657 
Q 3669 2231 3669 1497 
Q 3669 778 3244 343 
Q 2819 -91 2113 -91 
Q 1303 -91 875 529 
Q 447 1150 447 2328 
Q 447 3434 972 4092 
Q 1497 4750 2381 4750 
Q 2619 4750 2861 4703 
Q 3103 4656 3366 4563 
z
" transform="scale(0.015625)"/>
     </defs>
     <use xlink:href="#DejaVuSans-73"/>
     <use xlink:href="#DejaVuSans-61" transform="translate(52.099609 0)"/>
     <use xlink:href="#DejaVuSans-6d" transform="translate(113.378906 0)"/>
     <use xlink:href="#DejaVuSans-70" transform="translate(210.791016 0)"/>
     <use xlink:href="#DejaVuSans-6c" transform="translate(274.267578 0)"/>
     <use xlink:href="#DejaVuSans-65" transform="translate(302.050781 0)"/>
     <use xlink:href="#DejaVuSans-73" transform="translate(363.574219 0)"/>
     <use xlink:href="#DejaVuSans-20" transform="translate(415.673828 0)"/>
     <use xlink:href="#DejaVuSans-3d" transform="translate(447.460938 0)"/>
     <use xlink:href="#DejaVuSans-20" transform="translate(531.25 0)"/>
     <use xlink:href="#DejaVuSans-36" transform="translate(563.037109 0)"/>
    </g>
    <!-- value = [5, 1] -->
    <g transform="translate(72.83147 278.499141) scale(0.05 -0.05)">
     <defs>
      <path id="DejaVuSans-76" d="M 191 3500 
L 800 3500 
L 1894 563 
L 2988 3500 
L 3597 3500 
L 2284 0 
L 1503 0 
L 191 3500 
z
" transform="scale(0.015625)"/>
      <path id="DejaVuSans-5b" d="M 550 4863 
L 1875 4863 
L 1875 4416 
L 1125 4416 
L 1125 -397 
L 1875 -397 
L 1875 -844 
L 550 -844 
L 550 4863 
z
" transform="scale(0.015625)"/>
      <path id="DejaVuSans-35" d="M 691 4666 
L 3169 4666 
L 3169 4134 
L 1269 4134 
L 1269 2991 
Q 1406 3038 1543 3061 
Q 1681 3084 1819 3084 
Q 2600 3084 3056 2656 
Q 3513 2228 3513 1497 
Q 3513 744 3044 326 
Q 2575 -91 1722 -91 
Q 1428 -91 1123 -41 
Q 819 9 494 109 
L 494 744 
Q 775 591 1075 516 
Q 1375 441 1709 441 
Q 2250 441 2565 725 
Q 2881 1009 2881 1497 
Q 2881 1984 2565 2268 
Q 2250 2553 1709 2553 
Q 1456 2553 1204 2497 
Q 953 2441 691 2322 
L 691 4666 
z
" transform="scale(0.015625)"/>
      <path id="DejaVuSans-2c" d="M 750 794 
L 1409 794 
L 1409 256 
L 897 -744 
L 494 -744 
L 750 256 
L 750 794 
z
" transform="scale(0.015625)"/>
      <path id="DejaVuSans-31" d="M 794 531 
L 1825 531 
L 1825 4091 
L 703 3866 
L 703 4441 
L 1819 4666 
L 2450 4666 
L 2450 531 
L 3481 531 
L 3481 0 
L 794 0 
L 794 531 
z
" transform="scale(0.015625)"/>
      <path id="DejaVuSans-5d" d="M 1947 4863 
L 1947 -844 
L 622 -844 
L 622 -397 
L 1369 -397 
L 1369 4416 
L 622 4416 
L 622 4863 
L 1947 4863 
z
" transform="scale(0.015625)"/>
     </defs>
     <use xlink:href="#DejaVuSans-76"/>
     <use xlink:href="#DejaVuSans-61" transform="translate(59.179688 0)"/>
     <use xlink:href="#DejaVuSans-6c" transform="translate(120.458984 0)"/>
     <use xlink:href="#DejaVuSans-75" transform="translate(148.242188 0)"/>
     <use xlink:href="#DejaVuSans-65" transform="translate(211.621094 0)"/>
     <use xlink:href="#DejaVuSans-20" transform="translate(273.144531 0)"/>
     <use xlink:href="#DejaVuSans-3d" transform="translate(304.931641 0)"/>
     <use xlink:href="#DejaVuSans-20" transform="translate(388.720703 0)"/>
     <use xlink:href="#DejaVuSans-5b" transform="translate(420.507812 0)"/>
     <use xlink:href="#DejaVuSans-35" transform="translate(459.521484 0)"/>
     <use xlink:href="#DejaVuSans-2c" transform="translate(523.144531 0)"/>
     <use xlink:href="#DejaVuSans-20" transform="translate(554.931641 0)"/>
     <use xlink:href="#DejaVuSans-31" transform="translate(586.71875 0)"/>
     <use xlink:href="#DejaVuSans-5d" transform="translate(650.341797 0)"/>
    </g>
    <!-- class = Legit -->
    <g transform="translate(74.026392 284.098047) scale(0.05 -0.05)">
     <defs>
      <path id="DejaVuSans-4c" d="M 628 4666 
L 1259 4666 
L 1259 531 
L 3531 531 
L 3531 0 
L 628 0 
L 628 4666 
z
" transform="scale(0.015625)"/>
     </defs>
     <use xlink:href="#DejaVuSans-63"/>
     <use xlink:href="#DejaVuSans-6c" transform="translate(54.980469 0)"/>
     <use xlink:href="#DejaVuSans-61" transform="translate(82.763672 0)"/>
     <use xlink:href="#DejaVuSans-73" transform="translate(144.042969 0)"/>
     <use xlink:href="#DejaVuSans-73" transform="translate(196.142578 0)"/>
     <use xlink:href="#DejaVuSans-20" transform="translate(248.242188 0)"/>
     <use xlink:href="#DejaVuSans-3d" transform="translate(280.029297 0)"/>
     <use xlink:href="#DejaVuSans-20" transform="translate(363.818359 0)"/>
     <use xlink:href="#DejaVuSans-4c" transform="translate(395.605469 0)"/>
     <use xlink:href="#DejaVuSans-65" transform="translate(449.568359 0)"/>
     <use xlink:href="#DejaVuSans-67" transform="translate(511.091797 0)"/>
     <use xlink:href="#DejaVuSans-69" transform="translate(574.568359 0)"/>
     <use xlink:href="#DejaVuSans-74" transform="translate(602.351562 0)"/>
    </g>
   </g>
   <g id="patch_4">
    <path d="M 147.372088 258.696383 
Q 135.634986 234.644789 123.407555 209.588417 
" style="fill: none; stroke: #000000; stroke-linecap: round"/>
    <path d="M 147.393662 256.46042 
L 147.372088 258.696383 
L 145.596262 257.337546 
" style="fill: none; stroke: #000000; stroke-linecap: round"/>
   </g>
   <g id="text_3">
    <g id="patch_5">
     <path d="M 137.762379 286.637891 
L 172.230348 286.637891 
Q 173.730348 286.637891 173.730348 285.137891 
L 173.730348 263.502109 
Q 173.730348 262.002109 172.230348 262.002109 
L 137.762379 262.002109 
Q 136.262379 262.002109 136.262379 263.502109 
L 136.262379 285.137891 
Q 136.262379 286.637891 137.762379 286.637891 
z
" style="fill: #399de5; stroke: #000000; stroke-linejoin: miter"/>
    </g>
    <!-- gini = 0.0 -->
    <g transform="translate(142.776051 267.301328) scale(0.05 -0.05)">
     <use xlink:href="#DejaVuSans-67"/>
     <use xlink:href="#DejaVuSans-69" transform="translate(63.476562 0)"/>
     <use xlink:href="#DejaVuSans-6e" transform="translate(91.259766 0)"/>
     <use xlink:href="#DejaVuSans-69" transform="translate(154.638672 0)"/>
     <use xlink:href="#DejaVuSans-20" transform="translate(182.421875 0)"/>
     <use xlink:href="#DejaVuSans-3d" transform="translate(214.208984 0)"/>
     <use xlink:href="#DejaVuSans-20" transform="translate(297.998047 0)"/>
     <use xlink:href="#DejaVuSans-30" transform="translate(329.785156 0)"/>
     <use xlink:href="#DejaVuSans-2e" transform="translate(393.408203 0)"/>
     <use xlink:href="#DejaVuSans-30" transform="translate(425.195312 0)"/>
    </g>
    <!-- samples = 3 -->
    <g transform="translate(139.329957 272.900234) scale(0.05 -0.05)">
     <defs>
      <path id="DejaVuSans-33" d="M 2597 2516 
Q 3050 2419 3304 2112 
Q 3559 1806 3559 1356 
Q 3559 666 3084 287 
Q 2609 -91 1734 -91 
Q 1441 -91 1130 -33 
Q 819 25 488 141 
L 488 750 
Q 750 597 1062 519 
Q 1375 441 1716 441 
Q 2309 441 2620 675 
Q 2931 909 2931 1356 
Q 2931 1769 2642 2001 
Q 2353 2234 1838 2234 
L 1294 2234 
L 1294 2753 
L 1863 2753 
Q 2328 2753 2575 2939 
Q 2822 3125 2822 3475 
Q 2822 3834 2567 4026 
Q 2313 4219 1838 4219 
Q 1578 4219 1281 4162 
Q 984 4106 628 3988 
L 628 4550 
Q 988 4650 1302 4700 
Q 1616 4750 1894 4750 
Q 2613 4750 3031 4423 
Q 3450 4097 3450 3541 
Q 3450 3153 3228 2886 
Q 3006 2619 2597 2516 
z
" transform="scale(0.015625)"/>
     </defs>
     <use xlink:href="#DejaVuSans-73"/>
     <use xlink:href="#DejaVuSans-61" transform="translate(52.099609 0)"/>
     <use xlink:href="#DejaVuSans-6d" transform="translate(113.378906 0)"/>
     <use xlink:href="#DejaVuSans-70" transform="translate(210.791016 0)"/>
     <use xlink:href="#DejaVuSans-6c" transform="translate(274.267578 0)"/>
     <use xlink:href="#DejaVuSans-65" transform="translate(302.050781 0)"/>
     <use xlink:href="#DejaVuSans-73" transform="translate(363.574219 0)"/>
     <use xlink:href="#DejaVuSans-20" transform="translate(415.673828 0)"/>
     <use xlink:href="#DejaVuSans-3d" transform="translate(447.460938 0)"/>
     <use xlink:href="#DejaVuSans-20" transform="translate(531.25 0)"/>
     <use xlink:href="#DejaVuSans-33" transform="translate(563.037109 0)"/>
    </g>
    <!-- value = [0, 3] -->
    <g transform="translate(137.762379 278.499141) scale(0.05 -0.05)">
     <use xlink:href="#DejaVuSans-76"/>
     <use xlink:href="#DejaVuSans-61" transform="translate(59.179688 0)"/>
     <use xlink:href="#DejaVuSans-6c" transform="translate(120.458984 0)"/>
     <use xlink:href="#DejaVuSans-75" transform="translate(148.242188 0)"/>
     <use xlink:href="#DejaVuSans-65" transform="translate(211.621094 0)"/>
     <use xlink:href="#DejaVuSans-20" transform="translate(273.144531 0)"/>
     <use xlink:href="#DejaVuSans-3d" transform="translate(304.931641 0)"/>
     <use xlink:href="#DejaVuSans-20" transform="translate(388.720703 0)"/>
     <use xlink:href="#DejaVuSans-5b" transform="translate(420.507812 0)"/>
     <use xlink:href="#DejaVuSans-30" transform="translate(459.521484 0)"/>
     <use xlink:href="#DejaVuSans-2c" transform="translate(523.144531 0)"/>
     <use xlink:href="#DejaVuSans-20" transform="translate(554.931641 0)"/>
     <use xlink:href="#DejaVuSans-33" transform="translate(586.71875 0)"/>
     <use xlink:href="#DejaVuSans-5d" transform="translate(650.341797 0)"/>
    </g>
    <!-- class = Fraud -->
    <g transform="translate(138.118629 284.098047) scale(0.05 -0.05)">
     <defs>
      <path id="DejaVuSans-46" d="M 628 4666 
L 3309 4666 
L 3309 4134 
L 1259 4134 
L 1259 2759 
L 3109 2759 
L 3109 2228 
L 1259 2228 
L 1259 0 
L 628 0 
L 628 4666 
z
" transform="scale(0.015625)"/>
     </defs>
     <use xlink:href="#DejaVuSans-63"/>
     <use xlink:href="#DejaVuSans-6c" transform="translate(54.980469 0)"/>
     <use xlink:href="#DejaVuSans-61" transform="translate(82.763672 0)"/>
     <use xlink:href="#DejaVuSans-73" transform="translate(144.042969 0)"/>
     <use xlink:href="#DejaVuSans-73" transform="translate(196.142578 0)"/>
     <use xlink:href="#DejaVuSans-20" transform="translate(248.242188 0)"/>
     <use xlink:href="#DejaVuSans-3d" transform="translate(280.029297 0)"/>
     <use xlink:href="#DejaVuSans-20" transform="translate(363.818359 0)"/>
     <use xlink:href="#DejaVuSans-46" transform="translate(395.605469 0)"/>
     <use xlink:href="#DejaVuSans-72" transform="translate(445.875 0)"/>
     <use xlink:href="#DejaVuSans-61" transform="translate(486.988281 0)"/>
     <use xlink:href="#DejaVuSans-75" transform="translate(548.267578 0)"/>
     <use xlink:href="#DejaVuSans-64" transform="translate(611.646484 0)"/>
    </g>
   </g>
   <g id="patch_6">
    <path d="M 227.551548 258.696383 
Q 239.288651 234.644789 251.516081 209.588417 
" style="fill: none; stroke: #000000; stroke-linecap: round"/>
    <path d="M 229.327375 257.337546 
L 227.551548 258.696383 
L 227.529974 256.46042 
" style="fill: none; stroke: #000000; stroke-linecap: round"/>
   </g>
   <g id="text_4">
    <g id="patch_7">
     <path d="M 201.102663 286.637891 
L 238.751882 286.637891 
Q 240.251882 286.637891 240.251882 285.137891 
L 240.251882 263.502109 
Q 240.251882 262.002109 238.751882 262.002109 
L 201.102663 262.002109 
Q 199.602663 262.002109 199.602663 263.502109 
L 199.602663 285.137891 
Q 199.602663 286.637891 201.102663 286.637891 
z
" style="fill: #e78b49; stroke: #000000; stroke-linejoin: miter"/>
    </g>
    <!-- gini = 0.136 -->
    <g transform="translate(204.52571 267.301328) scale(0.05 -0.05)">
     <use xlink:href="#DejaVuSans-67"/>
     <use xlink:href="#DejaVuSans-69" transform="translate(63.476562 0)"/>
     <use xlink:href="#DejaVuSans-6e" transform="translate(91.259766 0)"/>
     <use xlink:href="#DejaVuSans-69" transform="translate(154.638672 0)"/>
     <use xlink:href="#DejaVuSans-20" transform="translate(182.421875 0)"/>
     <use xlink:href="#DejaVuSans-3d" transform="translate(214.208984 0)"/>
     <use xlink:href="#DejaVuSans-20" transform="translate(297.998047 0)"/>
     <use xlink:href="#DejaVuSans-30" transform="translate(329.785156 0)"/>
     <use xlink:href="#DejaVuSans-2e" transform="translate(393.408203 0)"/>
     <use xlink:href="#DejaVuSans-31" transform="translate(425.195312 0)"/>
     <use xlink:href="#DejaVuSans-33" transform="translate(488.818359 0)"/>
     <use xlink:href="#DejaVuSans-36" transform="translate(552.441406 0)"/>
    </g>
    <!-- samples = 82 -->
    <g transform="translate(202.670241 272.900234) scale(0.05 -0.05)">
     <use xlink:href="#DejaVuSans-73"/>
     <use xlink:href="#DejaVuSans-61" transform="translate(52.099609 0)"/>
     <use xlink:href="#DejaVuSans-6d" transform="translate(113.378906 0)"/>
     <use xlink:href="#DejaVuSans-70" transform="translate(210.791016 0)"/>
     <use xlink:href="#DejaVuSans-6c" transform="translate(274.267578 0)"/>
     <use xlink:href="#DejaVuSans-65" transform="translate(302.050781 0)"/>
     <use xlink:href="#DejaVuSans-73" transform="translate(363.574219 0)"/>
     <use xlink:href="#DejaVuSans-20" transform="translate(415.673828 0)"/>
     <use xlink:href="#DejaVuSans-3d" transform="translate(447.460938 0)"/>
     <use xlink:href="#DejaVuSans-20" transform="translate(531.25 0)"/>
     <use xlink:href="#DejaVuSans-38" transform="translate(563.037109 0)"/>
     <use xlink:href="#DejaVuSans-32" transform="translate(626.660156 0)"/>
    </g>
    <!-- value = [76, 6] -->
    <g transform="translate(201.102663 278.499141) scale(0.05 -0.05)">
     <use xlink:href="#DejaVuSans-76"/>
     <use xlink:href="#DejaVuSans-61" transform="translate(59.179688 0)"/>
     <use xlink:href="#DejaVuSans-6c" transform="translate(120.458984 0)"/>
     <use xlink:href="#DejaVuSans-75" transform="translate(148.242188 0)"/>
     <use xlink:href="#DejaVuSans-65" transform="translate(211.621094 0)"/>
     <use xlink:href="#DejaVuSans-20" transform="translate(273.144531 0)"/>
     <use xlink:href="#DejaVuSans-3d" transform="translate(304.931641 0)"/>
     <use xlink:href="#DejaVuSans-20" transform="translate(388.720703 0)"/>
     <use xlink:href="#DejaVuSans-5b" transform="translate(420.507812 0)"/>
     <use xlink:href="#DejaVuSans-37" transform="translate(459.521484 0)"/>
     <use xlink:href="#DejaVuSans-36" transform="translate(523.144531 0)"/>
     <use xlink:href="#DejaVuSans-2c" transform="translate(586.767578 0)"/>
     <use xlink:href="#DejaVuSans-20" transform="translate(618.554688 0)"/>
     <use xlink:href="#DejaVuSans-36" transform="translate(650.341797 0)"/>
     <use xlink:href="#DejaVuSans-5d" transform="translate(713.964844 0)"/>
    </g>
    <!-- class = Legit -->
    <g transform="translate(203.88821 284.098047) scale(0.05 -0.05)">
     <use xlink:href="#DejaVuSans-63"/>
     <use xlink:href="#DejaVuSans-6c" transform="translate(54.980469 0)"/>
     <use xlink:href="#DejaVuSans-61" transform="translate(82.763672 0)"/>
     <use xlink:href="#DejaVuSans-73" transform="translate(144.042969 0)"/>
     <use xlink:href="#DejaVuSans-73" transform="translate(196.142578 0)"/>
     <use xlink:href="#DejaVuSans-20" transform="translate(248.242188 0)"/>
     <use xlink:href="#DejaVuSans-3d" transform="translate(280.029297 0)"/>
     <use xlink:href="#DejaVuSans-20" transform="translate(363.818359 0)"/>
     <use xlink:href="#DejaVuSans-4c" transform="translate(395.605469 0)"/>
     <use xlink:href="#DejaVuSans-65" transform="translate(449.568359 0)"/>
     <use xlink:href="#DejaVuSans-67" transform="translate(511.091797 0)"/>
     <use xlink:href="#DejaVuSans-69" transform="translate(574.568359 0)"/>
     <use xlink:href="#DejaVuSans-74" transform="translate(602.351562 0)"/>
    </g>
   </g>
   <g id="patch_8">
    <path d="M 277.233906 258.696383 
Q 265.496804 234.644789 253.269373 209.588417 
" style="fill: none; stroke: #000000; stroke-linecap: round"/>
    <path d="M 277.255481 256.46042 
L 277.233906 258.696383 
L 275.45808 257.337546 
" style="fill: none; stroke: #000000; stroke-linecap: round"/>
   </g>
   <g id="text_5">
    <g id="patch_9">
     <path d="M 267.624197 286.637891 
L 302.092166 286.637891 
Q 303.592166 286.637891 303.592166 285.137891 
L 303.592166 263.502109 
Q 303.592166 262.002109 302.092166 262.002109 
L 267.624197 262.002109 
Q 266.124197 262.002109 266.124197 263.502109 
L 266.124197 285.137891 
Q 266.124197 286.637891 267.624197 286.637891 
z
" style="fill: #399de5; stroke: #000000; stroke-linejoin: miter"/>
    </g>
    <!-- gini = 0.0 -->
    <g transform="translate(272.637869 267.301328) scale(0.05 -0.05)">
     <use xlink:href="#DejaVuSans-67"/>
     <use xlink:href="#DejaVuSans-69" transform="translate(63.476562 0)"/>
     <use xlink:href="#DejaVuSans-6e" transform="translate(91.259766 0)"/>
     <use xlink:href="#DejaVuSans-69" transform="translate(154.638672 0)"/>
     <use xlink:href="#DejaVuSans-20" transform="translate(182.421875 0)"/>
     <use xlink:href="#DejaVuSans-3d" transform="translate(214.208984 0)"/>
     <use xlink:href="#DejaVuSans-20" transform="translate(297.998047 0)"/>
     <use xlink:href="#DejaVuSans-30" transform="translate(329.785156 0)"/>
     <use xlink:href="#DejaVuSans-2e" transform="translate(393.408203 0)"/>
     <use xlink:href="#DejaVuSans-30" transform="translate(425.195312 0)"/>
    </g>
    <!-- samples = 1 -->
    <g transform="translate(269.191776 272.900234) scale(0.05 -0.05)">
     <use xlink:href="#DejaVuSans-73"/>
     <use xlink:href="#DejaVuSans-61" transform="translate(52.099609 0)"/>
     <use xlink:href="#DejaVuSans-6d" transform="translate(113.378906 0)"/>
     <use xlink:href="#DejaVuSans-70" transform="translate(210.791016 0)"/>
     <use xlink:href="#DejaVuSans-6c" transform="translate(274.267578 0)"/>
     <use xlink:href="#DejaVuSans-65" transform="translate(302.050781 0)"/>
     <use xlink:href="#DejaVuSans-73" transform="translate(363.574219 0)"/>
     <use xlink:href="#DejaVuSans-20" transform="translate(415.673828 0)"/>
     <use xlink:href="#DejaVuSans-3d" transform="translate(447.460938 0)"/>
     <use xlink:href="#DejaVuSans-20" transform="translate(531.25 0)"/>
     <use xlink:href="#DejaVuSans-31" transform="translate(563.037109 0)"/>
    </g>
    <!-- value = [0, 1] -->
    <g transform="translate(267.624197 278.499141) scale(0.05 -0.05)">
     <use xlink:href="#DejaVuSans-76"/>
     <use xlink:href="#DejaVuSans-61" transform="translate(59.179688 0)"/>
     <use xlink:href="#DejaVuSans-6c" transform="translate(120.458984 0)"/>
     <use xlink:href="#DejaVuSans-75" transform="translate(148.242188 0)"/>
     <use xlink:href="#DejaVuSans-65" transform="translate(211.621094 0)"/>
     <use xlink:href="#DejaVuSans-20" transform="translate(273.144531 0)"/>
     <use xlink:href="#DejaVuSans-3d" transform="translate(304.931641 0)"/>
     <use xlink:href="#DejaVuSans-20" transform="translate(388.720703 0)"/>
     <use xlink:href="#DejaVuSans-5b" transform="translate(420.507812 0)"/>
     <use xlink:href="#DejaVuSans-30" transform="translate(459.521484 0)"/>
     <use xlink:href="#DejaVuSans-2c" transform="translate(523.144531 0)"/>
     <use xlink:href="#DejaVuSans-20" transform="translate(554.931641 0)"/>
     <use xlink:href="#DejaVuSans-31" transform="translate(586.71875 0)"/>
     <use xlink:href="#DejaVuSans-5d" transform="translate(650.341797 0)"/>
    </g>
    <!-- class = Fraud -->
    <g transform="translate(267.980447 284.098047) scale(0.05 -0.05)">
     <use xlink:href="#DejaVuSans-63"/>
     <use xlink:href="#DejaVuSans-6c" transform="translate(54.980469 0)"/>
     <use xlink:href="#DejaVuSans-61" transform="translate(82.763672 0)"/>
     <use xlink:href="#DejaVuSans-73" transform="translate(144.042969 0)"/>
     <use xlink:href="#DejaVuSans-73" transform="translate(196.142578 0)"/>
     <use xlink:href="#DejaVuSans-20" transform="translate(248.242188 0)"/>
     <use xlink:href="#DejaVuSans-3d" transform="translate(280.029297 0)"/>
     <use xlink:href="#DejaVuSans-20" transform="translate(363.818359 0)"/>
     <use xlink:href="#DejaVuSans-46" transform="translate(395.605469 0)"/>
     <use xlink:href="#DejaVuSans-72" transform="translate(445.875 0)"/>
     <use xlink:href="#DejaVuSans-61" transform="translate(486.988281 0)"/>
     <use xlink:href="#DejaVuSans-75" transform="translate(548.267578 0)"/>
     <use xlink:href="#DejaVuSans-64" transform="translate(611.646484 0)"/>
    </g>
   </g>
   <g id="patch_10">
    <path d="M 140.156281 189.733101 
Q 162.721542 166.612807 186.06771 142.692398 
" style="fill: none; stroke: #000000; stroke-linecap: round"/>
    <path d="M 142.268854 189.000277 
L 140.156281 189.733101 
L 140.837565 187.603347 
" style="fill: none; stroke: #000000; stroke-linecap: round"/>
   </g>
   <g id="text_6">
    <g id="patch_11">
     <path d="M 82.500831 222.978875 
L 162.560987 222.978875 
Q 164.060987 222.978875 164.060987 221.478875 
L 164.060987 193.966062 
Q 164.060987 192.466062 162.560987 192.466062 
L 82.500831 192.466062 
Q 81.000831 192.466062 81.000831 193.966062 
L 81.000831 221.478875 
Q 81.000831 222.978875 82.500831 222.978875 
z
" style="fill: #fae6d7; stroke: #000000; stroke-linejoin: miter"/>
    </g>
    <!-- num__dayofweek_cos &lt;= 0.124 -->
    <g transform="translate(82.500831 197.904344) scale(0.05 -0.05)">
     <defs>
      <path id="DejaVuSans-5f" d="M 3263 -1063 
L 3263 -1509 
L -63 -1509 
L -63 -1063 
L 3263 -1063 
z
" transform="scale(0.015625)"/>
      <path id="DejaVuSans-79" d="M 2059 -325 
Q 1816 -950 1584 -1140 
Q 1353 -1331 966 -1331 
L 506 -1331 
L 506 -850 
L 844 -850 
Q 1081 -850 1212 -737 
Q 1344 -625 1503 -206 
L 1606 56 
L 191 3500 
L 800 3500 
L 1894 763 
L 2988 3500 
L 3597 3500 
L 2059 -325 
z
" transform="scale(0.015625)"/>
      <path id="DejaVuSans-66" d="M 2375 4863 
L 2375 4384 
L 1825 4384 
Q 1516 4384 1395 4259 
Q 1275 4134 1275 3809 
L 1275 3500 
L 2222 3500 
L 2222 3053 
L 1275 3053 
L 1275 0 
L 697 0 
L 697 3053 
L 147 3053 
L 147 3500 
L 697 3500 
L 697 3744 
Q 697 4328 969 4595 
Q 1241 4863 1831 4863 
L 2375 4863 
z
" transform="scale(0.015625)"/>
      <path id="DejaVuSans-77" d="M 269 3500 
L 844 3500 
L 1563 769 
L 2278 3500 
L 2956 3500 
L 3675 769 
L 4391 3500 
L 4966 3500 
L 4050 0 
L 3372 0 
L 2619 2869 
L 1863 0 
L 1184 0 
L 269 3500 
z
" transform="scale(0.015625)"/>
      <path id="DejaVuSans-6b" d="M 581 4863 
L 1159 4863 
L 1159 1991 
L 2875 3500 
L 3609 3500 
L 1753 1863 
L 3688 0 
L 2938 0 
L 1159 1709 
L 1159 0 
L 581 0 
L 581 4863 
z
" transform="scale(0.015625)"/>
      <path id="DejaVuSans-3c" d="M 4684 3150 
L 1459 2003 
L 4684 863 
L 4684 294 
L 678 1747 
L 678 2266 
L 4684 3719 
L 4684 3150 
z
" transform="scale(0.015625)"/>
      <path id="DejaVuSans-34" d="M 2419 4116 
L 825 1625 
L 2419 1625 
L 2419 4116 
z
M 2253 4666 
L 3047 4666 
L 3047 1625 
L 3713 1625 
L 3713 1100 
L 3047 1100 
L 3047 0 
L 2419 0 
L 2419 1100 
L 313 1100 
L 313 1709 
L 2253 4666 
z
" transform="scale(0.015625)"/>
     </defs>
     <use xlink:href="#DejaVuSans-6e"/>
     <use xlink:href="#DejaVuSans-75" transform="translate(63.378906 0)"/>
     <use xlink:href="#DejaVuSans-6d" transform="translate(126.757812 0)"/>
     <use xlink:href="#DejaVuSans-5f" transform="translate(224.169922 0)"/>
     <use xlink:href="#DejaVuSans-5f" transform="translate(274.169922 0)"/>
     <use xlink:href="#DejaVuSans-64" transform="translate(324.169922 0)"/>
     <use xlink:href="#DejaVuSans-61" transform="translate(387.646484 0)"/>
     <use xlink:href="#DejaVuSans-79" transform="translate(448.925781 0)"/>
     <use xlink:href="#DejaVuSans-6f" transform="translate(508.105469 0)"/>
     <use xlink:href="#DejaVuSans-66" transform="translate(569.287109 0)"/>
     <use xlink:href="#DejaVuSans-77" transform="translate(602.742188 0)"/>
     <use xlink:href="#DejaVuSans-65" transform="translate(684.529297 0)"/>
     <use xlink:href="#DejaVuSans-65" transform="translate(746.052734 0)"/>
     <use xlink:href="#DejaVuSans-6b" transform="translate(807.576172 0)"/>
     <use xlink:href="#DejaVuSans-5f" transform="translate(865.486328 0)"/>
     <use xlink:href="#DejaVuSans-63" transform="translate(915.486328 0)"/>
     <use xlink:href="#DejaVuSans-6f" transform="translate(970.466797 0)"/>
     <use xlink:href="#DejaVuSans-73" transform="translate(1031.648438 0)"/>
     <use xlink:href="#DejaVuSans-20" transform="translate(1083.748047 0)"/>
     <use xlink:href="#DejaVuSans-3c" transform="translate(1115.535156 0)"/>
     <use xlink:href="#DejaVuSans-3d" transform="translate(1199.324219 0)"/>
     <use xlink:href="#DejaVuSans-20" transform="translate(1283.113281 0)"/>
     <use xlink:href="#DejaVuSans-30" transform="translate(1314.900391 0)"/>
     <use xlink:href="#DejaVuSans-2e" transform="translate(1378.523438 0)"/>
     <use xlink:href="#DejaVuSans-31" transform="translate(1410.310547 0)"/>
     <use xlink:href="#DejaVuSans-32" transform="translate(1473.933594 0)"/>
     <use xlink:href="#DejaVuSans-34" transform="translate(1537.556641 0)"/>
    </g>
    <!-- gini = 0.494 -->
    <g transform="translate(107.129347 203.642312) scale(0.05 -0.05)">
     <defs>
      <path id="DejaVuSans-39" d="M 703 97 
L 703 672 
Q 941 559 1184 500 
Q 1428 441 1663 441 
Q 2288 441 2617 861 
Q 2947 1281 2994 2138 
Q 2813 1869 2534 1725 
Q 2256 1581 1919 1581 
Q 1219 1581 811 2004 
Q 403 2428 403 3163 
Q 403 3881 828 4315 
Q 1253 4750 1959 4750 
Q 2769 4750 3195 4129 
Q 3622 3509 3622 2328 
Q 3622 1225 3098 567 
Q 2575 -91 1691 -91 
Q 1453 -91 1209 -44 
Q 966 3 703 97 
z
M 1959 2075 
Q 2384 2075 2632 2365 
Q 2881 2656 2881 3163 
Q 2881 3666 2632 3958 
Q 2384 4250 1959 4250 
Q 1534 4250 1286 3958 
Q 1038 3666 1038 3163 
Q 1038 2656 1286 2365 
Q 1534 2075 1959 2075 
z
" transform="scale(0.015625)"/>
     </defs>
     <use xlink:href="#DejaVuSans-67"/>
     <use xlink:href="#DejaVuSans-69" transform="translate(63.476562 0)"/>
     <use xlink:href="#DejaVuSans-6e" transform="translate(91.259766 0)"/>
     <use xlink:href="#DejaVuSans-69" transform="translate(154.638672 0)"/>
     <use xlink:href="#DejaVuSans-20" transform="translate(182.421875 0)"/>
     <use xlink:href="#DejaVuSans-3d" transform="translate(214.208984 0)"/>
     <use xlink:href="#DejaVuSans-20" transform="translate(297.998047 0)"/>
     <use xlink:href="#DejaVuSans-30" transform="translate(329.785156 0)"/>
     <use xlink:href="#DejaVuSans-2e" transform="translate(393.408203 0)"/>
     <use xlink:href="#DejaVuSans-34" transform="translate(425.195312 0)"/>
     <use xlink:href="#DejaVuSans-39" transform="translate(488.818359 0)"/>
     <use xlink:href="#DejaVuSans-34" transform="translate(552.441406 0)"/>
    </g>
    <!-- samples = 9 -->
    <g transform="translate(106.864503 209.241219) scale(0.05 -0.05)">
     <use xlink:href="#DejaVuSans-73"/>
     <use xlink:href="#DejaVuSans-61" transform="translate(52.099609 0)"/>
     <use xlink:href="#DejaVuSans-6d" transform="translate(113.378906 0)"/>
     <use xlink:href="#DejaVuSans-70" transform="translate(210.791016 0)"/>
     <use xlink:href="#DejaVuSans-6c" transform="translate(274.267578 0)"/>
     <use xlink:href="#DejaVuSans-65" transform="translate(302.050781 0)"/>
     <use xlink:href="#DejaVuSans-73" transform="translate(363.574219 0)"/>
     <use xlink:href="#DejaVuSans-20" transform="translate(415.673828 0)"/>
     <use xlink:href="#DejaVuSans-3d" transform="translate(447.460938 0)"/>
     <use xlink:href="#DejaVuSans-20" transform="translate(531.25 0)"/>
     <use xlink:href="#DejaVuSans-39" transform="translate(563.037109 0)"/>
    </g>
    <!-- value = [5, 4] -->
    <g transform="translate(105.296925 214.840125) scale(0.05 -0.05)">
     <use xlink:href="#DejaVuSans-76"/>
     <use xlink:href="#DejaVuSans-61" transform="translate(59.179688 0)"/>
     <use xlink:href="#DejaVuSans-6c" transform="translate(120.458984 0)"/>
     <use xlink:href="#DejaVuSans-75" transform="translate(148.242188 0)"/>
     <use xlink:href="#DejaVuSans-65" transform="translate(211.621094 0)"/>
     <use xlink:href="#DejaVuSans-20" transform="translate(273.144531 0)"/>
     <use xlink:href="#DejaVuSans-3d" transform="translate(304.931641 0)"/>
     <use xlink:href="#DejaVuSans-20" transform="translate(388.720703 0)"/>
     <use xlink:href="#DejaVuSans-5b" transform="translate(420.507812 0)"/>
     <use xlink:href="#DejaVuSans-35" transform="translate(459.521484 0)"/>
     <use xlink:href="#DejaVuSans-2c" transform="translate(523.144531 0)"/>
     <use xlink:href="#DejaVuSans-20" transform="translate(554.931641 0)"/>
     <use xlink:href="#DejaVuSans-34" transform="translate(586.71875 0)"/>
     <use xlink:href="#DejaVuSans-5d" transform="translate(650.341797 0)"/>
    </g>
    <!-- class = Legit -->
    <g transform="translate(106.491847 220.439031) scale(0.05 -0.05)">
     <use xlink:href="#DejaVuSans-63"/>
     <use xlink:href="#DejaVuSans-6c" transform="translate(54.980469 0)"/>
     <use xlink:href="#DejaVuSans-61" transform="translate(82.763672 0)"/>
     <use xlink:href="#DejaVuSans-73" transform="translate(144.042969 0)"/>
     <use xlink:href="#DejaVuSans-73" transform="translate(196.142578 0)"/>
     <use xlink:href="#DejaVuSans-20" transform="translate(248.242188 0)"/>
     <use xlink:href="#DejaVuSans-3d" transform="translate(280.029297 0)"/>
     <use xlink:href="#DejaVuSans-20" transform="translate(363.818359 0)"/>
     <use xlink:href="#DejaVuSans-4c" transform="translate(395.605469 0)"/>
     <use xlink:href="#DejaVuSans-65" transform="translate(449.568359 0)"/>
     <use xlink:href="#DejaVuSans-67" transform="translate(511.091797 0)"/>
     <use xlink:href="#DejaVuSans-69" transform="translate(574.568359 0)"/>
     <use xlink:href="#DejaVuSans-74" transform="translate(602.351562 0)"/>
    </g>
   </g>
   <g id="patch_12">
    <path d="M 234.767356 189.733101 
Q 212.202094 166.612807 188.855926 142.692398 
" style="fill: none; stroke: #000000; stroke-linecap: round"/>
    <path d="M 234.086071 187.603347 
L 234.767356 189.733101 
L 232.654782 189.000277 
" style="fill: none; stroke: #000000; stroke-linecap: round"/>
   </g>
   <g id="text_7">
    <g id="patch_13">
     <path d="M 213.518118 222.978875 
L 291.267337 222.978875 
Q 292.767337 222.978875 292.767337 221.478875 
L 292.767337 193.966062 
Q 292.767337 192.466062 291.267337 192.466062 
L 213.518118 192.466062 
Q 212.018118 192.466062 212.018118 193.966062 
L 212.018118 221.478875 
Q 212.018118 222.978875 213.518118 222.978875 
z
" style="fill: #e78d4b; stroke: #000000; stroke-linejoin: miter"/>
    </g>
    <!-- num__TransactionAmt &lt;= 9.94 -->
    <g transform="translate(213.518118 197.904344) scale(0.05 -0.05)">
     <use xlink:href="#DejaVuSans-6e"/>
     <use xlink:href="#DejaVuSans-75" transform="translate(63.378906 0)"/>
     <use xlink:href="#DejaVuSans-6d" transform="translate(126.757812 0)"/>
     <use xlink:href="#DejaVuSans-5f" transform="translate(224.169922 0)"/>
     <use xlink:href="#DejaVuSans-5f" transform="translate(274.169922 0)"/>
     <use xlink:href="#DejaVuSans-54" transform="translate(324.169922 0)"/>
     <use xlink:href="#DejaVuSans-72" transform="translate(370.503906 0)"/>
     <use xlink:href="#DejaVuSans-61" transform="translate(411.617188 0)"/>
     <use xlink:href="#DejaVuSans-6e" transform="translate(472.896484 0)"/>
     <use xlink:href="#DejaVuSans-73" transform="translate(536.275391 0)"/>
     <use xlink:href="#DejaVuSans-61" transform="translate(588.375 0)"/>
     <use xlink:href="#DejaVuSans-63" transform="translate(649.654297 0)"/>
     <use xlink:href="#DejaVuSans-74" transform="translate(704.634766 0)"/>
     <use xlink:href="#DejaVuSans-69" transform="translate(743.84375 0)"/>
     <use xlink:href="#DejaVuSans-6f" transform="translate(771.626953 0)"/>
     <use xlink:href="#DejaVuSans-6e" transform="translate(832.808594 0)"/>
     <use xlink:href="#DejaVuSans-41" transform="translate(896.1875 0)"/>
     <use xlink:href="#DejaVuSans-6d" transform="translate(964.595703 0)"/>
     <use xlink:href="#DejaVuSans-74" transform="translate(1062.007812 0)"/>
     <use xlink:href="#DejaVuSans-20" transform="translate(1101.216797 0)"/>
     <use xlink:href="#DejaVuSans-3c" transform="translate(1133.003906 0)"/>
     <use xlink:href="#DejaVuSans-3d" transform="translate(1216.792969 0)"/>
     <use xlink:href="#DejaVuSans-20" transform="translate(1300.582031 0)"/>
     <use xlink:href="#DejaVuSans-39" transform="translate(1332.369141 0)"/>
     <use xlink:href="#DejaVuSans-2e" transform="translate(1395.992188 0)"/>
     <use xlink:href="#DejaVuSans-39" transform="translate(1427.779297 0)"/>
     <use xlink:href="#DejaVuSans-34" transform="translate(1491.402344 0)"/>
    </g>
    <!-- gini = 0.154 -->
    <g transform="translate(236.991165 203.642312) scale(0.05 -0.05)">
     <use xlink:href="#DejaVuSans-67"/>
     <use xlink:href="#DejaVuSans-69" transform="translate(63.476562 0)"/>
     <use xlink:href="#DejaVuSans-6e" transform="translate(91.259766 0)"/>
     <use xlink:href="#DejaVuSans-69" transform="translate(154.638672 0)"/>
     <use xlink:href="#DejaVuSans-20" transform="translate(182.421875 0)"/>
     <use xlink:href="#DejaVuSans-3d" transform="translate(214.208984 0)"/>
     <use xlink:href="#DejaVuSans-20" transform="translate(297.998047 0)"/>
     <use xlink:href="#DejaVuSans-30" transform="translate(329.785156 0)"/>
     <use xlink:href="#DejaVuSans-2e" transform="translate(393.408203 0)"/>
     <use xlink:href="#DejaVuSans-31" transform="translate(425.195312 0)"/>
     <use xlink:href="#DejaVuSans-35" transform="translate(488.818359 0)"/>
     <use xlink:href="#DejaVuSans-34" transform="translate(552.441406 0)"/>
    </g>
    <!-- samples = 83 -->
    <g transform="translate(235.135696 209.241219) scale(0.05 -0.05)">
     <use xlink:href="#DejaVuSans-73"/>
     <use xlink:href="#DejaVuSans-61" transform="translate(52.099609 0)"/>
     <use xlink:href="#DejaVuSans-6d" transform="translate(113.378906 0)"/>
     <use xlink:href="#DejaVuSans-70" transform="translate(210.791016 0)"/>
     <use xlink:href="#DejaVuSans-6c" transform="translate(274.267578 0)"/>
     <use xlink:href="#DejaVuSans-65" transform="translate(302.050781 0)"/>
     <use xlink:href="#DejaVuSans-73" transform="translate(363.574219 0)"/>
     <use xlink:href="#DejaVuSans-20" transform="translate(415.673828 0)"/>
     <use xlink:href="#DejaVuSans-3d" transform="translate(447.460938 0)"/>
     <use xlink:href="#DejaVuSans-20" transform="translate(531.25 0)"/>
     <use xlink:href="#DejaVuSans-38" transform="translate(563.037109 0)"/>
     <use xlink:href="#DejaVuSans-33" transform="translate(626.660156 0)"/>
    </g>
    <!-- value = [76.0, 7.0] -->
    <g transform="translate(228.797805 214.840125) scale(0.05 -0.05)">
     <use xlink:href="#DejaVuSans-76"/>
     <use xlink:href="#DejaVuSans-61" transform="translate(59.179688 0)"/>
     <use xlink:href="#DejaVuSans-6c" transform="translate(120.458984 0)"/>
     <use xlink:href="#DejaVuSans-75" transform="translate(148.242188 0)"/>
     <use xlink:href="#DejaVuSans-65" transform="translate(211.621094 0)"/>
     <use xlink:href="#DejaVuSans-20" transform="translate(273.144531 0)"/>
     <use xlink:href="#DejaVuSans-3d" transform="translate(304.931641 0)"/>
     <use xlink:href="#DejaVuSans-20" transform="translate(388.720703 0)"/>
     <use xlink:href="#DejaVuSans-5b" transform="translate(420.507812 0)"/>
     <use xlink:href="#DejaVuSans-37" transform="translate(459.521484 0)"/>
     <use xlink:href="#DejaVuSans-36" transform="translate(523.144531 0)"/>
     <use xlink:href="#DejaVuSans-2e" transform="translate(586.767578 0)"/>
     <use xlink:href="#DejaVuSans-30" transform="translate(618.554688 0)"/>
     <use xlink:href="#DejaVuSans-2c" transform="translate(682.177734 0)"/>
     <use xlink:href="#DejaVuSans-20" transform="translate(713.964844 0)"/>
     <use xlink:href="#DejaVuSans-37" transform="translate(745.751953 0)"/>
     <use xlink:href="#DejaVuSans-2e" transform="translate(809.375 0)"/>
     <use xlink:href="#DejaVuSans-30" transform="translate(841.162109 0)"/>
     <use xlink:href="#DejaVuSans-5d" transform="translate(904.785156 0)"/>
    </g>
    <!-- class = Legit -->
    <g transform="translate(236.353665 220.439031) scale(0.05 -0.05)">
     <use xlink:href="#DejaVuSans-63"/>
     <use xlink:href="#DejaVuSans-6c" transform="translate(54.980469 0)"/>
     <use xlink:href="#DejaVuSans-61" transform="translate(82.763672 0)"/>
     <use xlink:href="#DejaVuSans-73" transform="translate(144.042969 0)"/>
     <use xlink:href="#DejaVuSans-73" transform="translate(196.142578 0)"/>
     <use xlink:href="#DejaVuSans-20" transform="translate(248.242188 0)"/>
     <use xlink:href="#DejaVuSans-3d" transform="translate(280.029297 0)"/>
     <use xlink:href="#DejaVuSans-20" transform="translate(363.818359 0)"/>
     <use xlink:href="#DejaVuSans-4c" transform="translate(395.605469 0)"/>
     <use xlink:href="#DejaVuSans-65" transform="translate(449.568359 0)"/>
     <use xlink:href="#DejaVuSans-67" transform="translate(511.091797 0)"/>
     <use xlink:href="#DejaVuSans-69" transform="translate(574.568359 0)"/>
     <use xlink:href="#DejaVuSans-74" transform="translate(602.351562 0)"/>
    </g>
   </g>
   <g id="patch_14">
    <path d="M 324.947912 192.168383 
Q 336.685014 168.116789 348.912445 143.060417 
" style="fill: none; stroke: #000000; stroke-linecap: round"/>
    <path d="M 326.723738 190.809546 
L 324.947912 192.168383 
L 324.926338 189.93242 
" style="fill: none; stroke: #000000; stroke-linecap: round"/>
   </g>
   <g id="text_8">
    <g id="patch_15">
     <path d="M 300.089652 220.109891 
L 334.557621 220.109891 
Q 336.057621 220.109891 336.057621 218.609891 
L 336.057621 196.974109 
Q 336.057621 195.474109 334.557621 195.474109 
L 300.089652 195.474109 
Q 298.589652 195.474109 298.589652 196.974109 
L 298.589652 218.609891 
Q 298.589652 220.109891 300.089652 220.109891 
z
" style="fill: #e58139; stroke: #000000; stroke-linejoin: miter"/>
    </g>
    <!-- gini = 0.0 -->
    <g transform="translate(305.103324 200.773328) scale(0.05 -0.05)">
     <use xlink:href="#DejaVuSans-67"/>
     <use xlink:href="#DejaVuSans-69" transform="translate(63.476562 0)"/>
     <use xlink:href="#DejaVuSans-6e" transform="translate(91.259766 0)"/>
     <use xlink:href="#DejaVuSans-69" transform="translate(154.638672 0)"/>
     <use xlink:href="#DejaVuSans-20" transform="translate(182.421875 0)"/>
     <use xlink:href="#DejaVuSans-3d" transform="translate(214.208984 0)"/>
     <use xlink:href="#DejaVuSans-20" transform="translate(297.998047 0)"/>
     <use xlink:href="#DejaVuSans-30" transform="translate(329.785156 0)"/>
     <use xlink:href="#DejaVuSans-2e" transform="translate(393.408203 0)"/>
     <use xlink:href="#DejaVuSans-30" transform="translate(425.195312 0)"/>
    </g>
    <!-- samples = 2 -->
    <g transform="translate(301.65723 206.372234) scale(0.05 -0.05)">
     <use xlink:href="#DejaVuSans-73"/>
     <use xlink:href="#DejaVuSans-61" transform="translate(52.099609 0)"/>
     <use xlink:href="#DejaVuSans-6d" transform="translate(113.378906 0)"/>
     <use xlink:href="#DejaVuSans-70" transform="translate(210.791016 0)"/>
     <use xlink:href="#DejaVuSans-6c" transform="translate(274.267578 0)"/>
     <use xlink:href="#DejaVuSans-65" transform="translate(302.050781 0)"/>
     <use xlink:href="#DejaVuSans-73" transform="translate(363.574219 0)"/>
     <use xlink:href="#DejaVuSans-20" transform="translate(415.673828 0)"/>
     <use xlink:href="#DejaVuSans-3d" transform="translate(447.460938 0)"/>
     <use xlink:href="#DejaVuSans-20" transform="translate(531.25 0)"/>
     <use xlink:href="#DejaVuSans-32" transform="translate(563.037109 0)"/>
    </g>
    <!-- value = [2, 0] -->
    <g transform="translate(300.089652 211.971141) scale(0.05 -0.05)">
     <use xlink:href="#DejaVuSans-76"/>
     <use xlink:href="#DejaVuSans-61" transform="translate(59.179688 0)"/>
     <use xlink:href="#DejaVuSans-6c" transform="translate(120.458984 0)"/>
     <use xlink:href="#DejaVuSans-75" transform="translate(148.242188 0)"/>
     <use xlink:href="#DejaVuSans-65" transform="translate(211.621094 0)"/>
     <use xlink:href="#DejaVuSans-20" transform="translate(273.144531 0)"/>
     <use xlink:href="#DejaVuSans-3d" transform="translate(304.931641 0)"/>
     <use xlink:href="#DejaVuSans-20" transform="translate(388.720703 0)"/>
     <use xlink:href="#DejaVuSans-5b" transform="translate(420.507812 0)"/>
     <use xlink:href="#DejaVuSans-32" transform="translate(459.521484 0)"/>
     <use xlink:href="#DejaVuSans-2c" transform="translate(523.144531 0)"/>
     <use xlink:href="#DejaVuSans-20" transform="translate(554.931641 0)"/>
     <use xlink:href="#DejaVuSans-30" transform="translate(586.71875 0)"/>
     <use xlink:href="#DejaVuSans-5d" transform="translate(650.341797 0)"/>
    </g>
    <!-- class = Legit -->
    <g transform="translate(301.284574 217.570047) scale(0.05 -0.05)">
     <use xlink:href="#DejaVuSans-63"/>
     <use xlink:href="#DejaVuSans-6c" transform="translate(54.980469 0)"/>
     <use xlink:href="#DejaVuSans-61" transform="translate(82.763672 0)"/>
     <use xlink:href="#DejaVuSans-73" transform="translate(144.042969 0)"/>
     <use xlink:href="#DejaVuSans-73" transform="translate(196.142578 0)"/>
     <use xlink:href="#DejaVuSans-20" transform="translate(248.242188 0)"/>
     <use xlink:href="#DejaVuSans-3d" transform="translate(280.029297 0)"/>
     <use xlink:href="#DejaVuSans-20" transform="translate(363.818359 0)"/>
     <use xlink:href="#DejaVuSans-4c" transform="translate(395.605469 0)"/>
     <use xlink:href="#DejaVuSans-65" transform="translate(449.568359 0)"/>
     <use xlink:href="#DejaVuSans-67" transform="translate(511.091797 0)"/>
     <use xlink:href="#DejaVuSans-69" transform="translate(574.568359 0)"/>
     <use xlink:href="#DejaVuSans-74" transform="translate(602.351562 0)"/>
    </g>
   </g>
   <g id="patch_16">
    <path d="M 374.63027 192.168383 
Q 362.893167 168.116789 350.665737 143.060417 
" style="fill: none; stroke: #000000; stroke-linecap: round"/>
    <path d="M 374.651844 189.93242 
L 374.63027 192.168383 
L 372.854443 190.809546 
" style="fill: none; stroke: #000000; stroke-linecap: round"/>
   </g>
   <g id="text_9">
    <g id="patch_17">
     <path d="M 365.020561 220.109891 
L 399.48853 220.109891 
Q 400.98853 220.109891 400.98853 218.609891 
L 400.98853 196.974109 
Q 400.98853 195.474109 399.48853 195.474109 
L 365.020561 195.474109 
Q 363.520561 195.474109 363.520561 196.974109 
L 363.520561 218.609891 
Q 363.520561 220.109891 365.020561 220.109891 
z
" style="fill: #399de5; stroke: #000000; stroke-linejoin: miter"/>
    </g>
    <!-- gini = 0.0 -->
    <g transform="translate(370.034233 200.773328) scale(0.05 -0.05)">
     <use xlink:href="#DejaVuSans-67"/>
     <use xlink:href="#DejaVuSans-69" transform="translate(63.476562 0)"/>
     <use xlink:href="#DejaVuSans-6e" transform="translate(91.259766 0)"/>
     <use xlink:href="#DejaVuSans-69" transform="translate(154.638672 0)"/>
     <use xlink:href="#DejaVuSans-20" transform="translate(182.421875 0)"/>
     <use xlink:href="#DejaVuSans-3d" transform="translate(214.208984 0)"/>
     <use xlink:href="#DejaVuSans-20" transform="translate(297.998047 0)"/>
     <use xlink:href="#DejaVuSans-30" transform="translate(329.785156 0)"/>
     <use xlink:href="#DejaVuSans-2e" transform="translate(393.408203 0)"/>
     <use xlink:href="#DejaVuSans-30" transform="translate(425.195312 0)"/>
    </g>
    <!-- samples = 6 -->
    <g transform="translate(366.588139 206.372234) scale(0.05 -0.05)">
     <use xlink:href="#DejaVuSans-73"/>
     <use xlink:href="#DejaVuSans-61" transform="translate(52.099609 0)"/>
     <use xlink:href="#DejaVuSans-6d" transform="translate(113.378906 0)"/>
     <use xlink:href="#DejaVuSans-70" transform="translate(210.791016 0)"/>
     <use xlink:href="#DejaVuSans-6c" transform="translate(274.267578 0)"/>
     <use xlink:href="#DejaVuSans-65" transform="translate(302.050781 0)"/>
     <use xlink:href="#DejaVuSans-73" transform="translate(363.574219 0)"/>
     <use xlink:href="#DejaVuSans-20" transform="translate(415.673828 0)"/>
     <use xlink:href="#DejaVuSans-3d" transform="translate(447.460938 0)"/>
     <use xlink:href="#DejaVuSans-20" transform="translate(531.25 0)"/>
     <use xlink:href="#DejaVuSans-36" transform="translate(563.037109 0)"/>
    </g>
    <!-- value = [0, 6] -->
    <g transform="translate(365.020561 211.971141) scale(0.05 -0.05)">
     <use xlink:href="#DejaVuSans-76"/>
     <use xlink:href="#DejaVuSans-61" transform="translate(59.179688 0)"/>
     <use xlink:href="#DejaVuSans-6c" transform="translate(120.458984 0)"/>
     <use xlink:href="#DejaVuSans-75" transform="translate(148.242188 0)"/>
     <use xlink:href="#DejaVuSans-65" transform="translate(211.621094 0)"/>
     <use xlink:href="#DejaVuSans-20" transform="translate(273.144531 0)"/>
     <use xlink:href="#DejaVuSans-3d" transform="translate(304.931641 0)"/>
     <use xlink:href="#DejaVuSans-20" transform="translate(388.720703 0)"/>
     <use xlink:href="#DejaVuSans-5b" transform="translate(420.507812 0)"/>
     <use xlink:href="#DejaVuSans-30" transform="translate(459.521484 0)"/>
     <use xlink:href="#DejaVuSans-2c" transform="translate(523.144531 0)"/>
     <use xlink:href="#DejaVuSans-20" transform="translate(554.931641 0)"/>
     <use xlink:href="#DejaVuSans-36" transform="translate(586.71875 0)"/>
     <use xlink:href="#DejaVuSans-5d" transform="translate(650.341797 0)"/>
    </g>
    <!-- class = Fraud -->
    <g transform="translate(365.376811 217.570047) scale(0.05 -0.05)">
     <use xlink:href="#DejaVuSans-63"/>
     <use xlink:href="#DejaVuSans-6c" transform="translate(54.980469 0)"/>
     <use xlink:href="#DejaVuSans-61" transform="translate(82.763672 0)"/>
     <use xlink:href="#DejaVuSans-73" transform="translate(144.042969 0)"/>
     <use xlink:href="#DejaVuSans-73" transform="translate(196.142578 0)"/>
     <use xlink:href="#DejaVuSans-20" transform="translate(248.242188 0)"/>
     <use xlink:href="#DejaVuSans-3d" transform="translate(280.029297 0)"/>
     <use xlink:href="#DejaVuSans-20" transform="translate(363.818359 0)"/>
     <use xlink:href="#DejaVuSans-46" transform="translate(395.605469 0)"/>
     <use xlink:href="#DejaVuSans-72" transform="translate(445.875 0)"/>
     <use xlink:href="#DejaVuSans-61" transform="translate(486.988281 0)"/>
     <use xlink:href="#DejaVuSans-75" transform="translate(548.267578 0)"/>
     <use xlink:href="#DejaVuSans-64" transform="translate(611.646484 0)"/>
    </g>
   </g>
   <g id="patch_18">
    <path d="M 209.125072 123.50712 
Q 237.671045 100.10863 267.081695 76.001385 
" style="fill: none; stroke: #000000; stroke-linecap: round"/>
    <path d="M 211.305782 123.012649 
L 209.125072 123.50712 
L 210.037922 121.465869 
" style="fill: none; stroke: #000000; stroke-linecap: round"/>
   </g>
   <g id="text_10">
    <g id="patch_19">
     <path d="M 164.795803 156.406734 
L 210.127834 156.406734 
Q 211.627834 156.406734 211.627834 154.906734 
L 211.627834 127.482203 
Q 211.627834 125.982203 210.127834 125.982203 
L 164.795803 125.982203 
Q 163.295803 125.982203 163.295803 127.482203 
L 163.295803 154.906734 
Q 163.295803 156.406734 164.795803 156.406734 
z
" style="fill: #e99254; stroke: #000000; stroke-linejoin: miter"/>
    </g>
    <!-- cat__M2_T &lt;= 0.5 -->
    <g transform="translate(164.795803 131.332203) scale(0.05 -0.05)">
     <defs>
      <path id="DejaVuSans-4d" d="M 628 4666 
L 1569 4666 
L 2759 1491 
L 3956 4666 
L 4897 4666 
L 4897 0 
L 4281 0 
L 4281 4097 
L 3078 897 
L 2444 897 
L 1241 4097 
L 1241 0 
L 628 0 
L 628 4666 
z
" transform="scale(0.015625)"/>
     </defs>
     <use xlink:href="#DejaVuSans-63"/>
     <use xlink:href="#DejaVuSans-61" transform="translate(54.980469 0)"/>
     <use xlink:href="#DejaVuSans-74" transform="translate(116.259766 0)"/>
     <use xlink:href="#DejaVuSans-5f" transform="translate(155.46875 0)"/>
     <use xlink:href="#DejaVuSans-5f" transform="translate(205.46875 0)"/>
     <use xlink:href="#DejaVuSans-4d" transform="translate(255.46875 0)"/>
     <use xlink:href="#DejaVuSans-32" transform="translate(341.748047 0)"/>
     <use xlink:href="#DejaVuSans-5f" transform="translate(405.371094 0)"/>
     <use xlink:href="#DejaVuSans-54" transform="translate(455.371094 0)"/>
     <use xlink:href="#DejaVuSans-20" transform="translate(516.455078 0)"/>
     <use xlink:href="#DejaVuSans-3c" transform="translate(548.242188 0)"/>
     <use xlink:href="#DejaVuSans-3d" transform="translate(632.03125 0)"/>
     <use xlink:href="#DejaVuSans-20" transform="translate(715.820312 0)"/>
     <use xlink:href="#DejaVuSans-30" transform="translate(747.607422 0)"/>
     <use xlink:href="#DejaVuSans-2e" transform="translate(811.230469 0)"/>
     <use xlink:href="#DejaVuSans-35" transform="translate(843.017578 0)"/>
    </g>
    <!-- gini = 0.211 -->
    <g transform="translate(172.060256 137.070172) scale(0.05 -0.05)">
     <use xlink:href="#DejaVuSans-67"/>
     <use xlink:href="#DejaVuSans-69" transform="translate(63.476562 0)"/>
     <use xlink:href="#DejaVuSans-6e" transform="translate(91.259766 0)"/>
     <use xlink:href="#DejaVuSans-69" transform="translate(154.638672 0)"/>
     <use xlink:href="#DejaVuSans-20" transform="translate(182.421875 0)"/>
     <use xlink:href="#DejaVuSans-3d" transform="translate(214.208984 0)"/>
     <use xlink:href="#DejaVuSans-20" transform="translate(297.998047 0)"/>
     <use xlink:href="#DejaVuSans-30" transform="translate(329.785156 0)"/>
     <use xlink:href="#DejaVuSans-2e" transform="translate(393.408203 0)"/>
     <use xlink:href="#DejaVuSans-32" transform="translate(425.195312 0)"/>
     <use xlink:href="#DejaVuSans-31" transform="translate(488.818359 0)"/>
     <use xlink:href="#DejaVuSans-31" transform="translate(552.441406 0)"/>
    </g>
    <!-- samples = 92 -->
    <g transform="translate(170.204787 142.669078) scale(0.05 -0.05)">
     <use xlink:href="#DejaVuSans-73"/>
     <use xlink:href="#DejaVuSans-61" transform="translate(52.099609 0)"/>
     <use xlink:href="#DejaVuSans-6d" transform="translate(113.378906 0)"/>
     <use xlink:href="#DejaVuSans-70" transform="translate(210.791016 0)"/>
     <use xlink:href="#DejaVuSans-6c" transform="translate(274.267578 0)"/>
     <use xlink:href="#DejaVuSans-65" transform="translate(302.050781 0)"/>
     <use xlink:href="#DejaVuSans-73" transform="translate(363.574219 0)"/>
     <use xlink:href="#DejaVuSans-20" transform="translate(415.673828 0)"/>
     <use xlink:href="#DejaVuSans-3d" transform="translate(447.460938 0)"/>
     <use xlink:href="#DejaVuSans-20" transform="translate(531.25 0)"/>
     <use xlink:href="#DejaVuSans-39" transform="translate(563.037109 0)"/>
     <use xlink:href="#DejaVuSans-32" transform="translate(626.660156 0)"/>
    </g>
    <!-- value = [81, 11] -->
    <g transform="translate(167.046584 148.267984) scale(0.05 -0.05)">
     <use xlink:href="#DejaVuSans-76"/>
     <use xlink:href="#DejaVuSans-61" transform="translate(59.179688 0)"/>
     <use xlink:href="#DejaVuSans-6c" transform="translate(120.458984 0)"/>
     <use xlink:href="#DejaVuSans-75" transform="translate(148.242188 0)"/>
     <use xlink:href="#DejaVuSans-65" transform="translate(211.621094 0)"/>
     <use xlink:href="#DejaVuSans-20" transform="translate(273.144531 0)"/>
     <use xlink:href="#DejaVuSans-3d" transform="translate(304.931641 0)"/>
     <use xlink:href="#DejaVuSans-20" transform="translate(388.720703 0)"/>
     <use xlink:href="#DejaVuSans-5b" transform="translate(420.507812 0)"/>
     <use xlink:href="#DejaVuSans-38" transform="translate(459.521484 0)"/>
     <use xlink:href="#DejaVuSans-31" transform="translate(523.144531 0)"/>
     <use xlink:href="#DejaVuSans-2c" transform="translate(586.767578 0)"/>
     <use xlink:href="#DejaVuSans-20" transform="translate(618.554688 0)"/>
     <use xlink:href="#DejaVuSans-31" transform="translate(650.341797 0)"/>
     <use xlink:href="#DejaVuSans-31" transform="translate(713.964844 0)"/>
     <use xlink:href="#DejaVuSans-5d" transform="translate(777.587891 0)"/>
    </g>
    <!-- class = Legit -->
    <g transform="translate(171.422756 153.866891) scale(0.05 -0.05)">
     <use xlink:href="#DejaVuSans-63"/>
     <use xlink:href="#DejaVuSans-6c" transform="translate(54.980469 0)"/>
     <use xlink:href="#DejaVuSans-61" transform="translate(82.763672 0)"/>
     <use xlink:href="#DejaVuSans-73" transform="translate(144.042969 0)"/>
     <use xlink:href="#DejaVuSans-73" transform="translate(196.142578 0)"/>
     <use xlink:href="#DejaVuSans-20" transform="translate(248.242188 0)"/>
     <use xlink:href="#DejaVuSans-3d" transform="translate(280.029297 0)"/>
     <use xlink:href="#DejaVuSans-20" transform="translate(363.818359 0)"/>
     <use xlink:href="#DejaVuSans-4c" transform="translate(395.605469 0)"/>
     <use xlink:href="#DejaVuSans-65" transform="translate(449.568359 0)"/>
     <use xlink:href="#DejaVuSans-67" transform="translate(511.091797 0)"/>
     <use xlink:href="#DejaVuSans-69" transform="translate(574.568359 0)"/>
     <use xlink:href="#DejaVuSans-74" transform="translate(602.351562 0)"/>
    </g>
   </g>
   <g id="text_11">
    <!-- True   -->
    <g transform="translate(214.248324 108) scale(0.05 -0.05)">
     <use xlink:href="#DejaVuSans-54"/>
     <use xlink:href="#DejaVuSans-72" transform="translate(46.333984 0)"/>
     <use xlink:href="#DejaVuSans-75" transform="translate(87.447266 0)"/>
     <use xlink:href="#DejaVuSans-65" transform="translate(150.826172 0)"/>
     <use xlink:href="#DejaVuSans-20" transform="translate(212.349609 0)"/>
     <use xlink:href="#DejaVuSans-20" transform="translate(244.136719 0)"/>
    </g>
   </g>
   <g id="patch_20">
    <path d="M 328.072705 123.463569 
Q 299.5563 100.089315 270.175218 76.006306 
" style="fill: none; stroke: #000000; stroke-linecap: round"/>
    <path d="M 327.159856 121.422318 
L 328.072705 123.463569 
L 325.891995 122.969098 
" style="fill: none; stroke: #000000; stroke-linecap: round"/>
   </g>
   <g id="text_12">
    <g id="patch_21">
     <path d="M 300.07581 156.450875 
L 399.502372 156.450875 
Q 401.002372 156.450875 401.002372 154.950875 
L 401.002372 127.438062 
Q 401.002372 125.938062 399.502372 125.938062 
L 300.07581 125.938062 
Q 298.57581 125.938062 298.57581 127.438062 
L 298.57581 154.950875 
Q 298.57581 156.450875 300.07581 156.450875 
z
" style="fill: #7bbeee; stroke: #000000; stroke-linejoin: miter"/>
    </g>
    <!-- cat__R_emaildomain_gmail.com &lt;= 0.5 -->
    <g transform="translate(300.07581 131.376344) scale(0.05 -0.05)">
     <defs>
      <path id="DejaVuSans-52" d="M 2841 2188 
Q 3044 2119 3236 1894 
Q 3428 1669 3622 1275 
L 4263 0 
L 3584 0 
L 2988 1197 
Q 2756 1666 2539 1819 
Q 2322 1972 1947 1972 
L 1259 1972 
L 1259 0 
L 628 0 
L 628 4666 
L 2053 4666 
Q 2853 4666 3247 4331 
Q 3641 3997 3641 3322 
Q 3641 2881 3436 2590 
Q 3231 2300 2841 2188 
z
M 1259 4147 
L 1259 2491 
L 2053 2491 
Q 2509 2491 2742 2702 
Q 2975 2913 2975 3322 
Q 2975 3731 2742 3939 
Q 2509 4147 2053 4147 
L 1259 4147 
z
" transform="scale(0.015625)"/>
     </defs>
     <use xlink:href="#DejaVuSans-63"/>
     <use xlink:href="#DejaVuSans-61" transform="translate(54.980469 0)"/>
     <use xlink:href="#DejaVuSans-74" transform="translate(116.259766 0)"/>
     <use xlink:href="#DejaVuSans-5f" transform="translate(155.46875 0)"/>
     <use xlink:href="#DejaVuSans-5f" transform="translate(205.46875 0)"/>
     <use xlink:href="#DejaVuSans-52" transform="translate(255.46875 0)"/>
     <use xlink:href="#DejaVuSans-5f" transform="translate(324.951172 0)"/>
     <use xlink:href="#DejaVuSans-65" transform="translate(374.951172 0)"/>
     <use xlink:href="#DejaVuSans-6d" transform="translate(436.474609 0)"/>
     <use xlink:href="#DejaVuSans-61" transform="translate(533.886719 0)"/>
     <use xlink:href="#DejaVuSans-69" transform="translate(595.166016 0)"/>
     <use xlink:href="#DejaVuSans-6c" transform="translate(622.949219 0)"/>
     <use xlink:href="#DejaVuSans-64" transform="translate(650.732422 0)"/>
     <use xlink:href="#DejaVuSans-6f" transform="translate(714.208984 0)"/>
     <use xlink:href="#DejaVuSans-6d" transform="translate(775.390625 0)"/>
     <use xlink:href="#DejaVuSans-61" transform="translate(872.802734 0)"/>
     <use xlink:href="#DejaVuSans-69" transform="translate(934.082031 0)"/>
     <use xlink:href="#DejaVuSans-6e" transform="translate(961.865234 0)"/>
     <use xlink:href="#DejaVuSans-5f" transform="translate(1025.244141 0)"/>
     <use xlink:href="#DejaVuSans-67" transform="translate(1075.244141 0)"/>
     <use xlink:href="#DejaVuSans-6d" transform="translate(1138.720703 0)"/>
     <use xlink:href="#DejaVuSans-61" transform="translate(1236.132812 0)"/>
     <use xlink:href="#DejaVuSans-69" transform="translate(1297.412109 0)"/>
     <use xlink:href="#DejaVuSans-6c" transform="translate(1325.195312 0)"/>
     <use xlink:href="#DejaVuSans-2e" transform="translate(1352.978516 0)"/>
     <use xlink:href="#DejaVuSans-63" transform="translate(1384.765625 0)"/>
     <use xlink:href="#DejaVuSans-6f" transform="translate(1439.746094 0)"/>
     <use xlink:href="#DejaVuSans-6d" transform="translate(1500.927734 0)"/>
     <use xlink:href="#DejaVuSans-20" transform="translate(1598.339844 0)"/>
     <use xlink:href="#DejaVuSans-3c" transform="translate(1630.126953 0)"/>
     <use xlink:href="#DejaVuSans-3d" transform="translate(1713.916016 0)"/>
     <use xlink:href="#DejaVuSans-20" transform="translate(1797.705078 0)"/>
     <use xlink:href="#DejaVuSans-30" transform="translate(1829.492188 0)"/>
     <use xlink:href="#DejaVuSans-2e" transform="translate(1893.115234 0)"/>
     <use xlink:href="#DejaVuSans-35" transform="translate(1924.902344 0)"/>
    </g>
    <!-- gini = 0.375 -->
    <g transform="translate(334.387528 137.114312) scale(0.05 -0.05)">
     <use xlink:href="#DejaVuSans-67"/>
     <use xlink:href="#DejaVuSans-69" transform="translate(63.476562 0)"/>
     <use xlink:href="#DejaVuSans-6e" transform="translate(91.259766 0)"/>
     <use xlink:href="#DejaVuSans-69" transform="translate(154.638672 0)"/>
     <use xlink:href="#DejaVuSans-20" transform="translate(182.421875 0)"/>
     <use xlink:href="#DejaVuSans-3d" transform="translate(214.208984 0)"/>
     <use xlink:href="#DejaVuSans-20" transform="translate(297.998047 0)"/>
     <use xlink:href="#DejaVuSans-30" transform="translate(329.785156 0)"/>
     <use xlink:href="#DejaVuSans-2e" transform="translate(393.408203 0)"/>
     <use xlink:href="#DejaVuSans-33" transform="translate(425.195312 0)"/>
     <use xlink:href="#DejaVuSans-37" transform="translate(488.818359 0)"/>
     <use xlink:href="#DejaVuSans-35" transform="translate(552.441406 0)"/>
    </g>
    <!-- samples = 8 -->
    <g transform="translate(334.122685 142.713219) scale(0.05 -0.05)">
     <use xlink:href="#DejaVuSans-73"/>
     <use xlink:href="#DejaVuSans-61" transform="translate(52.099609 0)"/>
     <use xlink:href="#DejaVuSans-6d" transform="translate(113.378906 0)"/>
     <use xlink:href="#DejaVuSans-70" transform="translate(210.791016 0)"/>
     <use xlink:href="#DejaVuSans-6c" transform="translate(274.267578 0)"/>
     <use xlink:href="#DejaVuSans-65" transform="translate(302.050781 0)"/>
     <use xlink:href="#DejaVuSans-73" transform="translate(363.574219 0)"/>
     <use xlink:href="#DejaVuSans-20" transform="translate(415.673828 0)"/>
     <use xlink:href="#DejaVuSans-3d" transform="translate(447.460938 0)"/>
     <use xlink:href="#DejaVuSans-20" transform="translate(531.25 0)"/>
     <use xlink:href="#DejaVuSans-38" transform="translate(563.037109 0)"/>
    </g>
    <!-- value = [2, 6] -->
    <g transform="translate(332.555107 148.312125) scale(0.05 -0.05)">
     <use xlink:href="#DejaVuSans-76"/>
     <use xlink:href="#DejaVuSans-61" transform="translate(59.179688 0)"/>
     <use xlink:href="#DejaVuSans-6c" transform="translate(120.458984 0)"/>
     <use xlink:href="#DejaVuSans-75" transform="translate(148.242188 0)"/>
     <use xlink:href="#DejaVuSans-65" transform="translate(211.621094 0)"/>
     <use xlink:href="#DejaVuSans-20" transform="translate(273.144531 0)"/>
     <use xlink:href="#DejaVuSans-3d" transform="translate(304.931641 0)"/>
     <use xlink:href="#DejaVuSans-20" transform="translate(388.720703 0)"/>
     <use xlink:href="#DejaVuSans-5b" transform="translate(420.507812 0)"/>
     <use xlink:href="#DejaVuSans-32" transform="translate(459.521484 0)"/>
     <use xlink:href="#DejaVuSans-2c" transform="translate(523.144531 0)"/>
     <use xlink:href="#DejaVuSans-20" transform="translate(554.931641 0)"/>
     <use xlink:href="#DejaVuSans-36" transform="translate(586.71875 0)"/>
     <use xlink:href="#DejaVuSans-5d" transform="translate(650.341797 0)"/>
    </g>
    <!-- class = Fraud -->
    <g transform="translate(332.911357 153.911031) scale(0.05 -0.05)">
     <use xlink:href="#DejaVuSans-63"/>
     <use xlink:href="#DejaVuSans-6c" transform="translate(54.980469 0)"/>
     <use xlink:href="#DejaVuSans-61" transform="translate(82.763672 0)"/>
     <use xlink:href="#DejaVuSans-73" transform="translate(144.042969 0)"/>
     <use xlink:href="#DejaVuSans-73" transform="translate(196.142578 0)"/>
     <use xlink:href="#DejaVuSans-20" transform="translate(248.242188 0)"/>
     <use xlink:href="#DejaVuSans-3d" transform="translate(280.029297 0)"/>
     <use xlink:href="#DejaVuSans-20" transform="translate(363.818359 0)"/>
     <use xlink:href="#DejaVuSans-46" transform="translate(395.605469 0)"/>
     <use xlink:href="#DejaVuSans-72" transform="translate(445.875 0)"/>
     <use xlink:href="#DejaVuSans-61" transform="translate(486.988281 0)"/>
     <use xlink:href="#DejaVuSans-75" transform="translate(548.267578 0)"/>
     <use xlink:href="#DejaVuSans-64" transform="translate(611.646484 0)"/>
    </g>
   </g>
   <g id="text_13">
    <!--   False -->
    <g transform="translate(309.207273 108) scale(0.05 -0.05)">
     <use xlink:href="#DejaVuSans-20"/>
     <use xlink:href="#DejaVuSans-20" transform="translate(31.787109 0)"/>
     <use xlink:href="#DejaVuSans-46" transform="translate(63.574219 0)"/>
     <use xlink:href="#DejaVuSans-61" transform="translate(111.96875 0)"/>
     <use xlink:href="#DejaVuSans-6c" transform="translate(173.248047 0)"/>
     <use xlink:href="#DejaVuSans-73" transform="translate(201.03125 0)"/>
     <use xlink:href="#DejaVuSans-65" transform="translate(253.130859 0)"/>
    </g>
   </g>
   <g id="patch_22">
    <path d="M 268.625455 74.736 
Q 268.625455 74.736 268.625455 74.736 
" style="fill: none; stroke: #000000; stroke-linecap: round"/>
   </g>
   <g id="text_14">
    <g id="patch_23">
     <path d="M 244.28483 89.878734 
L 292.96608 89.878734 
Q 294.46608 89.878734 294.46608 88.378734 
L 294.46608 60.954203 
Q 294.46608 59.454203 292.96608 59.454203 
L 244.28483 59.454203 
Q 242.78483 59.454203 242.78483 60.954203 
L 242.78483 88.378734 
Q 242.78483 89.878734 244.28483 89.878734 
z
" style="fill: #ea9b62; stroke: #000000; stroke-linejoin: miter"/>
    </g>
    <!-- num__V258 &lt;= 0.5 -->
    <g transform="translate(244.28483 64.804203) scale(0.05 -0.05)">
     <defs>
      <path id="DejaVuSans-56" d="M 1831 0 
L 50 4666 
L 709 4666 
L 2188 738 
L 3669 4666 
L 4325 4666 
L 2547 0 
L 1831 0 
z
" transform="scale(0.015625)"/>
     </defs>
     <use xlink:href="#DejaVuSans-6e"/>
     <use xlink:href="#DejaVuSans-75" transform="translate(63.378906 0)"/>
     <use xlink:href="#DejaVuSans-6d" transform="translate(126.757812 0)"/>
     <use xlink:href="#DejaVuSans-5f" transform="translate(224.169922 0)"/>
     <use xlink:href="#DejaVuSans-5f" transform="translate(274.169922 0)"/>
     <use xlink:href="#DejaVuSans-56" transform="translate(324.169922 0)"/>
     <use xlink:href="#DejaVuSans-32" transform="translate(392.578125 0)"/>
     <use xlink:href="#DejaVuSans-35" transform="translate(456.201172 0)"/>
     <use xlink:href="#DejaVuSans-38" transform="translate(519.824219 0)"/>
     <use xlink:href="#DejaVuSans-20" transform="translate(583.447266 0)"/>
     <use xlink:href="#DejaVuSans-3c" transform="translate(615.234375 0)"/>
     <use xlink:href="#DejaVuSans-3d" transform="translate(699.023438 0)"/>
     <use xlink:href="#DejaVuSans-20" transform="translate(782.8125 0)"/>
     <use xlink:href="#DejaVuSans-30" transform="translate(814.599609 0)"/>
     <use xlink:href="#DejaVuSans-2e" transform="translate(878.222656 0)"/>
     <use xlink:href="#DejaVuSans-35" transform="translate(910.009766 0)"/>
    </g>
    <!-- gini = 0.282 -->
    <g transform="translate(253.223892 70.542172) scale(0.05 -0.05)">
     <use xlink:href="#DejaVuSans-67"/>
     <use xlink:href="#DejaVuSans-69" transform="translate(63.476562 0)"/>
     <use xlink:href="#DejaVuSans-6e" transform="translate(91.259766 0)"/>
     <use xlink:href="#DejaVuSans-69" transform="translate(154.638672 0)"/>
     <use xlink:href="#DejaVuSans-20" transform="translate(182.421875 0)"/>
     <use xlink:href="#DejaVuSans-3d" transform="translate(214.208984 0)"/>
     <use xlink:href="#DejaVuSans-20" transform="translate(297.998047 0)"/>
     <use xlink:href="#DejaVuSans-30" transform="translate(329.785156 0)"/>
     <use xlink:href="#DejaVuSans-2e" transform="translate(393.408203 0)"/>
     <use xlink:href="#DejaVuSans-32" transform="translate(425.195312 0)"/>
     <use xlink:href="#DejaVuSans-38" transform="translate(488.818359 0)"/>
     <use xlink:href="#DejaVuSans-32" transform="translate(552.441406 0)"/>
    </g>
    <!-- samples = 100 -->
    <g transform="translate(249.777798 76.141078) scale(0.05 -0.05)">
     <use xlink:href="#DejaVuSans-73"/>
     <use xlink:href="#DejaVuSans-61" transform="translate(52.099609 0)"/>
     <use xlink:href="#DejaVuSans-6d" transform="translate(113.378906 0)"/>
     <use xlink:href="#DejaVuSans-70" transform="translate(210.791016 0)"/>
     <use xlink:href="#DejaVuSans-6c" transform="translate(274.267578 0)"/>
     <use xlink:href="#DejaVuSans-65" transform="translate(302.050781 0)"/>
     <use xlink:href="#DejaVuSans-73" transform="translate(363.574219 0)"/>
     <use xlink:href="#DejaVuSans-20" transform="translate(415.673828 0)"/>
     <use xlink:href="#DejaVuSans-3d" transform="translate(447.460938 0)"/>
     <use xlink:href="#DejaVuSans-20" transform="translate(531.25 0)"/>
     <use xlink:href="#DejaVuSans-31" transform="translate(563.037109 0)"/>
     <use xlink:href="#DejaVuSans-30" transform="translate(626.660156 0)"/>
     <use xlink:href="#DejaVuSans-30" transform="translate(690.283203 0)"/>
    </g>
    <!-- value = [83, 17] -->
    <g transform="translate(248.21022 81.739984) scale(0.05 -0.05)">
     <use xlink:href="#DejaVuSans-76"/>
     <use xlink:href="#DejaVuSans-61" transform="translate(59.179688 0)"/>
     <use xlink:href="#DejaVuSans-6c" transform="translate(120.458984 0)"/>
     <use xlink:href="#DejaVuSans-75" transform="translate(148.242188 0)"/>
     <use xlink:href="#DejaVuSans-65" transform="translate(211.621094 0)"/>
     <use xlink:href="#DejaVuSans-20" transform="translate(273.144531 0)"/>
     <use xlink:href="#DejaVuSans-3d" transform="translate(304.931641 0)"/>
     <use xlink:href="#DejaVuSans-20" transform="translate(388.720703 0)"/>
     <use xlink:href="#DejaVuSans-5b" transform="translate(420.507812 0)"/>
     <use xlink:href="#DejaVuSans-38" transform="translate(459.521484 0)"/>
     <use xlink:href="#DejaVuSans-33" transform="translate(523.144531 0)"/>
     <use xlink:href="#DejaVuSans-2c" transform="translate(586.767578 0)"/>
     <use xlink:href="#DejaVuSans-20" transform="translate(618.554688 0)"/>
     <use xlink:href="#DejaVuSans-31" transform="translate(650.341797 0)"/>
     <use xlink:href="#DejaVuSans-37" transform="translate(713.964844 0)"/>
     <use xlink:href="#DejaVuSans-5d" transform="translate(777.587891 0)"/>
    </g>
    <!-- class = Legit -->
    <g transform="translate(252.586392 87.338891) scale(0.05 -0.05)">
     <use xlink:href="#DejaVuSans-63"/>
     <use xlink:href="#DejaVuSans-6c" transform="translate(54.980469 0)"/>
     <use xlink:href="#DejaVuSans-61" transform="translate(82.763672 0)"/>
     <use xlink:href="#DejaVuSans-73" transform="translate(144.042969 0)"/>
     <use xlink:href="#DejaVuSans-73" transform="translate(196.142578 0)"/>
     <use xlink:href="#DejaVuSans-20" transform="translate(248.242188 0)"/>
     <use xlink:href="#DejaVuSans-3d" transform="translate(280.029297 0)"/>
     <use xlink:href="#DejaVuSans-20" transform="translate(363.818359 0)"/>
     <use xlink:href="#DejaVuSans-4c" transform="translate(395.605469 0)"/>
     <use xlink:href="#DejaVuSans-65" transform="translate(449.568359 0)"/>
     <use xlink:href="#DejaVuSans-67" transform="translate(511.091797 0)"/>
     <use xlink:href="#DejaVuSans-69" transform="translate(574.568359 0)"/>
     <use xlink:href="#DejaVuSans-74" transform="translate(602.351562 0)"/>
    </g>
   </g>
  </g>
 </g>
</svg>
