<?xml version="1.0" encoding="utf-8" standalone="no"?>
<!DOCTYPE svg PUBLIC "-//W3C//DTD SVG 1.1//EN"
  "http://www.w3.org/Graphics/SVG/1.1/DTD/svg11.dtd">
<svg xmlns:xlink="http://www.w3.org/1999/xlink" width="720pt" height="432pt" viewBox="0 0 720 432" xmlns="http://www.w3.org/2000/svg" version="1.1">
 <metadata>
  <rdf:RDF xmlns:dc="http://purl.org/dc/elements/1.1/" xmlns:cc="http://creativecommons.org/ns#" xmlns:rdf="http://www.w3.org/1999/02/22-rdf-syntax-ns#">
   <cc:Work>
    <dc:type rdf:resource="http://purl.org/dc/dcmitype/StillImage"/>
    <dc:date>2025-09-29T13:02:20.787192</dc:date>
    <dc:format>image/svg+xml</dc:format>
    <dc:creator>
     <cc:Agent>
      <dc:title>Matplotlib v3.10.6, https://matplotlib.org/</dc:title>
     </cc:Agent>
    </dc:creator>
   </cc:Work>
  </rdf:RDF>
 </metadata>
 <defs>
  <style type="text/css">*{stroke-linejoin: round; stroke-linecap: butt}</style>
 </defs>
 <g id="figure_1">
  <g id="patch_1">
   <path d="M 0 432 
L 720 432 
L 720 0 
L 0 0 
z
" style="fill: #ffffff"/>
  </g>
  <g id="axes_1">
   <g id="patch_2">
    <path d="M 90 384.48 
L 648 384.48 
L 648 51.84 
L 90 51.84 
z
" style="fill: #ffffff"/>
   </g>
   <g id="matplotlib.axis_1">
    <g id="xtick_1">
     <g id="line2d_1">
      <defs>
       <path id="m3005ad1456" d="M 0 0 
L 0 3.5 
" style="stroke: #000000; stroke-width: 0.8"/>
      </defs>
      <g>
       <use xlink:href="#m3005ad1456" x="115.363636" y="384.48" style="stroke: #000000; stroke-width: 0.8"/>
      </g>
     </g>
     <g id="text_1">
      <!-- 0.0 -->
      <g transform="translate(107.412074 399.078438) scale(0.1 -0.1)">
       <defs>
        <path id="DejaVuSans-30" d="M 2034 4250 
Q 1547 4250 1301 3770 
Q 1056 3291 1056 2328 
Q 1056 1369 1301 889 
Q 1547 409 2034 409 
Q 2525 409 2770 889 
Q 3016 1369 3016 2328 
Q 3016 3291 2770 3770 
Q 2525 4250 2034 4250 
z
M 2034 4750 
Q 2819 4750 3233 4129 
Q 3647 3509 3647 2328 
Q 3647 1150 3233 529 
Q 2819 -91 2034 -91 
Q 1250 -91 836 529 
Q 422 1150 422 2328 
Q 422 3509 836 4129 
Q 1250 4750 2034 4750 
z
" transform="scale(0.015625)"/>
        <path id="DejaVuSans-2e" d="M 684 794 
L 1344 794 
L 1344 0 
L 684 0 
L 684 794 
z
" transform="scale(0.015625)"/>
       </defs>
       <use xlink:href="#DejaVuSans-30"/>
       <use xlink:href="#DejaVuSans-2e" transform="translate(63.623047 0)"/>
       <use xlink:href="#DejaVuSans-30" transform="translate(95.410156 0)"/>
      </g>
     </g>
    </g>
    <g id="xtick_2">
     <g id="line2d_2">
      <g>
       <use xlink:href="#m3005ad1456" x="216.818182" y="384.48" style="stroke: #000000; stroke-width: 0.8"/>
      </g>
     </g>
     <g id="text_2">
      <!-- 0.2 -->
      <g transform="translate(208.866619 399.078438) scale(0.1 -0.1)">
       <defs>
        <path id="DejaVuSans-32" d="M 1228 531 
L 3431 531 
L 3431 0 
L 469 0 
L 469 531 
Q 828 903 1448 1529 
Q 2069 2156 2228 2338 
Q 2531 2678 2651 2914 
Q 2772 3150 2772 3378 
Q 2772 3750 2511 3984 
Q 2250 4219 1831 4219 
Q 1534 4219 1204 4116 
Q 875 4013 500 3803 
L 500 4441 
Q 881 4594 1212 4672 
Q 1544 4750 1819 4750 
Q 2544 4750 2975 4387 
Q 3406 4025 3406 3419 
Q 3406 3131 3298 2873 
Q 3191 2616 2906 2266 
Q 2828 2175 2409 1742 
Q 1991 1309 1228 531 
z
" transform="scale(0.015625)"/>
       </defs>
       <use xlink:href="#DejaVuSans-30"/>
       <use xlink:href="#DejaVuSans-2e" transform="translate(63.623047 0)"/>
       <use xlink:href="#DejaVuSans-32" transform="translate(95.410156 0)"/>
      </g>
     </g>
    </g>
    <g id="xtick_3">
     <g id="line2d_3">
      <g>
       <use xlink:href="#m3005ad1456" x="318.272727" y="384.48" style="stroke: #000000; stroke-width: 0.8"/>
      </g>
     </g>
     <g id="text_3">
      <!-- 0.4 -->
      <g transform="translate(310.321165 399.078438) scale(0.1 -0.1)">
       <defs>
        <path id="DejaVuSans-34" d="M 2419 4116 
L 825 1625 
L 2419 1625 
L 2419 4116 
z
M 2253 4666 
L 3047 4666 
L 3047 1625 
L 3713 1625 
L 3713 1100 
L 3047 1100 
L 3047 0 
L 2419 0 
L 2419 1100 
L 313 1100 
L 313 1709 
L 2253 4666 
z
" transform="scale(0.015625)"/>
       </defs>
       <use xlink:href="#DejaVuSans-30"/>
       <use xlink:href="#DejaVuSans-2e" transform="translate(63.623047 0)"/>
       <use xlink:href="#DejaVuSans-34" transform="translate(95.410156 0)"/>
      </g>
     </g>
    </g>
    <g id="xtick_4">
     <g id="line2d_4">
      <g>
       <use xlink:href="#m3005ad1456" x="419.727273" y="384.48" style="stroke: #000000; stroke-width: 0.8"/>
      </g>
     </g>
     <g id="text_4">
      <!-- 0.6 -->
      <g transform="translate(411.77571 399.078438) scale(0.1 -0.1)">
       <defs>
        <path id="DejaVuSans-36" d="M 2113 2584 
Q 1688 2584 1439 2293 
Q 1191 2003 1191 1497 
Q 1191 994 1439 701 
Q 1688 409 2113 409 
Q 2538 409 2786 701 
Q 3034 994 3034 1497 
Q 3034 2003 2786 2293 
Q 2538 2584 2113 2584 
z
M 3366 4563 
L 3366 3988 
Q 3128 4100 2886 4159 
Q 2644 4219 2406 4219 
Q 1781 4219 1451 3797 
Q 1122 3375 1075 2522 
Q 1259 2794 1537 2939 
Q 1816 3084 2150 3084 
Q 2853 3084 3261 2657 
Q 3669 2231 3669 1497 
Q 3669 778 3244 343 
Q 2819 -91 2113 -91 
Q 1303 -91 875 529 
Q 447 1150 447 2328 
Q 447 3434 972 4092 
Q 1497 4750 2381 4750 
Q 2619 4750 2861 4703 
Q 3103 4656 3366 4563 
z
" transform="scale(0.015625)"/>
       </defs>
       <use xlink:href="#DejaVuSans-30"/>
       <use xlink:href="#DejaVuSans-2e" transform="translate(63.623047 0)"/>
       <use xlink:href="#DejaVuSans-36" transform="translate(95.410156 0)"/>
      </g>
     </g>
    </g>
    <g id="xtick_5">
     <g id="line2d_5">
      <g>
       <use xlink:href="#m3005ad1456" x="521.181818" y="384.48" style="stroke: #000000; stroke-width: 0.8"/>
      </g>
     </g>
     <g id="text_5">
      <!-- 0.8 -->
      <g transform="translate(513.230256 399.078438) scale(0.1 -0.1)">
       <defs>
        <path id="DejaVuSans-38" d="M 2034 2216 
Q 1584 2216 1326 1975 
Q 1069 1734 1069 1313 
Q 1069 891 1326 650 
Q 1584 409 2034 409 
Q 2484 409 2743 651 
Q 3003 894 3003 1313 
Q 3003 1734 2745 1975 
Q 2488 2216 2034 2216 
z
M 1403 2484 
Q 997 2584 770 2862 
Q 544 3141 544 3541 
Q 544 4100 942 4425 
Q 1341 4750 2034 4750 
Q 2731 4750 3128 4425 
Q 3525 4100 3525 3541 
Q 3525 3141 3298 2862 
Q 3072 2584 2669 2484 
Q 3125 2378 3379 2068 
Q 3634 1759 3634 1313 
Q 3634 634 3220 271 
Q 2806 -91 2034 -91 
Q 1263 -91 848 271 
Q 434 634 434 1313 
Q 434 1759 690 2068 
Q 947 2378 1403 2484 
z
M 1172 3481 
Q 1172 3119 1398 2916 
Q 1625 2713 2034 2713 
Q 2441 2713 2670 2916 
Q 2900 3119 2900 3481 
Q 2900 3844 2670 4047 
Q 2441 4250 2034 4250 
Q 1625 4250 1398 4047 
Q 1172 3844 1172 3481 
z
" transform="scale(0.015625)"/>
       </defs>
       <use xlink:href="#DejaVuSans-30"/>
       <use xlink:href="#DejaVuSans-2e" transform="translate(63.623047 0)"/>
       <use xlink:href="#DejaVuSans-38" transform="translate(95.410156 0)"/>
      </g>
     </g>
    </g>
    <g id="xtick_6">
     <g id="line2d_6">
      <g>
       <use xlink:href="#m3005ad1456" x="622.636364" y="384.48" style="stroke: #000000; stroke-width: 0.8"/>
      </g>
     </g>
     <g id="text_6">
      <!-- 1.0 -->
      <g transform="translate(614.684801 399.078438) scale(0.1 -0.1)">
       <defs>
        <path id="DejaVuSans-31" d="M 794 531 
L 1825 531 
L 1825 4091 
L 703 3866 
L 703 4441 
L 1819 4666 
L 2450 4666 
L 2450 531 
L 3481 531 
L 3481 0 
L 794 0 
L 794 531 
z
" transform="scale(0.015625)"/>
       </defs>
       <use xlink:href="#DejaVuSans-31"/>
       <use xlink:href="#DejaVuSans-2e" transform="translate(63.623047 0)"/>
       <use xlink:href="#DejaVuSans-30" transform="translate(95.410156 0)"/>
      </g>
     </g>
    </g>
    <g id="text_7">
     <!-- Thresholds -->
     <g transform="translate(341.757031 428.756563) scale(0.1 -0.1)">
      <defs>
       <path id="DejaVuSans-54" d="M -19 4666 
L 3928 4666 
L 3928 4134 
L 2272 4134 
L 2272 0 
L 1638 0 
L 1638 4134 
L -19 4134 
L -19 4666 
z
" transform="scale(0.015625)"/>
       <path id="DejaVuSans-68" d="M 3513 2113 
L 3513 0 
L 2938 0 
L 2938 2094 
Q 2938 2591 2744 2837 
Q 2550 3084 2163 3084 
Q 1697 3084 1428 2787 
Q 1159 2491 1159 1978 
L 1159 0 
L 581 0 
L 581 4863 
L 1159 4863 
L 1159 2956 
Q 1366 3272 1645 3428 
Q 1925 3584 2291 3584 
Q 2894 3584 3203 3211 
Q 3513 2838 3513 2113 
z
" transform="scale(0.015625)"/>
       <path id="DejaVuSans-72" d="M 2631 2963 
Q 2534 3019 2420 3045 
Q 2306 3072 2169 3072 
Q 1681 3072 1420 2755 
Q 1159 2438 1159 1844 
L 1159 0 
L 581 0 
L 581 3500 
L 1159 3500 
L 1159 2956 
Q 1341 3275 1631 3429 
Q 1922 3584 2338 3584 
Q 2397 3584 2469 3576 
Q 2541 3569 2628 3553 
L 2631 2963 
z
" transform="scale(0.015625)"/>
       <path id="DejaVuSans-65" d="M 3597 1894 
L 3597 1613 
L 953 1613 
Q 991 1019 1311 708 
Q 1631 397 2203 397 
Q 2534 397 2845 478 
Q 3156 559 3463 722 
L 3463 178 
Q 3153 47 2828 -22 
Q 2503 -91 2169 -91 
Q 1331 -91 842 396 
Q 353 884 353 1716 
Q 353 2575 817 3079 
Q 1281 3584 2069 3584 
Q 2775 3584 3186 3129 
Q 3597 2675 3597 1894 
z
M 3022 2063 
Q 3016 2534 2758 2815 
Q 2500 3097 2075 3097 
Q 1594 3097 1305 2825 
Q 1016 2553 972 2059 
L 3022 2063 
z
" transform="scale(0.015625)"/>
       <path id="DejaVuSans-73" d="M 2834 3397 
L 2834 2853 
Q 2591 2978 2328 3040 
Q 2066 3103 1784 3103 
Q 1356 3103 1142 2972 
Q 928 2841 928 2578 
Q 928 2378 1081 2264 
Q 1234 2150 1697 2047 
L 1894 2003 
Q 2506 1872 2764 1633 
Q 3022 1394 3022 966 
Q 3022 478 2636 193 
Q 2250 -91 1575 -91 
Q 1294 -91 989 -36 
Q 684 19 347 128 
L 347 722 
Q 666 556 975 473 
Q 1284 391 1588 391 
Q 1994 391 2212 530 
Q 2431 669 2431 922 
Q 2431 1156 2273 1281 
Q 2116 1406 1581 1522 
L 1381 1569 
Q 847 1681 609 1914 
Q 372 2147 372 2553 
Q 372 3047 722 3315 
Q 1072 3584 1716 3584 
Q 2034 3584 2315 3537 
Q 2597 3491 2834 3397 
z
" transform="scale(0.015625)"/>
       <path id="DejaVuSans-6f" d="M 1959 3097 
Q 1497 3097 1228 2736 
Q 959 2375 959 1747 
Q 959 1119 1226 758 
Q 1494 397 1959 397 
Q 2419 397 2687 759 
Q 2956 1122 2956 1747 
Q 2956 2369 2687 2733 
Q 2419 3097 1959 3097 
z
M 1959 3584 
Q 2709 3584 3137 3096 
Q 3566 2609 3566 1747 
Q 3566 888 3137 398 
Q 2709 -91 1959 -91 
Q 1206 -91 779 398 
Q 353 888 353 1747 
Q 353 2609 779 3096 
Q 1206 3584 1959 3584 
z
" transform="scale(0.015625)"/>
       <path id="DejaVuSans-6c" d="M 603 4863 
L 1178 4863 
L 1178 0 
L 603 0 
L 603 4863 
z
" transform="scale(0.015625)"/>
       <path id="DejaVuSans-64" d="M 2906 2969 
L 2906 4863 
L 3481 4863 
L 3481 0 
L 2906 0 
L 2906 525 
Q 2725 213 2448 61 
Q 2172 -91 1784 -91 
Q 1150 -91 751 415 
Q 353 922 353 1747 
Q 353 2572 751 3078 
Q 1150 3584 1784 3584 
Q 2172 3584 2448 3432 
Q 2725 3281 2906 2969 
z
M 947 1747 
Q 947 1113 1208 752 
Q 1469 391 1925 391 
Q 2381 391 2643 752 
Q 2906 1113 2906 1747 
Q 2906 2381 2643 2742 
Q 2381 3103 1925 3103 
Q 1469 3103 1208 2742 
Q 947 2381 947 1747 
z
" transform="scale(0.015625)"/>
      </defs>
      <use xlink:href="#DejaVuSans-54"/>
      <use xlink:href="#DejaVuSans-68" transform="translate(61.083984 0)"/>
      <use xlink:href="#DejaVuSans-72" transform="translate(124.462891 0)"/>
      <use xlink:href="#DejaVuSans-65" transform="translate(163.326172 0)"/>
      <use xlink:href="#DejaVuSans-73" transform="translate(224.849609 0)"/>
      <use xlink:href="#DejaVuSans-68" transform="translate(276.949219 0)"/>
      <use xlink:href="#DejaVuSans-6f" transform="translate(340.328125 0)"/>
      <use xlink:href="#DejaVuSans-6c" transform="translate(401.509766 0)"/>
      <use xlink:href="#DejaVuSans-64" transform="translate(429.292969 0)"/>
      <use xlink:href="#DejaVuSans-73" transform="translate(492.769531 0)"/>
     </g>
    </g>
   </g>
   <g id="matplotlib.axis_2">
    <g id="ytick_1">
     <g id="line2d_7">
      <defs>
       <path id="m15ebcacaa9" d="M 0 0 
L -3.5 0 
" style="stroke: #000000; stroke-width: 0.8"/>
      </defs>
      <g>
       <use xlink:href="#m15ebcacaa9" x="90" y="369.36" style="stroke: #000000; stroke-width: 0.8"/>
      </g>
     </g>
     <g id="text_8">
      <!-- 0.0 -->
      <g transform="translate(67.096875 373.159219) scale(0.1 -0.1)">
       <use xlink:href="#DejaVuSans-30"/>
       <use xlink:href="#DejaVuSans-2e" transform="translate(63.623047 0)"/>
       <use xlink:href="#DejaVuSans-30" transform="translate(95.410156 0)"/>
      </g>
     </g>
    </g>
    <g id="ytick_2">
     <g id="line2d_8">
      <g>
       <use xlink:href="#m15ebcacaa9" x="90" y="308.88" style="stroke: #000000; stroke-width: 0.8"/>
      </g>
     </g>
     <g id="text_9">
      <!-- 0.2 -->
      <g transform="translate(67.096875 312.679219) scale(0.1 -0.1)">
       <use xlink:href="#DejaVuSans-30"/>
       <use xlink:href="#DejaVuSans-2e" transform="translate(63.623047 0)"/>
       <use xlink:href="#DejaVuSans-32" transform="translate(95.410156 0)"/>
      </g>
     </g>
    </g>
    <g id="ytick_3">
     <g id="line2d_9">
      <g>
       <use xlink:href="#m15ebcacaa9" x="90" y="248.4" style="stroke: #000000; stroke-width: 0.8"/>
      </g>
     </g>
     <g id="text_10">
      <!-- 0.4 -->
      <g transform="translate(67.096875 252.199219) scale(0.1 -0.1)">
       <use xlink:href="#DejaVuSans-30"/>
       <use xlink:href="#DejaVuSans-2e" transform="translate(63.623047 0)"/>
       <use xlink:href="#DejaVuSans-34" transform="translate(95.410156 0)"/>
      </g>
     </g>
    </g>
    <g id="ytick_4">
     <g id="line2d_10">
      <g>
       <use xlink:href="#m15ebcacaa9" x="90" y="187.92" style="stroke: #000000; stroke-width: 0.8"/>
      </g>
     </g>
     <g id="text_11">
      <!-- 0.6 -->
      <g transform="translate(67.096875 191.719219) scale(0.1 -0.1)">
       <use xlink:href="#DejaVuSans-30"/>
       <use xlink:href="#DejaVuSans-2e" transform="translate(63.623047 0)"/>
       <use xlink:href="#DejaVuSans-36" transform="translate(95.410156 0)"/>
      </g>
     </g>
    </g>
    <g id="ytick_5">
     <g id="line2d_11">
      <g>
       <use xlink:href="#m15ebcacaa9" x="90" y="127.44" style="stroke: #000000; stroke-width: 0.8"/>
      </g>
     </g>
     <g id="text_12">
      <!-- 0.8 -->
      <g transform="translate(67.096875 131.239219) scale(0.1 -0.1)">
       <use xlink:href="#DejaVuSans-30"/>
       <use xlink:href="#DejaVuSans-2e" transform="translate(63.623047 0)"/>
       <use xlink:href="#DejaVuSans-38" transform="translate(95.410156 0)"/>
      </g>
     </g>
    </g>
    <g id="ytick_6">
     <g id="line2d_12">
      <g>
       <use xlink:href="#m15ebcacaa9" x="90" y="66.96" style="stroke: #000000; stroke-width: 0.8"/>
      </g>
     </g>
     <g id="text_13">
      <!-- 1.0 -->
      <g transform="translate(67.096875 70.759219) scale(0.1 -0.1)">
       <use xlink:href="#DejaVuSans-31"/>
       <use xlink:href="#DejaVuSans-2e" transform="translate(63.623047 0)"/>
       <use xlink:href="#DejaVuSans-30" transform="translate(95.410156 0)"/>
      </g>
     </g>
    </g>
    <g id="text_14">
     <!-- FPR -->
     <g transform="translate(50.017187 227.524844) rotate(-90) scale(0.1 -0.1)">
      <defs>
       <path id="DejaVuSans-46" d="M 628 4666 
L 3309 4666 
L 3309 4134 
L 1259 4134 
L 1259 2759 
L 3109 2759 
L 3109 2228 
L 1259 2228 
L 1259 0 
L 628 0 
L 628 4666 
z
" transform="scale(0.015625)"/>
       <path id="DejaVuSans-50" d="M 1259 4147 
L 1259 2394 
L 2053 2394 
Q 2494 2394 2734 2622 
Q 2975 2850 2975 3272 
Q 2975 3691 2734 3919 
Q 2494 4147 2053 4147 
L 1259 4147 
z
M 628 4666 
L 2053 4666 
Q 2838 4666 3239 4311 
Q 3641 3956 3641 3272 
Q 3641 2581 3239 2228 
Q 2838 1875 2053 1875 
L 1259 1875 
L 1259 0 
L 628 0 
L 628 4666 
z
" transform="scale(0.015625)"/>
       <path id="DejaVuSans-52" d="M 2841 2188 
Q 3044 2119 3236 1894 
Q 3428 1669 3622 1275 
L 4263 0 
L 3584 0 
L 2988 1197 
Q 2756 1666 2539 1819 
Q 2322 1972 1947 1972 
L 1259 1972 
L 1259 0 
L 628 0 
L 628 4666 
L 2053 4666 
Q 2853 4666 3247 4331 
Q 3641 3997 3641 3322 
Q 3641 2881 3436 2590 
Q 3231 2300 2841 2188 
z
M 1259 4147 
L 1259 2491 
L 2053 2491 
Q 2509 2491 2742 2702 
Q 2975 2913 2975 3322 
Q 2975 3731 2742 3939 
Q 2509 4147 2053 4147 
L 1259 4147 
z
" transform="scale(0.015625)"/>
      </defs>
      <use xlink:href="#DejaVuSans-46"/>
      <use xlink:href="#DejaVuSans-50" transform="translate(57.519531 0)"/>
      <use xlink:href="#DejaVuSans-52" transform="translate(117.822266 0)"/>
     </g>
    </g>
   </g>
   <g id="line2d_13">
    <path d="M 622.636364 367.065505 
L 622.636364 367.006073 
L 622.636364 367.006073 
L 531.037796 366.793816 
L 480.672534 366.399019 
L 474.796127 366.333219 
L 469.255151 366.224969 
L 452.743028 365.484193 
L 451.959085 365.420516 
L 450.236034 365.312265 
L 441.113622 364.894119 
L 438.600583 364.811339 
L 430.624636 364.573611 
L 405.101705 364.028112 
L 392.893298 363.900758 
L 369 363.652417 
L 369 363.393464 
L 367.738128 363.367993 
L 350.952008 363.215168 
L 323.855944 362.992299 
L 312.276628 362.886171 
L 307.742885 362.818248 
L 295.054676 362.595379 
L 289.092961 362.404348 
L 284.454545 362.092331 
L 284.41519 360.969493 
L 276.926743 360.368806 
L 276.059245 360.294516 
L 265.216658 359.46247 
L 260.298701 359.127104 
L 260.298701 359.122859 
L 228.320386 357.745313 
L 224.444515 357.639185 
L 186.399689 356.877183 
L 115.363636 356.023911 
L 115.363636 66.96 
L 115.363636 66.96 
" clip-path="url(#p96f20560b6)" style="fill: none; stroke: #1f77b4; stroke-width: 1.5; stroke-linecap: square"/>
   </g>
   <g id="line2d_14">
    <path d="M 115.363636 355.822268 
" clip-path="url(#p96f20560b6)" style="fill: none; stroke: #1f77b4; stroke-width: 1.5; stroke-linecap: square"/>
    <defs>
     <path id="me8de3e14d9" d="M 0 4 
C 1.060812 4 2.078319 3.578535 2.828427 2.828427 
C 3.578535 2.078319 4 1.060812 4 0 
C 4 -1.060812 3.578535 -2.078319 2.828427 -2.828427 
C 2.078319 -3.578535 1.060812 -4 0 -4 
C -1.060812 -4 -2.078319 -3.578535 -2.828427 -2.828427 
C -3.578535 -2.078319 -4 -1.060812 -4 0 
C -4 1.060812 -3.578535 2.078319 -2.828427 2.828427 
C -2.078319 3.578535 -1.060812 4 0 4 
z
" style="stroke: #1f77b4"/>
    </defs>
    <g clip-path="url(#p96f20560b6)">
     <use xlink:href="#me8de3e14d9" x="115.363636" y="355.822268" style="fill: #1f77b4; stroke: #1f77b4"/>
    </g>
   </g>
   <g id="line2d_15">
    <path d="M 90 355.822268 
L 112.32 355.822268 
" clip-path="url(#p96f20560b6)" style="fill: none; stroke-dasharray: 5.55,2.4; stroke-dashoffset: 0; stroke: #1f77b4; stroke-opacity: 0.6; stroke-width: 1.5"/>
   </g>
   <g id="line2d_16">
    <path d="M 115.363636 384.48 
L 115.363636 361.272494 
" clip-path="url(#p96f20560b6)" style="fill: none; stroke-dasharray: 5.55,2.4; stroke-dashoffset: 0; stroke: #1f77b4; stroke-opacity: 0.6; stroke-width: 1.5"/>
   </g>
   <g id="line2d_17">
    <path d="M 622.636364 368.054621 
L 622.525586 352.88888 
L 622.525586 352.88888 
L 622.339379 349.420605 
L 622.041441 347.130356 
L 621.589305 345.181839 
L 620.448705 342.014969 
L 619.956175 341.019485 
L 619.750708 340.569501 
L 618.498064 338.047891 
L 618.399475 337.83988 
L 617.599778 336.799822 
L 615.64267 335.284309 
L 615.442209 335.182426 
L 613.416629 334.017137 
L 612.669757 333.626584 
L 608.95715 331.915795 
L 608.363158 331.669578 
L 608.126748 331.52312 
L 606.63443 330.896963 
L 605.836305 330.417263 
L 605.110503 330.168923 
L 601.645589 328.825338 
L 601.420999 328.721332 
L 600.054802 328.315922 
L 599.852859 328.226774 
L 597.771624 327.706745 
L 596.417369 327.445669 
L 594.672985 327.080588 
L 594.63726 327.050872 
L 592.265604 326.624236 
L 590.797762 326.307973 
L 574.294416 324.251206 
L 571.219202 323.945556 
L 554.444178 322.23689 
L 528.408871 320.479404 
L 510.401594 319.607029 
L 510.391774 319.543352 
L 509.933795 319.407508 
L 509.907563 319.386282 
L 504.19319 319.046671 
L 501.975228 318.944788 
L 486.923354 318.274057 
L 478.788364 317.930201 
L 468.119704 317.562997 
L 461.737131 317.365598 
L 443.735629 316.618455 
L 440.722298 316.459262 
L 424.361992 315.786409 
L 412.85681 315.330057 
L 410.479881 315.243031 
L 361.805889 313.311495 
L 360.199147 313.21598 
L 348.433013 312.751138 
L 341.837897 312.498552 
L 305.966987 311.379959 
L 238.067416 308.573926 
L 191.748153 305.239373 
L 186.925188 304.82335 
L 171.642345 303.658061 
L 167.050964 303.369392 
L 149.881055 301.915433 
L 148.084264 301.807182 
L 146.861259 301.690441 
L 143.017326 301.280786 
L 143.015155 301.27654 
L 140.7834 300.671609 
L 139.930925 300.387185 
L 138.023287 300.017858 
L 135.32933 299.650654 
L 135.242951 299.61457 
L 134.442758 299.404436 
L 128.922207 298.26674 
L 126.890814 297.948355 
L 126.588468 297.891046 
L 124.307391 297.528087 
L 122.358317 297.143902 
L 118.546515 296.02531 
L 117.531231 295.286656 
L 117.195493 294.83455 
L 116.967319 294.467345 
L 116.612141 293.866659 
L 116.196616 292.259876 
L 115.932984 290.476919 
L 115.763723 287.433158 
L 115.514756 274.714737 
L 115.406753 248.965876 
L 115.363636 71.693324 
L 115.363636 66.96 
L 115.363636 66.96 
" clip-path="url(#p96f20560b6)" style="fill: none; stroke: #ff7f0e; stroke-width: 1.5; stroke-linecap: square"/>
   </g>
   <g id="line2d_18">
    <path d="M 115.390428 233.331048 
" clip-path="url(#p96f20560b6)" style="fill: none; stroke: #ff7f0e; stroke-width: 1.5; stroke-linecap: square"/>
    <defs>
     <path id="m312430ca9c" d="M 0 4 
C 1.060812 4 2.078319 3.578535 2.828427 2.828427 
C 3.578535 2.078319 4 1.060812 4 0 
C 4 -1.060812 3.578535 -2.078319 2.828427 -2.828427 
C 2.078319 -3.578535 1.060812 -4 0 -4 
C -1.060812 -4 -2.078319 -3.578535 -2.828427 -2.828427 
C -3.578535 -2.078319 -4 -1.060812 -4 0 
C -4 1.060812 -3.578535 2.078319 -2.828427 2.828427 
C -2.078319 3.578535 -1.060812 4 0 4 
z
" style="stroke: #ff7f0e"/>
    </defs>
    <g clip-path="url(#p96f20560b6)">
     <use xlink:href="#m312430ca9c" x="115.390428" y="233.331048" style="fill: #ff7f0e; stroke: #ff7f0e"/>
    </g>
   </g>
   <g id="line2d_19">
    <path d="M 90 233.331048 
L 112.349471 233.331048 
" clip-path="url(#p96f20560b6)" style="fill: none; stroke-dasharray: 5.55,2.4; stroke-dashoffset: 0; stroke: #ff7f0e; stroke-opacity: 0.6; stroke-width: 1.5"/>
   </g>
   <g id="line2d_20">
    <path d="M 115.390428 384.48 
L 115.390428 226.532153 
" clip-path="url(#p96f20560b6)" style="fill: none; stroke-dasharray: 5.55,2.4; stroke-dashoffset: 0; stroke: #ff7f0e; stroke-opacity: 0.6; stroke-width: 1.5"/>
   </g>
   <g id="line2d_21">
    <path d="M 622.636364 362.580521 
L 606.272727 362.580521 
L 595.937799 362.572031 
L 588.818182 362.572031 
L 583.615385 362.569908 
L 550.168831 362.569908 
L 538.090909 362.561418 
L 521.181818 362.548682 
L 495.818182 362.533824 
L 484.289256 362.529579 
L 477.701299 362.525334 
L 453.545455 362.506231 
L 438.173554 362.499863 
L 432.409091 362.497741 
L 419.727273 362.48076 
L 405.233766 362.47227 
L 397.181818 362.468025 
L 383.919786 362.457412 
L 369 361.767578 
L 355.650718 361.759088 
L 352.090909 361.74423 
L 345.942149 361.737862 
L 340.818182 361.725126 
L 320.688312 361.718759 
L 318.272727 361.706023 
L 296.532468 361.697533 
L 284.454545 361.3558 
L 267.545455 361.345187 
L 264.561497 361.336697 
L 260.298701 361.330329 
L 256.272727 361.321839 
L 250.636364 361.309103 
L 242.181818 360.986473 
L 228.090909 360.980105 
L 225.640316 360.969493 
L 216.818182 360.80181 
L 211.987013 360.782707 
L 205.948052 360.765726 
L 204.882353 360.752991 
L 199.909091 360.593798 
L 187.831169 360.385787 
L 185.332288 360.373051 
L 178.772727 360.245697 
L 171.727273 360.131079 
L 169.32882 360.09075 
L 166.090909 359.94217 
L 161.479339 359.802081 
L 160.122995 359.778732 
L 157.636364 359.678972 
L 154.384615 359.606805 
L 151.597403 359.555863 
L 150.754757 359.524024 
L 149.181818 359.479451 
L 147.068182 359.420019 
L 145.203209 359.386058 
L 144.350649 359.343606 
L 143.545455 359.318135 
L 142.062201 359.284174 
L 140.727273 359.209885 
L 139.519481 359.141962 
L 138.421488 359.101634 
L 137.418972 359.046447 
L 136.5 359.016731 
L 135.654545 358.993383 
L 134.874126 358.942441 
L 134.151515 358.902112 
L 133.480519 358.83419 
L 131.727273 358.815087 
L 131.215909 358.779003 
L 130.283422 358.728062 
L 129.857143 358.681365 
L 129.07371 358.670753 
L 128.712919 358.66014 
L 128.370629 358.645282 
L 128.045455 358.590095 
L 127.160677 358.579482 
L 126.636364 358.549766 
L 124.757576 358.498825 
L 123.961479 358.443638 
L 123.545455 358.399064 
L 115.363636 66.96 
" clip-path="url(#p96f20560b6)" style="fill: none; stroke: #2ca02c; stroke-width: 1.5; stroke-linecap: square"/>
   </g>
   <g id="line2d_22">
    <path d="M 123.545455 358.399064 
" clip-path="url(#p96f20560b6)" style="fill: none; stroke: #2ca02c; stroke-width: 1.5; stroke-linecap: square"/>
    <defs>
     <path id="maead68176e" d="M 0 4 
C 1.060812 4 2.078319 3.578535 2.828427 2.828427 
C 3.578535 2.078319 4 1.060812 4 0 
C 4 -1.060812 3.578535 -2.078319 2.828427 -2.828427 
C 2.078319 -3.578535 1.060812 -4 0 -4 
C -1.060812 -4 -2.078319 -3.578535 -2.828427 -2.828427 
C -3.578535 -2.078319 -4 -1.060812 -4 0 
C -4 1.060812 -3.578535 2.078319 -2.828427 2.828427 
C -2.078319 3.578535 -1.060812 4 0 4 
z
" style="stroke: #2ca02c"/>
    </defs>
    <g clip-path="url(#p96f20560b6)">
     <use xlink:href="#maead68176e" x="123.545455" y="358.399064" style="fill: #2ca02c; stroke: #2ca02c"/>
    </g>
   </g>
   <g id="line2d_23">
    <path d="M 90 358.399064 
L 121.32 358.399064 
" clip-path="url(#p96f20560b6)" style="fill: none; stroke-dasharray: 5.55,2.4; stroke-dashoffset: 0; stroke: #2ca02c; stroke-opacity: 0.6; stroke-width: 1.5"/>
   </g>
   <g id="line2d_24">
    <path d="M 123.545455 384.48 
L 123.545455 364.10697 
" clip-path="url(#p96f20560b6)" style="fill: none; stroke-dasharray: 5.55,2.4; stroke-dashoffset: 0; stroke: #2ca02c; stroke-opacity: 0.6; stroke-width: 1.5"/>
   </g>
   <g id="line2d_25">
    <path d="M 622.636364 369.336652 
L 588.775909 369.226278 
L 579.898636 369.181704 
L 557.620909 369.071331 
L 555.338182 369.062841 
L 533.821364 368.952467 
L 533.821364 368.950345 
L 509.852727 368.842094 
L 447.965455 368.387864 
L 445.598182 368.368761 
L 433.381364 368.258388 
L 428.063455 368.188343 
L 418.459091 368.07797 
L 415.669091 368.041886 
L 405.100909 367.933635 
L 399.098182 367.86359 
L 391.193182 367.755339 
L 330.996818 366.636747 
L 316.666364 366.246194 
L 312.946364 366.123085 
L 308.761364 366.012712 
L 308.761364 366.010589 
L 304.026818 365.904461 
L 294.811364 365.590321 
L 292.993636 365.518154 
L 287.878636 365.363206 
L 285.3 365.254955 
L 281.115 365.044821 
L 278.620909 364.93657 
L 273.379091 364.694598 
L 267.925909 364.44838 
L 260.298701 364.05146 
L 259.344545 363.996273 
L 242.224091 363.02626 
L 242.181818 362.792778 
L 236.728636 362.410716 
L 236.669455 362.400103 
L 234.276818 362.243033 
L 234.276818 362.24091 
L 221.510455 361.285755 
L 221.468182 361.264529 
L 216.818182 360.827281 
L 216.733636 360.676578 
L 214.450909 360.451586 
L 214.450909 360.443096 
L 212.421818 360.196878 
L 212.379545 360.19051 
L 204.812727 359.324503 
L 204.728182 359.299032 
L 204.728182 359.299032 
L 203.629091 359.133472 
L 203.586818 359.118614 
L 191.412273 357.174343 
L 191.327727 357.15524 
L 188.453182 356.613985 
L 188.368636 356.592759 
L 187.861364 356.503612 
L 187.776818 356.297723 
L 186.846818 356.12155 
L 186.128182 355.943254 
L 185.367273 355.803164 
L 184.521818 355.603643 
L 183.718636 355.416857 
L 180.421364 354.650611 
L 180.336818 354.614527 
L 179.364545 354.368309 
L 179.28 354.330103 
L 178.645909 354.094498 
L 178.561364 354.07964 
L 176.574545 353.570224 
L 176.49 353.555366 
L 174.756818 353.096892 
L 174.672273 353.043827 
L 173.446364 352.689359 
L 173.361818 352.651152 
L 173.361818 352.651152 
L 172.896818 352.517431 
L 171.966818 352.275458 
L 171.882273 352.24362 
L 171.755455 352.209659 
L 171.628636 352.061079 
L 170.656364 351.759674 
L 170.571818 351.719346 
L 170.022273 351.564398 
L 169.937727 351.521947 
L 169.345909 351.322426 
L 169.261364 351.224787 
L 164.273182 349.356928 
L 164.188636 349.312355 
L 163.808182 349.112833 
L 163.512273 348.989724 
L 162.201818 348.518514 
L 161.779091 348.359322 
L 161.694545 348.310503 
L 161.483182 348.221355 
L 161.398636 348.049427 
L 159.876818 347.332 
L 159.454091 347.149459 
L 157.636364 346.311045 
L 157.551818 346.162465 
L 157.152149 345.971434 
L 156.917727 345.814364 
L 156.706364 345.6955 
L 156.621818 345.646681 
L 156.325909 345.515082 
L 152.394545 343.226955 
L 152.31 343.176013 
L 151.597403 342.694191 
L 151.253182 342.456463 
L 150.957273 342.320619 
L 150.872727 342.218736 
L 150.45 341.938557 
L 147.744545 339.90726 
L 147.321818 339.565527 
L 147.110455 339.440295 
L 147.025909 339.287471 
L 146.899091 339.189832 
L 145.208182 337.795306 
L 145.081364 337.680687 
L 144.954545 337.546966 
L 144.362727 337.067265 
L 144.193636 336.88897 
L 142.08 334.876776 
L 141.995455 334.719706 
L 141.826364 334.605088 
L 141.741818 334.471366 
L 141.657273 334.390708 
L 138.867273 331.287515 
L 137.43 329.555501 
L 137.260909 329.294425 
L 136.5 328.292573 
L 136.415455 328.141871 
L 136.364727 328.082439 
L 136.035 327.687642 
L 135.992727 327.613352 
L 135.206455 326.496882 
L 135.062727 326.184864 
L 134.957045 326.078736 
L 134.724545 325.607526 
L 134.151515 324.739396 
L 133.879091 324.253328 
L 133.794545 324.132342 
L 133.613377 323.839428 
L 132.653182 322.168968 
L 132.478052 321.850583 
L 130.328182 317.503565 
L 130.243636 317.219141 
L 130.167545 317.119381 
L 130.032273 316.756422 
L 129.99 316.646048 
L 129.905455 316.471998 
L 128.789455 313.984349 
L 128.595 313.409133 
L 128.562483 313.407011 
L 128.425909 312.942169 
L 128.087727 312.057058 
L 128.045455 312.001872 
L 127.944 311.708957 
L 125.635909 305.056832 
L 125.526 304.74906 
L 125.289273 303.876685 
L 124.838011 302.469423 
L 124.705909 301.741383 
L 123.860455 298.41532 
L 123.757792 298.058729 
L 123.522273 296.904052 
L 123.497799 296.90193 
L 123.289773 295.999839 
L 123.057273 294.915207 
L 123.031909 294.913085 
L 122.845909 293.881517 
L 121.577727 287.15298 
L 121.467818 286.660544 
L 121.281818 285.463416 
L 121.248 285.459171 
L 121.112727 284.395765 
L 121.087364 284.389397 
L 120.901364 283.088264 
L 119.895273 276.289682 
L 119.76 274.971567 
L 119.726182 274.967322 
L 119.590909 273.570673 
L 118.398818 261.610008 
L 116.885455 238.285119 
L 116.776753 236.580698 
L 116.589545 231.836761 
L 116.551116 231.817657 
L 116.439055 228.343015 
L 116.184935 220.430085 
L 116.170661 220.423718 
L 116.054091 215.98543 
L 115.913182 209.350286 
L 115.873134 209.343918 
L 115.762208 201.689941 
L 115.617273 189.0543 
L 115.544805 189.041564 
L 115.397455 175.900752 
L 115.363636 66.96 
L 115.363636 66.96 
" clip-path="url(#p96f20560b6)" style="fill: none; stroke: #d62728; stroke-width: 1.5; stroke-linecap: square"/>
   </g>
   <g id="line2d_26">
    <path d="M 138.909545 331.34907 
" clip-path="url(#p96f20560b6)" style="fill: none; stroke: #d62728; stroke-width: 1.5; stroke-linecap: square"/>
    <defs>
     <path id="mdd542c2f15" d="M 0 4 
C 1.060812 4 2.078319 3.578535 2.828427 2.828427 
C 3.578535 2.078319 4 1.060812 4 0 
C 4 -1.060812 3.578535 -2.078319 2.828427 -2.828427 
C 2.078319 -3.578535 1.060812 -4 0 -4 
C -1.060812 -4 -2.078319 -3.578535 -2.828427 -2.828427 
C -3.578535 -2.078319 -4 -1.060812 -4 0 
C -4 1.060812 -3.578535 2.078319 -2.828427 2.828427 
C -2.078319 3.578535 -1.060812 4 0 4 
z
" style="stroke: #d62728"/>
    </defs>
    <g clip-path="url(#p96f20560b6)">
     <use xlink:href="#mdd542c2f15" x="138.909545" y="331.34907" style="fill: #d62728; stroke: #d62728"/>
    </g>
   </g>
   <g id="line2d_27">
    <path d="M 90 331.34907 
L 138.2205 331.34907 
" clip-path="url(#p96f20560b6)" style="fill: none; stroke-dasharray: 5.55,2.4; stroke-dashoffset: 0; stroke: #d62728; stroke-opacity: 0.6; stroke-width: 1.5"/>
   </g>
   <g id="line2d_28">
    <path d="M 138.909545 384.48 
L 138.909545 334.351977 
" clip-path="url(#p96f20560b6)" style="fill: none; stroke-dasharray: 5.55,2.4; stroke-dashoffset: 0; stroke: #d62728; stroke-opacity: 0.6; stroke-width: 1.5"/>
   </g>
   <g id="line2d_29">
    <path d="M 400.268356 369.36 
L 377.527739 369.249627 
L 377.383974 369.243259 
L 374.746797 369.088311 
L 373.399757 368.977938 
L 373.187671 368.952467 
L 372.196252 368.842094 
L 369.661487 368.143769 
L 369.464719 368.082215 
L 368.914016 367.791423 
L 368.596867 367.604637 
L 368.359788 367.498509 
L 367.710734 367.020931 
L 367.363993 366.704669 
L 367.094717 366.475431 
L 365.879558 364.83681 
L 365.715925 364.573611 
L 364.331035 360.738133 
L 364.148508 360.014337 
L 363.705025 358.193175 
L 362.189716 347.187665 
L 360.725288 327.657926 
L 360.195353 317.934446 
L 360.093397 315.884047 
L 359.966233 313.275412 
L 359.465225 302.085238 
L 359.270576 297.479268 
L 358.354483 272.197372 
L 358.23311 268.661176 
L 357.910299 259.302778 
L 357.890794 258.661762 
L 357.574643 249.271526 
L 357.43438 244.89267 
L 357.25893 239.628704 
L 357.182431 237.344822 
L 356.179146 207.762605 
L 356.059663 204.633942 
L 355.999457 202.933766 
L 355.741787 195.848637 
L 355.612956 192.297582 
L 355.398876 186.732211 
L 354.978882 176.418658 
L 354.839248 172.954629 
L 354.732677 170.75565 
L 354.60409 167.792546 
L 354.516737 165.720921 
L 354.404465 163.473122 
L 354.031084 155.887068 
L 353.801768 151.455148 
L 353.629139 148.230968 
L 353.479054 145.477999 
L 353.3847 143.697165 
L 352.932976 135.612308 
L 352.810521 133.47276 
L 352.049512 119.777958 
L 351.878827 116.901879 
L 351.817791 115.772674 
L 351.660084 113.051543 
L 350.848834 99.252735 
L 350.750383 97.873066 
L 350.625802 95.964878 
L 350.53864 94.689215 
L 350.394713 92.396843 
L 350.252213 90.594784 
L 350.137786 89.043187 
L 349.792961 84.479668 
L 349.459738 80.538061 
L 349.331351 79.262398 
L 349.21777 78.012206 
L 349.156439 77.549487 
L 348.71298 74.053619 
L 348.587039 73.287372 
L 348.197387 71.194521 
L 348.116999 70.803969 
L 348.004143 70.370965 
L 347.840126 69.850936 
L 347.721278 69.449771 
L 347.5917 69.114406 
L 347.323393 68.354527 
L 347.172914 68.080715 
L 347.049767 67.915155 
L 346.665993 67.456681 
L 346.282146 67.210463 
L 346.262456 67.189237 
L 345.198452 66.991839 
L 342.822798 66.96 
L 342.822798 66.96 
" clip-path="url(#p96f20560b6)" style="fill: none; stroke: #9467bd; stroke-width: 1.5; stroke-linecap: square"/>
   </g>
   <g id="line2d_30">
    <path d="M 358.295905 270.461113 
" clip-path="url(#p96f20560b6)" style="fill: none; stroke: #9467bd; stroke-width: 1.5; stroke-linecap: square"/>
    <defs>
     <path id="mbb85c90e7a" d="M 0 4 
C 1.060812 4 2.078319 3.578535 2.828427 2.828427 
C 3.578535 2.078319 4 1.060812 4 0 
C 4 -1.060812 3.578535 -2.078319 2.828427 -2.828427 
C 2.078319 -3.578535 1.060812 -4 0 -4 
C -1.060812 -4 -2.078319 -3.578535 -2.828427 -2.828427 
C -3.578535 -2.078319 -4 -1.060812 -4 0 
C -4 1.060812 -3.578535 2.078319 -2.828427 2.828427 
C -2.078319 3.578535 -1.060812 4 0 4 
z
" style="stroke: #9467bd"/>
    </defs>
    <g clip-path="url(#p96f20560b6)">
     <use xlink:href="#mbb85c90e7a" x="358.295905" y="270.461113" style="fill: #9467bd; stroke: #9467bd"/>
    </g>
   </g>
   <g id="line2d_31">
    <path d="M 90 270.461113 
L 357.225495 270.461113 
" clip-path="url(#p96f20560b6)" style="fill: none; stroke-dasharray: 5.55,2.4; stroke-dashoffset: 0; stroke: #9467bd; stroke-opacity: 0.6; stroke-width: 1.5"/>
   </g>
   <g id="line2d_32">
    <path d="M 358.295905 384.48 
L 358.295905 267.375224 
" clip-path="url(#p96f20560b6)" style="fill: none; stroke-dasharray: 5.55,2.4; stroke-dashoffset: 0; stroke: #9467bd; stroke-opacity: 0.6; stroke-width: 1.5"/>
   </g>
   <g id="line2d_33">
    <path d="M 622.628379 369.36 
L 599.432847 369.251749 
L 599.42468 369.247504 
L 580.163818 369.141376 
L 556.461013 368.956712 
L 545.625059 368.848461 
L 544.654732 368.835726 
L 531.070928 368.727475 
L 440.473053 367.600392 
L 435.230968 367.521857 
L 430.026507 367.411483 
L 411.721393 367.016686 
L 404.008078 366.861739 
L 396.884325 366.685566 
L 354.936919 365.575463 
L 354.023508 365.549992 
L 349.282395 365.443864 
L 349.235574 365.437496 
L 341.596787 365.201891 
L 338.15583 365.09364 
L 329.197338 364.777378 
L 323.741979 364.579979 
L 289.198533 363.000789 
L 287.008632 362.864945 
L 284.913651 362.756694 
L 284.296173 362.718488 
L 280.059944 362.485005 
L 257.854704 361.03317 
L 240.609963 359.504921 
L 238.829613 359.339361 
L 234.220995 358.925461 
L 233.763003 358.878764 
L 231.595178 358.666507 
L 207.991484 355.499637 
L 207.967384 355.489025 
L 204.724734 354.971118 
L 204.119203 354.888338 
L 202.159846 354.576321 
L 194.031953 352.924964 
L 193.464401 352.789119 
L 191.867947 352.445263 
L 188.883794 351.659914 
L 186.873873 351.188704 
L 173.560404 347.028472 
L 173.435102 346.973286 
L 173.189579 346.852299 
L 172.549468 346.633675 
L 164.600993 343.420109 
L 164.394391 343.337328 
L 162.317368 342.242084 
L 162.204931 342.121098 
L 161.984957 342.012847 
L 160.941536 341.448244 
L 160.764231 341.318767 
L 158.311209 339.919996 
L 158.125515 339.777784 
L 157.241815 339.300206 
L 157.125411 339.198323 
L 156.993424 339.10493 
L 156.688919 338.913899 
L 151.669176 335.536895 
L 151.466404 335.364967 
L 150.547905 334.630559 
L 148.095394 332.601384 
L 147.63653 332.138665 
L 147.533939 332.032536 
L 147.423816 331.937021 
L 146.523239 331.18351 
L 146.405887 331.054033 
L 146.125065 330.809938 
L 143.190249 327.736461 
L 142.148475 326.573294 
L 142.000581 326.380141 
L 141.721771 326.015059 
L 141.146175 325.280651 
L 141.027715 325.1066 
L 140.664309 324.641758 
L 139.847014 323.688726 
L 139.759807 323.580475 
L 136.826572 319.108226 
L 136.624365 318.774983 
L 133.392926 312.649255 
L 132.17527 309.792279 
L 131.994593 309.374134 
L 131.87778 309.08971 
L 131.231632 307.476559 
L 129.783389 303.721738 
L 129.281399 302.342069 
L 129.157583 301.951517 
L 129.022265 301.58219 
L 128.843775 301.006974 
L 128.648264 300.312895 
L 127.507767 296.471049 
L 127.337214 295.89371 
L 126.088828 291.190102 
L 125.977496 290.718892 
L 125.734009 289.69157 
L 125.555908 288.810704 
L 125.419187 288.210018 
L 125.290523 287.668763 
L 124.633789 284.461565 
L 124.334688 282.816575 
L 123.957418 280.859568 
L 123.815933 279.995684 
L 123.18281 276.402178 
L 122.017924 268.434061 
L 121.584056 264.989135 
L 121.494469 264.284443 
L 121.360003 263.125521 
L 120.86956 258.619311 
L 120.75935 257.615337 
L 120.500095 255.093727 
L 120.07111 250.58964 
L 119.994709 249.77882 
L 119.024941 237.064643 
L 118.864375 234.608833 
L 118.462459 228.001282 
L 117.322416 203.394363 
L 116.824847 187.697979 
L 115.793423 129.998118 
L 115.459871 84.360804 
L 115.364097 66.96 
L 115.364097 66.96 
" clip-path="url(#p96f20560b6)" style="fill: none; stroke: #8c564b; stroke-width: 1.5; stroke-linecap: square"/>
   </g>
   <g id="line2d_34">
    <path d="M 149.102361 333.494985 
" clip-path="url(#p96f20560b6)" style="fill: none; stroke: #8c564b; stroke-width: 1.5; stroke-linecap: square"/>
    <defs>
     <path id="mc1b746df79" d="M 0 4 
C 1.060812 4 2.078319 3.578535 2.828427 2.828427 
C 3.578535 2.078319 4 1.060812 4 0 
C 4 -1.060812 3.578535 -2.078319 2.828427 -2.828427 
C 2.078319 -3.578535 1.060812 -4 0 -4 
C -1.060812 -4 -2.078319 -3.578535 -2.828427 -2.828427 
C -3.578535 -2.078319 -4 -1.060812 -4 0 
C -4 1.060812 -3.578535 2.078319 -2.828427 2.828427 
C -2.078319 3.578535 -1.060812 4 0 4 
z
" style="stroke: #8c564b"/>
    </defs>
    <g clip-path="url(#p96f20560b6)">
     <use xlink:href="#mc1b746df79" x="149.102361" y="333.494985" style="fill: #8c564b; stroke: #8c564b"/>
    </g>
   </g>
   <g id="line2d_35">
    <path d="M 90 333.494985 
L 149.432597 333.494985 
" clip-path="url(#p96f20560b6)" style="fill: none; stroke-dasharray: 5.55,2.4; stroke-dashoffset: 0; stroke: #8c564b; stroke-opacity: 0.6; stroke-width: 1.5"/>
   </g>
   <g id="line2d_36">
    <path d="M 149.102361 384.48 
L 149.102361 336.712484 
" clip-path="url(#p96f20560b6)" style="fill: none; stroke-dasharray: 5.55,2.4; stroke-dashoffset: 0; stroke: #8c564b; stroke-opacity: 0.6; stroke-width: 1.5"/>
   </g>
   <g id="line2d_37">
    <path d="M 369 384.48 
L 369 51.84 
" clip-path="url(#p96f20560b6)" style="fill: none; stroke-dasharray: 1.5,2.475; stroke-dashoffset: 0; stroke: #000000; stroke-opacity: 0.6; stroke-width: 1.5"/>
   </g>
   <g id="patch_3">
    <path d="M 90 384.48 
L 90 51.84 
" style="fill: none; stroke: #000000; stroke-width: 0.8; stroke-linejoin: miter; stroke-linecap: square"/>
   </g>
   <g id="patch_4">
    <path d="M 648 384.48 
L 648 51.84 
" style="fill: none; stroke: #000000; stroke-width: 0.8; stroke-linejoin: miter; stroke-linecap: square"/>
   </g>
   <g id="patch_5">
    <path d="M 90 384.48 
L 648 384.48 
" style="fill: none; stroke: #000000; stroke-width: 0.8; stroke-linejoin: miter; stroke-linecap: square"/>
   </g>
   <g id="patch_6">
    <path d="M 90 51.84 
L 648 51.84 
" style="fill: none; stroke: #000000; stroke-width: 0.8; stroke-linejoin: miter; stroke-linecap: square"/>
   </g>
   <g id="text_15">
    <!-- 0.04 -->
    <g style="fill: #1f77b4" transform="translate(60.887141 343.679781) rotate(-315) scale(0.09 -0.09)">
     <defs>
      <path id="DejaVuSans-Bold-30" d="M 2944 2338 
Q 2944 3213 2780 3570 
Q 2616 3928 2228 3928 
Q 1841 3928 1675 3570 
Q 1509 3213 1509 2338 
Q 1509 1453 1675 1090 
Q 1841 728 2228 728 
Q 2613 728 2778 1090 
Q 2944 1453 2944 2338 
z
M 4147 2328 
Q 4147 1169 3647 539 
Q 3147 -91 2228 -91 
Q 1306 -91 806 539 
Q 306 1169 306 2328 
Q 306 3491 806 4120 
Q 1306 4750 2228 4750 
Q 3147 4750 3647 4120 
Q 4147 3491 4147 2328 
z
" transform="scale(0.015625)"/>
      <path id="DejaVuSans-Bold-2e" d="M 653 1209 
L 1778 1209 
L 1778 0 
L 653 0 
L 653 1209 
z
" transform="scale(0.015625)"/>
      <path id="DejaVuSans-Bold-34" d="M 2356 3675 
L 1038 1722 
L 2356 1722 
L 2356 3675 
z
M 2156 4666 
L 3494 4666 
L 3494 1722 
L 4159 1722 
L 4159 850 
L 3494 850 
L 3494 0 
L 2356 0 
L 2356 850 
L 288 850 
L 288 1881 
L 2156 4666 
z
" transform="scale(0.015625)"/>
     </defs>
     <use xlink:href="#DejaVuSans-Bold-30"/>
     <use xlink:href="#DejaVuSans-Bold-2e" transform="translate(69.580078 0)"/>
     <use xlink:href="#DejaVuSans-Bold-30" transform="translate(107.568359 0)"/>
     <use xlink:href="#DejaVuSans-Bold-34" transform="translate(177.148438 0)"/>
    </g>
   </g>
   <g id="text_16">
    <!-- 0.000 -->
    <g style="fill: #ff7f0e" transform="translate(102.009251 428.516495) rotate(-45) scale(0.09 -0.09)">
     <use xlink:href="#DejaVuSans-Bold-30"/>
     <use xlink:href="#DejaVuSans-Bold-2e" transform="translate(69.580078 0)"/>
     <use xlink:href="#DejaVuSans-Bold-30" transform="translate(107.568359 0)"/>
     <use xlink:href="#DejaVuSans-Bold-30" transform="translate(177.148438 0)"/>
     <use xlink:href="#DejaVuSans-Bold-30" transform="translate(246.728516 0)"/>
    </g>
   </g>
   <g id="text_17">
    <!-- 0.45 -->
    <g style="fill: #ff7f0e" transform="translate(63.423505 224.212561) rotate(-315) scale(0.09 -0.09)">
     <defs>
      <path id="DejaVuSans-Bold-35" d="M 678 4666 
L 3669 4666 
L 3669 3781 
L 1638 3781 
L 1638 3059 
Q 1775 3097 1914 3117 
Q 2053 3138 2203 3138 
Q 3056 3138 3531 2711 
Q 4006 2284 4006 1522 
Q 4006 766 3489 337 
Q 2972 -91 2053 -91 
Q 1656 -91 1267 -14 
Q 878 63 494 219 
L 494 1166 
Q 875 947 1217 837 
Q 1559 728 1863 728 
Q 2300 728 2551 942 
Q 2803 1156 2803 1522 
Q 2803 1891 2551 2103 
Q 2300 2316 1863 2316 
Q 1603 2316 1309 2248 
Q 1016 2181 678 2041 
L 678 4666 
z
" transform="scale(0.015625)"/>
     </defs>
     <use xlink:href="#DejaVuSans-Bold-30"/>
     <use xlink:href="#DejaVuSans-Bold-2e" transform="translate(69.580078 0)"/>
     <use xlink:href="#DejaVuSans-Bold-34" transform="translate(107.568359 0)"/>
     <use xlink:href="#DejaVuSans-Bold-35" transform="translate(177.148438 0)"/>
    </g>
   </g>
   <g id="text_18">
    <!-- 0.016 -->
    <g style="fill: #2ca02c" transform="translate(110.164278 413.396495) rotate(-45) scale(0.09 -0.09)">
     <defs>
      <path id="DejaVuSans-Bold-31" d="M 750 831 
L 1813 831 
L 1813 3847 
L 722 3622 
L 722 4441 
L 1806 4666 
L 2950 4666 
L 2950 831 
L 4013 831 
L 4013 0 
L 750 0 
L 750 831 
z
" transform="scale(0.015625)"/>
      <path id="DejaVuSans-Bold-36" d="M 2316 2303 
Q 2000 2303 1842 2098 
Q 1684 1894 1684 1484 
Q 1684 1075 1842 870 
Q 2000 666 2316 666 
Q 2634 666 2792 870 
Q 2950 1075 2950 1484 
Q 2950 1894 2792 2098 
Q 2634 2303 2316 2303 
z
M 3803 4544 
L 3803 3681 
Q 3506 3822 3243 3889 
Q 2981 3956 2731 3956 
Q 2194 3956 1894 3657 
Q 1594 3359 1544 2772 
Q 1750 2925 1990 3001 
Q 2231 3078 2516 3078 
Q 3231 3078 3670 2659 
Q 4109 2241 4109 1563 
Q 4109 813 3618 361 
Q 3128 -91 2303 -91 
Q 1394 -91 895 523 
Q 397 1138 397 2266 
Q 397 3422 980 4083 
Q 1563 4744 2578 4744 
Q 2900 4744 3203 4694 
Q 3506 4644 3803 4544 
z
" transform="scale(0.015625)"/>
     </defs>
     <use xlink:href="#DejaVuSans-Bold-30"/>
     <use xlink:href="#DejaVuSans-Bold-2e" transform="translate(69.580078 0)"/>
     <use xlink:href="#DejaVuSans-Bold-30" transform="translate(107.568359 0)"/>
     <use xlink:href="#DejaVuSans-Bold-31" transform="translate(177.148438 0)"/>
     <use xlink:href="#DejaVuSans-Bold-36" transform="translate(246.728516 0)"/>
    </g>
   </g>
   <g id="text_19">
    <!-- 0.04 -->
    <g style="fill: #2ca02c" transform="translate(45.66896 346.256577) rotate(-315) scale(0.09 -0.09)">
     <use xlink:href="#DejaVuSans-Bold-30"/>
     <use xlink:href="#DejaVuSans-Bold-2e" transform="translate(69.580078 0)"/>
     <use xlink:href="#DejaVuSans-Bold-30" transform="translate(107.568359 0)"/>
     <use xlink:href="#DejaVuSans-Bold-34" transform="translate(177.148438 0)"/>
    </g>
   </g>
   <g id="text_20">
    <!-- 0.046 -->
    <g style="fill: #d62728" transform="translate(125.528369 413.396495) rotate(-45) scale(0.09 -0.09)">
     <use xlink:href="#DejaVuSans-Bold-30"/>
     <use xlink:href="#DejaVuSans-Bold-2e" transform="translate(69.580078 0)"/>
     <use xlink:href="#DejaVuSans-Bold-30" transform="translate(107.568359 0)"/>
     <use xlink:href="#DejaVuSans-Bold-34" transform="translate(177.148438 0)"/>
     <use xlink:href="#DejaVuSans-Bold-36" transform="translate(246.728516 0)"/>
    </g>
   </g>
   <g id="text_21">
    <!-- 0.13 -->
    <g style="fill: #d62728" transform="translate(68.496232 319.206583) rotate(-315) scale(0.09 -0.09)">
     <defs>
      <path id="DejaVuSans-Bold-33" d="M 2981 2516 
Q 3453 2394 3698 2092 
Q 3944 1791 3944 1325 
Q 3944 631 3412 270 
Q 2881 -91 1863 -91 
Q 1503 -91 1142 -33 
Q 781 25 428 141 
L 428 1069 
Q 766 900 1098 814 
Q 1431 728 1753 728 
Q 2231 728 2486 893 
Q 2741 1059 2741 1369 
Q 2741 1688 2480 1852 
Q 2219 2016 1709 2016 
L 1228 2016 
L 1228 2791 
L 1734 2791 
Q 2188 2791 2409 2933 
Q 2631 3075 2631 3366 
Q 2631 3634 2415 3781 
Q 2200 3928 1806 3928 
Q 1516 3928 1219 3862 
Q 922 3797 628 3669 
L 628 4550 
Q 984 4650 1334 4700 
Q 1684 4750 2022 4750 
Q 2931 4750 3382 4451 
Q 3834 4153 3834 3553 
Q 3834 3144 3618 2883 
Q 3403 2622 2981 2516 
z
" transform="scale(0.015625)"/>
     </defs>
     <use xlink:href="#DejaVuSans-Bold-30"/>
     <use xlink:href="#DejaVuSans-Bold-2e" transform="translate(69.580078 0)"/>
     <use xlink:href="#DejaVuSans-Bold-31" transform="translate(107.568359 0)"/>
     <use xlink:href="#DejaVuSans-Bold-33" transform="translate(177.148438 0)"/>
    </g>
   </g>
   <g id="text_22">
    <!-- 0.479 -->
    <g style="fill: #9467bd" transform="translate(344.914728 413.396495) rotate(-45) scale(0.09 -0.09)">
     <defs>
      <path id="DejaVuSans-Bold-37" d="M 428 4666 
L 3944 4666 
L 3944 3988 
L 2125 0 
L 953 0 
L 2675 3781 
L 428 3781 
L 428 4666 
z
" transform="scale(0.015625)"/>
      <path id="DejaVuSans-Bold-39" d="M 641 103 
L 641 966 
Q 928 831 1190 764 
Q 1453 697 1709 697 
Q 2247 697 2547 995 
Q 2847 1294 2900 1881 
Q 2688 1725 2447 1647 
Q 2206 1569 1925 1569 
Q 1209 1569 770 1986 
Q 331 2403 331 3084 
Q 331 3838 820 4291 
Q 1309 4744 2131 4744 
Q 3044 4744 3544 4128 
Q 4044 3513 4044 2388 
Q 4044 1231 3459 570 
Q 2875 -91 1856 -91 
Q 1528 -91 1228 -42 
Q 928 6 641 103 
z
M 2125 2350 
Q 2441 2350 2600 2554 
Q 2759 2759 2759 3169 
Q 2759 3575 2600 3781 
Q 2441 3988 2125 3988 
Q 1809 3988 1650 3781 
Q 1491 3575 1491 3169 
Q 1491 2759 1650 2554 
Q 1809 2350 2125 2350 
z
" transform="scale(0.015625)"/>
     </defs>
     <use xlink:href="#DejaVuSans-Bold-30"/>
     <use xlink:href="#DejaVuSans-Bold-2e" transform="translate(69.580078 0)"/>
     <use xlink:href="#DejaVuSans-Bold-34" transform="translate(107.568359 0)"/>
     <use xlink:href="#DejaVuSans-Bold-37" transform="translate(177.148438 0)"/>
     <use xlink:href="#DejaVuSans-Bold-39" transform="translate(246.728516 0)"/>
    </g>
   </g>
   <g id="text_23">
    <!-- 0.33 -->
    <g style="fill: #9467bd" transform="translate(63.423505 261.342625) rotate(-315) scale(0.09 -0.09)">
     <use xlink:href="#DejaVuSans-Bold-30"/>
     <use xlink:href="#DejaVuSans-Bold-2e" transform="translate(69.580078 0)"/>
     <use xlink:href="#DejaVuSans-Bold-33" transform="translate(107.568359 0)"/>
     <use xlink:href="#DejaVuSans-Bold-33" transform="translate(177.148438 0)"/>
    </g>
   </g>
   <g id="text_24">
    <!-- 0.067 -->
    <g style="fill: #8c564b" transform="translate(135.721184 413.396495) rotate(-45) scale(0.09 -0.09)">
     <use xlink:href="#DejaVuSans-Bold-30"/>
     <use xlink:href="#DejaVuSans-Bold-2e" transform="translate(69.580078 0)"/>
     <use xlink:href="#DejaVuSans-Bold-30" transform="translate(107.568359 0)"/>
     <use xlink:href="#DejaVuSans-Bold-36" transform="translate(177.148438 0)"/>
     <use xlink:href="#DejaVuSans-Bold-37" transform="translate(246.728516 0)"/>
    </g>
   </g>
   <g id="text_25">
    <!-- 0.12 -->
    <g style="fill: #8c564b" transform="translate(53.27805 321.352498) rotate(-315) scale(0.09 -0.09)">
     <defs>
      <path id="DejaVuSans-Bold-32" d="M 1844 884 
L 3897 884 
L 3897 0 
L 506 0 
L 506 884 
L 2209 2388 
Q 2438 2594 2547 2791 
Q 2656 2988 2656 3200 
Q 2656 3528 2436 3728 
Q 2216 3928 1850 3928 
Q 1569 3928 1234 3808 
Q 900 3688 519 3450 
L 519 4475 
Q 925 4609 1322 4679 
Q 1719 4750 2100 4750 
Q 2938 4750 3402 4381 
Q 3866 4013 3866 3353 
Q 3866 2972 3669 2642 
Q 3472 2313 2841 1759 
L 1844 884 
z
" transform="scale(0.015625)"/>
     </defs>
     <use xlink:href="#DejaVuSans-Bold-30"/>
     <use xlink:href="#DejaVuSans-Bold-2e" transform="translate(69.580078 0)"/>
     <use xlink:href="#DejaVuSans-Bold-31" transform="translate(107.568359 0)"/>
     <use xlink:href="#DejaVuSans-Bold-32" transform="translate(177.148438 0)"/>
    </g>
   </g>
   <g id="text_26">
    <!-- 0.500 -->
    <g transform="translate(355.618823 413.396495) rotate(-45) scale(0.09 -0.09)">
     <use xlink:href="#DejaVuSans-Bold-30"/>
     <use xlink:href="#DejaVuSans-Bold-2e" transform="translate(69.580078 0)"/>
     <use xlink:href="#DejaVuSans-Bold-35" transform="translate(107.568359 0)"/>
     <use xlink:href="#DejaVuSans-Bold-30" transform="translate(177.148438 0)"/>
     <use xlink:href="#DejaVuSans-Bold-30" transform="translate(246.728516 0)"/>
    </g>
   </g>
   <g id="text_27">
    <!-- Thresholds vs FPR -->
    <g transform="translate(314.58 45.84) scale(0.12 -0.12)">
     <defs>
      <path id="DejaVuSans-20" transform="scale(0.015625)"/>
      <path id="DejaVuSans-76" d="M 191 3500 
L 800 3500 
L 1894 563 
L 2988 3500 
L 3597 3500 
L 2284 0 
L 1503 0 
L 191 3500 
z
" transform="scale(0.015625)"/>
     </defs>
     <use xlink:href="#DejaVuSans-54"/>
     <use xlink:href="#DejaVuSans-68" transform="translate(61.083984 0)"/>
     <use xlink:href="#DejaVuSans-72" transform="translate(124.462891 0)"/>
     <use xlink:href="#DejaVuSans-65" transform="translate(163.326172 0)"/>
     <use xlink:href="#DejaVuSans-73" transform="translate(224.849609 0)"/>
     <use xlink:href="#DejaVuSans-68" transform="translate(276.949219 0)"/>
     <use xlink:href="#DejaVuSans-6f" transform="translate(340.328125 0)"/>
     <use xlink:href="#DejaVuSans-6c" transform="translate(401.509766 0)"/>
     <use xlink:href="#DejaVuSans-64" transform="translate(429.292969 0)"/>
     <use xlink:href="#DejaVuSans-73" transform="translate(492.769531 0)"/>
     <use xlink:href="#DejaVuSans-20" transform="translate(544.869141 0)"/>
     <use xlink:href="#DejaVuSans-76" transform="translate(576.65625 0)"/>
     <use xlink:href="#DejaVuSans-73" transform="translate(635.835938 0)"/>
     <use xlink:href="#DejaVuSans-20" transform="translate(687.935547 0)"/>
     <use xlink:href="#DejaVuSans-46" transform="translate(719.722656 0)"/>
     <use xlink:href="#DejaVuSans-50" transform="translate(777.242188 0)"/>
     <use xlink:href="#DejaVuSans-52" transform="translate(837.544922 0)"/>
    </g>
   </g>
   <g id="legend_1">
    <g id="patch_7">
     <path d="M 587.479687 147.90875 
L 641 147.90875 
Q 643 147.90875 643 145.90875 
L 643 58.84 
Q 643 56.84 641 56.84 
L 587.479687 56.84 
Q 585.479687 56.84 585.479687 58.84 
L 585.479687 145.90875 
Q 585.479687 147.90875 587.479687 147.90875 
z
" style="fill: #ffffff; opacity: 0.8; stroke: #cccccc; stroke-linejoin: miter"/>
    </g>
    <g id="line2d_38">
     <path d="M 589.479687 64.938437 
L 599.479687 64.938437 
L 609.479687 64.938437 
" style="fill: none; stroke: #1f77b4; stroke-width: 1.5; stroke-linecap: square"/>
    </g>
    <g id="text_28">
     <!-- KNN -->
     <g transform="translate(617.479687 68.438437) scale(0.1 -0.1)">
      <defs>
       <path id="DejaVuSans-4b" d="M 628 4666 
L 1259 4666 
L 1259 2694 
L 3353 4666 
L 4166 4666 
L 1850 2491 
L 4331 0 
L 3500 0 
L 1259 2247 
L 1259 0 
L 628 0 
L 628 4666 
z
" transform="scale(0.015625)"/>
       <path id="DejaVuSans-4e" d="M 628 4666 
L 1478 4666 
L 3547 763 
L 3547 4666 
L 4159 4666 
L 4159 0 
L 3309 0 
L 1241 3903 
L 1241 0 
L 628 0 
L 628 4666 
z
" transform="scale(0.015625)"/>
      </defs>
      <use xlink:href="#DejaVuSans-4b"/>
      <use xlink:href="#DejaVuSans-4e" transform="translate(65.576172 0)"/>
      <use xlink:href="#DejaVuSans-4e" transform="translate(140.380859 0)"/>
     </g>
    </g>
    <g id="line2d_39">
     <path d="M 589.479687 79.616562 
L 599.479687 79.616562 
L 609.479687 79.616562 
" style="fill: none; stroke: #ff7f0e; stroke-width: 1.5; stroke-linecap: square"/>
    </g>
    <g id="text_29">
     <!-- NB -->
     <g transform="translate(617.479687 83.116562) scale(0.1 -0.1)">
      <defs>
       <path id="DejaVuSans-42" d="M 1259 2228 
L 1259 519 
L 2272 519 
Q 2781 519 3026 730 
Q 3272 941 3272 1375 
Q 3272 1813 3026 2020 
Q 2781 2228 2272 2228 
L 1259 2228 
z
M 1259 4147 
L 1259 2741 
L 2194 2741 
Q 2656 2741 2882 2914 
Q 3109 3088 3109 3444 
Q 3109 3797 2882 3972 
Q 2656 4147 2194 4147 
L 1259 4147 
z
M 628 4666 
L 2241 4666 
Q 2963 4666 3353 4366 
Q 3744 4066 3744 3513 
Q 3744 3084 3544 2831 
Q 3344 2578 2956 2516 
Q 3422 2416 3680 2098 
Q 3938 1781 3938 1306 
Q 3938 681 3513 340 
Q 3088 0 2303 0 
L 628 0 
L 628 4666 
z
" transform="scale(0.015625)"/>
      </defs>
      <use xlink:href="#DejaVuSans-4e"/>
      <use xlink:href="#DejaVuSans-42" transform="translate(74.804688 0)"/>
     </g>
    </g>
    <g id="line2d_40">
     <path d="M 589.479687 94.294687 
L 599.479687 94.294687 
L 609.479687 94.294687 
" style="fill: none; stroke: #2ca02c; stroke-width: 1.5; stroke-linecap: square"/>
    </g>
    <g id="text_30">
     <!-- DT -->
     <g transform="translate(617.479687 97.794687) scale(0.1 -0.1)">
      <defs>
       <path id="DejaVuSans-44" d="M 1259 4147 
L 1259 519 
L 2022 519 
Q 2988 519 3436 956 
Q 3884 1394 3884 2338 
Q 3884 3275 3436 3711 
Q 2988 4147 2022 4147 
L 1259 4147 
z
M 628 4666 
L 1925 4666 
Q 3281 4666 3915 4102 
Q 4550 3538 4550 2338 
Q 4550 1131 3912 565 
Q 3275 0 1925 0 
L 628 0 
L 628 4666 
z
" transform="scale(0.015625)"/>
      </defs>
      <use xlink:href="#DejaVuSans-44"/>
      <use xlink:href="#DejaVuSans-54" transform="translate(77.001953 0)"/>
     </g>
    </g>
    <g id="line2d_41">
     <path d="M 589.479687 108.972812 
L 599.479687 108.972812 
L 609.479687 108.972812 
" style="fill: none; stroke: #d62728; stroke-width: 1.5; stroke-linecap: square"/>
    </g>
    <g id="text_31">
     <!-- RF -->
     <g transform="translate(617.479687 112.472812) scale(0.1 -0.1)">
      <use xlink:href="#DejaVuSans-52"/>
      <use xlink:href="#DejaVuSans-46" transform="translate(69.482422 0)"/>
     </g>
    </g>
    <g id="line2d_42">
     <path d="M 589.479687 123.650937 
L 599.479687 123.650937 
L 609.479687 123.650937 
" style="fill: none; stroke: #9467bd; stroke-width: 1.5; stroke-linecap: square"/>
    </g>
    <g id="text_32">
     <!-- ADA -->
     <g transform="translate(617.479687 127.150937) scale(0.1 -0.1)">
      <defs>
       <path id="DejaVuSans-41" d="M 2188 4044 
L 1331 1722 
L 3047 1722 
L 2188 4044 
z
M 1831 4666 
L 2547 4666 
L 4325 0 
L 3669 0 
L 3244 1197 
L 1141 1197 
L 716 0 
L 50 0 
L 1831 4666 
z
" transform="scale(0.015625)"/>
      </defs>
      <use xlink:href="#DejaVuSans-41"/>
      <use xlink:href="#DejaVuSans-44" transform="translate(68.408203 0)"/>
      <use xlink:href="#DejaVuSans-41" transform="translate(143.660156 0)"/>
     </g>
    </g>
    <g id="line2d_43">
     <path d="M 589.479687 138.329062 
L 599.479687 138.329062 
L 609.479687 138.329062 
" style="fill: none; stroke: #8c564b; stroke-width: 1.5; stroke-linecap: square"/>
    </g>
    <g id="text_33">
     <!-- XGB -->
     <g transform="translate(617.479687 141.829062) scale(0.1 -0.1)">
      <defs>
       <path id="DejaVuSans-58" d="M 403 4666 
L 1081 4666 
L 2241 2931 
L 3406 4666 
L 4084 4666 
L 2584 2425 
L 4184 0 
L 3506 0 
L 2194 1984 
L 872 0 
L 191 0 
L 1856 2491 
L 403 4666 
z
" transform="scale(0.015625)"/>
       <path id="DejaVuSans-47" d="M 3809 666 
L 3809 1919 
L 2778 1919 
L 2778 2438 
L 4434 2438 
L 4434 434 
Q 4069 175 3628 42 
Q 3188 -91 2688 -91 
Q 1594 -91 976 548 
Q 359 1188 359 2328 
Q 359 3472 976 4111 
Q 1594 4750 2688 4750 
Q 3144 4750 3555 4637 
Q 3966 4525 4313 4306 
L 4313 3634 
Q 3963 3931 3569 4081 
Q 3175 4231 2741 4231 
Q 1884 4231 1454 3753 
Q 1025 3275 1025 2328 
Q 1025 1384 1454 906 
Q 1884 428 2741 428 
Q 3075 428 3337 486 
Q 3600 544 3809 666 
z
" transform="scale(0.015625)"/>
      </defs>
      <use xlink:href="#DejaVuSans-58"/>
      <use xlink:href="#DejaVuSans-47" transform="translate(68.505859 0)"/>
      <use xlink:href="#DejaVuSans-42" transform="translate(145.996094 0)"/>
     </g>
    </g>
   </g>
  </g>
 </g>
 <defs>
  <clipPath id="p96f20560b6">
   <rect x="90" y="51.84" width="558" height="332.64"/>
  </clipPath>
 </defs>
</svg>
