<?xml version="1.0" encoding="utf-8" standalone="no"?>
<!DOCTYPE svg PUBLIC "-//W3C//DTD SVG 1.1//EN"
  "http://www.w3.org/Graphics/SVG/1.1/DTD/svg11.dtd">
<svg xmlns:xlink="http://www.w3.org/1999/xlink" width="576pt" height="360pt" viewBox="0 0 576 360" xmlns="http://www.w3.org/2000/svg" version="1.1">
 <metadata>
  <rdf:RDF xmlns:dc="http://purl.org/dc/elements/1.1/" xmlns:cc="http://creativecommons.org/ns#" xmlns:rdf="http://www.w3.org/1999/02/22-rdf-syntax-ns#">
   <cc:Work>
    <dc:type rdf:resource="http://purl.org/dc/dcmitype/StillImage"/>
    <dc:date>2025-11-05T12:01:23.629398</dc:date>
    <dc:format>image/svg+xml</dc:format>
    <dc:creator>
     <cc:Agent>
      <dc:title>Matplotlib v3.10.0, https://matplotlib.org/</dc:title>
     </cc:Agent>
    </dc:creator>
   </cc:Work>
  </rdf:RDF>
 </metadata>
 <defs>
  <style type="text/css">*{stroke-linejoin: round; stroke-linecap: butt}</style>
 </defs>
 <g id="figure_1">
  <g id="patch_1">
   <path d="M 0 360 
L 576 360 
L 576 0 
L 0 0 
z
" style="fill: #ffffff"/>
  </g>
  <g id="axes_1">
   <g id="patch_2">
    <path d="M 191.27 318.04 
L 563.493688 318.04 
L 563.493688 26.88 
L 191.27 26.88 
z
" style="fill: #ffffff"/>
   </g>
   <g id="patch_3">
    <path d="M 191.27 304.805455 
L 202.960744 304.805455 
L 202.960744 294.110872 
L 191.27 294.110872 
z
" clip-path="url(#p0f53be1508)" style="fill: #1f77b4"/>
   </g>
   <g id="patch_4">
    <path d="M 191.27 291.437227 
L 203.854326 291.437227 
L 203.854326 280.742645 
L 191.27 280.742645 
z
" clip-path="url(#p0f53be1508)" style="fill: #1f77b4"/>
   </g>
   <g id="patch_5">
    <path d="M 191.27 278.068999 
L 205.930058 278.068999 
L 205.930058 267.374417 
L 191.27 267.374417 
z
" clip-path="url(#p0f53be1508)" style="fill: #1f77b4"/>
   </g>
   <g id="patch_6">
    <path d="M 191.27 264.700771 
L 206.049782 264.700771 
L 206.049782 254.006189 
L 191.27 254.006189 
z
" clip-path="url(#p0f53be1508)" style="fill: #1f77b4"/>
   </g>
   <g id="patch_7">
    <path d="M 191.27 251.332544 
L 206.48539 251.332544 
L 206.48539 240.637961 
L 191.27 240.637961 
z
" clip-path="url(#p0f53be1508)" style="fill: #1f77b4"/>
   </g>
   <g id="patch_8">
    <path d="M 191.27 237.964316 
L 209.606161 237.964316 
L 209.606161 227.269734 
L 191.27 227.269734 
z
" clip-path="url(#p0f53be1508)" style="fill: #1f77b4"/>
   </g>
   <g id="patch_9">
    <path d="M 191.27 224.596088 
L 210.196104 224.596088 
L 210.196104 213.901506 
L 191.27 213.901506 
z
" clip-path="url(#p0f53be1508)" style="fill: #1f77b4"/>
   </g>
   <g id="patch_10">
    <path d="M 191.27 211.22786 
L 215.764935 211.22786 
L 215.764935 200.533278 
L 191.27 200.533278 
z
" clip-path="url(#p0f53be1508)" style="fill: #1f77b4"/>
   </g>
   <g id="patch_11">
    <path d="M 191.27 197.859633 
L 216.766187 197.859633 
L 216.766187 187.165051 
L 191.27 187.165051 
z
" clip-path="url(#p0f53be1508)" style="fill: #1f77b4"/>
   </g>
   <g id="patch_12">
    <path d="M 191.27 184.491405 
L 220.638156 184.491405 
L 220.638156 173.796823 
L 191.27 173.796823 
z
" clip-path="url(#p0f53be1508)" style="fill: #1f77b4"/>
   </g>
   <g id="patch_13">
    <path d="M 191.27 171.123177 
L 225.990634 171.123177 
L 225.990634 160.428595 
L 191.27 160.428595 
z
" clip-path="url(#p0f53be1508)" style="fill: #1f77b4"/>
   </g>
   <g id="patch_14">
    <path d="M 191.27 157.754949 
L 226.392561 157.754949 
L 226.392561 147.060367 
L 191.27 147.060367 
z
" clip-path="url(#p0f53be1508)" style="fill: #1f77b4"/>
   </g>
   <g id="patch_15">
    <path d="M 191.27 144.386722 
L 234.573182 144.386722 
L 234.573182 133.69214 
L 191.27 133.69214 
z
" clip-path="url(#p0f53be1508)" style="fill: #1f77b4"/>
   </g>
   <g id="patch_16">
    <path d="M 191.27 131.018494 
L 237.176149 131.018494 
L 237.176149 120.323912 
L 191.27 120.323912 
z
" clip-path="url(#p0f53be1508)" style="fill: #1f77b4"/>
   </g>
   <g id="patch_17">
    <path d="M 191.27 117.650266 
L 242.188378 117.650266 
L 242.188378 106.955684 
L 191.27 106.955684 
z
" clip-path="url(#p0f53be1508)" style="fill: #1f77b4"/>
   </g>
   <g id="patch_18">
    <path d="M 191.27 104.282039 
L 260.255721 104.282039 
L 260.255721 93.587456 
L 191.27 93.587456 
z
" clip-path="url(#p0f53be1508)" style="fill: #1f77b4"/>
   </g>
   <g id="patch_19">
    <path d="M 191.27 90.913811 
L 260.880627 90.913811 
L 260.880627 80.219229 
L 191.27 80.219229 
z
" clip-path="url(#p0f53be1508)" style="fill: #1f77b4"/>
   </g>
   <g id="patch_20">
    <path d="M 191.27 77.545583 
L 279.220869 77.545583 
L 279.220869 66.851001 
L 191.27 66.851001 
z
" clip-path="url(#p0f53be1508)" style="fill: #1f77b4"/>
   </g>
   <g id="patch_21">
    <path d="M 191.27 64.177355 
L 294.464259 64.177355 
L 294.464259 53.482773 
L 191.27 53.482773 
z
" clip-path="url(#p0f53be1508)" style="fill: #1f77b4"/>
   </g>
   <g id="patch_22">
    <path d="M 191.27 50.809128 
L 545.76875 50.809128 
L 545.76875 40.114545 
L 191.27 40.114545 
z
" clip-path="url(#p0f53be1508)" style="fill: #1f77b4"/>
   </g>
   <g id="matplotlib.axis_1">
    <g id="xtick_1">
     <g id="line2d_1">
      <defs>
       <path id="md1a09dd20c" d="M 0 0 
L 0 3.5 
" style="stroke: #000000; stroke-width: 0.8"/>
      </defs>
      <g>
       <use xlink:href="#md1a09dd20c" x="191.27" y="318.04" style="stroke: #000000; stroke-width: 0.8"/>
      </g>
     </g>
     <g id="text_1">
      <!-- 0.00 -->
      <g transform="translate(180.137187 332.638438) scale(0.1 -0.1)">
       <defs>
        <path id="DejaVuSans-30" d="M 2034 4250 
Q 1547 4250 1301 3770 
Q 1056 3291 1056 2328 
Q 1056 1369 1301 889 
Q 1547 409 2034 409 
Q 2525 409 2770 889 
Q 3016 1369 3016 2328 
Q 3016 3291 2770 3770 
Q 2525 4250 2034 4250 
z
M 2034 4750 
Q 2819 4750 3233 4129 
Q 3647 3509 3647 2328 
Q 3647 1150 3233 529 
Q 2819 -91 2034 -91 
Q 1250 -91 836 529 
Q 422 1150 422 2328 
Q 422 3509 836 4129 
Q 1250 4750 2034 4750 
z
" transform="scale(0.015625)"/>
        <path id="DejaVuSans-2e" d="M 684 794 
L 1344 794 
L 1344 0 
L 684 0 
L 684 794 
z
" transform="scale(0.015625)"/>
       </defs>
       <use xlink:href="#DejaVuSans-30"/>
       <use xlink:href="#DejaVuSans-2e" transform="translate(63.623047 0)"/>
       <use xlink:href="#DejaVuSans-30" transform="translate(95.410156 0)"/>
       <use xlink:href="#DejaVuSans-30" transform="translate(159.033203 0)"/>
      </g>
     </g>
    </g>
    <g id="xtick_2">
     <g id="line2d_2">
      <g>
       <use xlink:href="#md1a09dd20c" x="252.012241" y="318.04" style="stroke: #000000; stroke-width: 0.8"/>
      </g>
     </g>
     <g id="text_2">
      <!-- 0.05 -->
      <g transform="translate(240.879428 332.638438) scale(0.1 -0.1)">
       <defs>
        <path id="DejaVuSans-35" d="M 691 4666 
L 3169 4666 
L 3169 4134 
L 1269 4134 
L 1269 2991 
Q 1406 3038 1543 3061 
Q 1681 3084 1819 3084 
Q 2600 3084 3056 2656 
Q 3513 2228 3513 1497 
Q 3513 744 3044 326 
Q 2575 -91 1722 -91 
Q 1428 -91 1123 -41 
Q 819 9 494 109 
L 494 744 
Q 775 591 1075 516 
Q 1375 441 1709 441 
Q 2250 441 2565 725 
Q 2881 1009 2881 1497 
Q 2881 1984 2565 2268 
Q 2250 2553 1709 2553 
Q 1456 2553 1204 2497 
Q 953 2441 691 2322 
L 691 4666 
z
" transform="scale(0.015625)"/>
       </defs>
       <use xlink:href="#DejaVuSans-30"/>
       <use xlink:href="#DejaVuSans-2e" transform="translate(63.623047 0)"/>
       <use xlink:href="#DejaVuSans-30" transform="translate(95.410156 0)"/>
       <use xlink:href="#DejaVuSans-35" transform="translate(159.033203 0)"/>
      </g>
     </g>
    </g>
    <g id="xtick_3">
     <g id="line2d_3">
      <g>
       <use xlink:href="#md1a09dd20c" x="312.754482" y="318.04" style="stroke: #000000; stroke-width: 0.8"/>
      </g>
     </g>
     <g id="text_3">
      <!-- 0.10 -->
      <g transform="translate(301.621669 332.638438) scale(0.1 -0.1)">
       <defs>
        <path id="DejaVuSans-31" d="M 794 531 
L 1825 531 
L 1825 4091 
L 703 3866 
L 703 4441 
L 1819 4666 
L 2450 4666 
L 2450 531 
L 3481 531 
L 3481 0 
L 794 0 
L 794 531 
z
" transform="scale(0.015625)"/>
       </defs>
       <use xlink:href="#DejaVuSans-30"/>
       <use xlink:href="#DejaVuSans-2e" transform="translate(63.623047 0)"/>
       <use xlink:href="#DejaVuSans-31" transform="translate(95.410156 0)"/>
       <use xlink:href="#DejaVuSans-30" transform="translate(159.033203 0)"/>
      </g>
     </g>
    </g>
    <g id="xtick_4">
     <g id="line2d_4">
      <g>
       <use xlink:href="#md1a09dd20c" x="373.496723" y="318.04" style="stroke: #000000; stroke-width: 0.8"/>
      </g>
     </g>
     <g id="text_4">
      <!-- 0.15 -->
      <g transform="translate(362.36391 332.638438) scale(0.1 -0.1)">
       <use xlink:href="#DejaVuSans-30"/>
       <use xlink:href="#DejaVuSans-2e" transform="translate(63.623047 0)"/>
       <use xlink:href="#DejaVuSans-31" transform="translate(95.410156 0)"/>
       <use xlink:href="#DejaVuSans-35" transform="translate(159.033203 0)"/>
      </g>
     </g>
    </g>
    <g id="xtick_5">
     <g id="line2d_5">
      <g>
       <use xlink:href="#md1a09dd20c" x="434.238963" y="318.04" style="stroke: #000000; stroke-width: 0.8"/>
      </g>
     </g>
     <g id="text_5">
      <!-- 0.20 -->
      <g transform="translate(423.106151 332.638438) scale(0.1 -0.1)">
       <defs>
        <path id="DejaVuSans-32" d="M 1228 531 
L 3431 531 
L 3431 0 
L 469 0 
L 469 531 
Q 828 903 1448 1529 
Q 2069 2156 2228 2338 
Q 2531 2678 2651 2914 
Q 2772 3150 2772 3378 
Q 2772 3750 2511 3984 
Q 2250 4219 1831 4219 
Q 1534 4219 1204 4116 
Q 875 4013 500 3803 
L 500 4441 
Q 881 4594 1212 4672 
Q 1544 4750 1819 4750 
Q 2544 4750 2975 4387 
Q 3406 4025 3406 3419 
Q 3406 3131 3298 2873 
Q 3191 2616 2906 2266 
Q 2828 2175 2409 1742 
Q 1991 1309 1228 531 
z
" transform="scale(0.015625)"/>
       </defs>
       <use xlink:href="#DejaVuSans-30"/>
       <use xlink:href="#DejaVuSans-2e" transform="translate(63.623047 0)"/>
       <use xlink:href="#DejaVuSans-32" transform="translate(95.410156 0)"/>
       <use xlink:href="#DejaVuSans-30" transform="translate(159.033203 0)"/>
      </g>
     </g>
    </g>
    <g id="xtick_6">
     <g id="line2d_6">
      <g>
       <use xlink:href="#md1a09dd20c" x="494.981204" y="318.04" style="stroke: #000000; stroke-width: 0.8"/>
      </g>
     </g>
     <g id="text_6">
      <!-- 0.25 -->
      <g transform="translate(483.848392 332.638438) scale(0.1 -0.1)">
       <use xlink:href="#DejaVuSans-30"/>
       <use xlink:href="#DejaVuSans-2e" transform="translate(63.623047 0)"/>
       <use xlink:href="#DejaVuSans-32" transform="translate(95.410156 0)"/>
       <use xlink:href="#DejaVuSans-35" transform="translate(159.033203 0)"/>
      </g>
     </g>
    </g>
    <g id="xtick_7">
     <g id="line2d_7">
      <g>
       <use xlink:href="#md1a09dd20c" x="555.723445" y="318.04" style="stroke: #000000; stroke-width: 0.8"/>
      </g>
     </g>
     <g id="text_7">
      <!-- 0.30 -->
      <g transform="translate(544.590633 332.638438) scale(0.1 -0.1)">
       <defs>
        <path id="DejaVuSans-33" d="M 2597 2516 
Q 3050 2419 3304 2112 
Q 3559 1806 3559 1356 
Q 3559 666 3084 287 
Q 2609 -91 1734 -91 
Q 1441 -91 1130 -33 
Q 819 25 488 141 
L 488 750 
Q 750 597 1062 519 
Q 1375 441 1716 441 
Q 2309 441 2620 675 
Q 2931 909 2931 1356 
Q 2931 1769 2642 2001 
Q 2353 2234 1838 2234 
L 1294 2234 
L 1294 2753 
L 1863 2753 
Q 2328 2753 2575 2939 
Q 2822 3125 2822 3475 
Q 2822 3834 2567 4026 
Q 2313 4219 1838 4219 
Q 1578 4219 1281 4162 
Q 984 4106 628 3988 
L 628 4550 
Q 988 4650 1302 4700 
Q 1616 4750 1894 4750 
Q 2613 4750 3031 4423 
Q 3450 4097 3450 3541 
Q 3450 3153 3228 2886 
Q 3006 2619 2597 2516 
z
" transform="scale(0.015625)"/>
       </defs>
       <use xlink:href="#DejaVuSans-30"/>
       <use xlink:href="#DejaVuSans-2e" transform="translate(63.623047 0)"/>
       <use xlink:href="#DejaVuSans-33" transform="translate(95.410156 0)"/>
       <use xlink:href="#DejaVuSans-30" transform="translate(159.033203 0)"/>
      </g>
     </g>
    </g>
    <g id="text_8">
     <!-- Importance -->
     <g transform="translate(348.728719 346.316563) scale(0.1 -0.1)">
      <defs>
       <path id="DejaVuSans-49" d="M 628 4666 
L 1259 4666 
L 1259 0 
L 628 0 
L 628 4666 
z
" transform="scale(0.015625)"/>
       <path id="DejaVuSans-6d" d="M 3328 2828 
Q 3544 3216 3844 3400 
Q 4144 3584 4550 3584 
Q 5097 3584 5394 3201 
Q 5691 2819 5691 2113 
L 5691 0 
L 5113 0 
L 5113 2094 
Q 5113 2597 4934 2840 
Q 4756 3084 4391 3084 
Q 3944 3084 3684 2787 
Q 3425 2491 3425 1978 
L 3425 0 
L 2847 0 
L 2847 2094 
Q 2847 2600 2669 2842 
Q 2491 3084 2119 3084 
Q 1678 3084 1418 2786 
Q 1159 2488 1159 1978 
L 1159 0 
L 581 0 
L 581 3500 
L 1159 3500 
L 1159 2956 
Q 1356 3278 1631 3431 
Q 1906 3584 2284 3584 
Q 2666 3584 2933 3390 
Q 3200 3197 3328 2828 
z
" transform="scale(0.015625)"/>
       <path id="DejaVuSans-70" d="M 1159 525 
L 1159 -1331 
L 581 -1331 
L 581 3500 
L 1159 3500 
L 1159 2969 
Q 1341 3281 1617 3432 
Q 1894 3584 2278 3584 
Q 2916 3584 3314 3078 
Q 3713 2572 3713 1747 
Q 3713 922 3314 415 
Q 2916 -91 2278 -91 
Q 1894 -91 1617 61 
Q 1341 213 1159 525 
z
M 3116 1747 
Q 3116 2381 2855 2742 
Q 2594 3103 2138 3103 
Q 1681 3103 1420 2742 
Q 1159 2381 1159 1747 
Q 1159 1113 1420 752 
Q 1681 391 2138 391 
Q 2594 391 2855 752 
Q 3116 1113 3116 1747 
z
" transform="scale(0.015625)"/>
       <path id="DejaVuSans-6f" d="M 1959 3097 
Q 1497 3097 1228 2736 
Q 959 2375 959 1747 
Q 959 1119 1226 758 
Q 1494 397 1959 397 
Q 2419 397 2687 759 
Q 2956 1122 2956 1747 
Q 2956 2369 2687 2733 
Q 2419 3097 1959 3097 
z
M 1959 3584 
Q 2709 3584 3137 3096 
Q 3566 2609 3566 1747 
Q 3566 888 3137 398 
Q 2709 -91 1959 -91 
Q 1206 -91 779 398 
Q 353 888 353 1747 
Q 353 2609 779 3096 
Q 1206 3584 1959 3584 
z
" transform="scale(0.015625)"/>
       <path id="DejaVuSans-72" d="M 2631 2963 
Q 2534 3019 2420 3045 
Q 2306 3072 2169 3072 
Q 1681 3072 1420 2755 
Q 1159 2438 1159 1844 
L 1159 0 
L 581 0 
L 581 3500 
L 1159 3500 
L 1159 2956 
Q 1341 3275 1631 3429 
Q 1922 3584 2338 3584 
Q 2397 3584 2469 3576 
Q 2541 3569 2628 3553 
L 2631 2963 
z
" transform="scale(0.015625)"/>
       <path id="DejaVuSans-74" d="M 1172 4494 
L 1172 3500 
L 2356 3500 
L 2356 3053 
L 1172 3053 
L 1172 1153 
Q 1172 725 1289 603 
Q 1406 481 1766 481 
L 2356 481 
L 2356 0 
L 1766 0 
Q 1100 0 847 248 
Q 594 497 594 1153 
L 594 3053 
L 172 3053 
L 172 3500 
L 594 3500 
L 594 4494 
L 1172 4494 
z
" transform="scale(0.015625)"/>
       <path id="DejaVuSans-61" d="M 2194 1759 
Q 1497 1759 1228 1600 
Q 959 1441 959 1056 
Q 959 750 1161 570 
Q 1363 391 1709 391 
Q 2188 391 2477 730 
Q 2766 1069 2766 1631 
L 2766 1759 
L 2194 1759 
z
M 3341 1997 
L 3341 0 
L 2766 0 
L 2766 531 
Q 2569 213 2275 61 
Q 1981 -91 1556 -91 
Q 1019 -91 701 211 
Q 384 513 384 1019 
Q 384 1609 779 1909 
Q 1175 2209 1959 2209 
L 2766 2209 
L 2766 2266 
Q 2766 2663 2505 2880 
Q 2244 3097 1772 3097 
Q 1472 3097 1187 3025 
Q 903 2953 641 2809 
L 641 3341 
Q 956 3463 1253 3523 
Q 1550 3584 1831 3584 
Q 2591 3584 2966 3190 
Q 3341 2797 3341 1997 
z
" transform="scale(0.015625)"/>
       <path id="DejaVuSans-6e" d="M 3513 2113 
L 3513 0 
L 2938 0 
L 2938 2094 
Q 2938 2591 2744 2837 
Q 2550 3084 2163 3084 
Q 1697 3084 1428 2787 
Q 1159 2491 1159 1978 
L 1159 0 
L 581 0 
L 581 3500 
L 1159 3500 
L 1159 2956 
Q 1366 3272 1645 3428 
Q 1925 3584 2291 3584 
Q 2894 3584 3203 3211 
Q 3513 2838 3513 2113 
z
" transform="scale(0.015625)"/>
       <path id="DejaVuSans-63" d="M 3122 3366 
L 3122 2828 
Q 2878 2963 2633 3030 
Q 2388 3097 2138 3097 
Q 1578 3097 1268 2742 
Q 959 2388 959 1747 
Q 959 1106 1268 751 
Q 1578 397 2138 397 
Q 2388 397 2633 464 
Q 2878 531 3122 666 
L 3122 134 
Q 2881 22 2623 -34 
Q 2366 -91 2075 -91 
Q 1284 -91 818 406 
Q 353 903 353 1747 
Q 353 2603 823 3093 
Q 1294 3584 2113 3584 
Q 2378 3584 2631 3529 
Q 2884 3475 3122 3366 
z
" transform="scale(0.015625)"/>
       <path id="DejaVuSans-65" d="M 3597 1894 
L 3597 1613 
L 953 1613 
Q 991 1019 1311 708 
Q 1631 397 2203 397 
Q 2534 397 2845 478 
Q 3156 559 3463 722 
L 3463 178 
Q 3153 47 2828 -22 
Q 2503 -91 2169 -91 
Q 1331 -91 842 396 
Q 353 884 353 1716 
Q 353 2575 817 3079 
Q 1281 3584 2069 3584 
Q 2775 3584 3186 3129 
Q 3597 2675 3597 1894 
z
M 3022 2063 
Q 3016 2534 2758 2815 
Q 2500 3097 2075 3097 
Q 1594 3097 1305 2825 
Q 1016 2553 972 2059 
L 3022 2063 
z
" transform="scale(0.015625)"/>
      </defs>
      <use xlink:href="#DejaVuSans-49"/>
      <use xlink:href="#DejaVuSans-6d" transform="translate(29.492188 0)"/>
      <use xlink:href="#DejaVuSans-70" transform="translate(126.904297 0)"/>
      <use xlink:href="#DejaVuSans-6f" transform="translate(190.380859 0)"/>
      <use xlink:href="#DejaVuSans-72" transform="translate(251.5625 0)"/>
      <use xlink:href="#DejaVuSans-74" transform="translate(292.675781 0)"/>
      <use xlink:href="#DejaVuSans-61" transform="translate(331.884766 0)"/>
      <use xlink:href="#DejaVuSans-6e" transform="translate(393.164062 0)"/>
      <use xlink:href="#DejaVuSans-63" transform="translate(456.542969 0)"/>
      <use xlink:href="#DejaVuSans-65" transform="translate(511.523438 0)"/>
     </g>
    </g>
   </g>
   <g id="matplotlib.axis_2">
    <g id="ytick_1">
     <g id="line2d_8">
      <defs>
       <path id="m84bb3de5bc" d="M 0 0 
L -3.5 0 
" style="stroke: #000000; stroke-width: 0.8"/>
      </defs>
      <g>
       <use xlink:href="#m84bb3de5bc" x="191.27" y="299.458163" style="stroke: #000000; stroke-width: 0.8"/>
      </g>
     </g>
     <g id="text_9">
      <!-- num__V49 -->
      <g transform="translate(132.28875 303.169101) scale(0.1 -0.1)">
       <defs>
        <path id="DejaVuSans-75" d="M 544 1381 
L 544 3500 
L 1119 3500 
L 1119 1403 
Q 1119 906 1312 657 
Q 1506 409 1894 409 
Q 2359 409 2629 706 
Q 2900 1003 2900 1516 
L 2900 3500 
L 3475 3500 
L 3475 0 
L 2900 0 
L 2900 538 
Q 2691 219 2414 64 
Q 2138 -91 1772 -91 
Q 1169 -91 856 284 
Q 544 659 544 1381 
z
M 1991 3584 
L 1991 3584 
z
" transform="scale(0.015625)"/>
        <path id="DejaVuSans-5f" d="M 3263 -1063 
L 3263 -1509 
L -63 -1509 
L -63 -1063 
L 3263 -1063 
z
" transform="scale(0.015625)"/>
        <path id="DejaVuSans-56" d="M 1831 0 
L 50 4666 
L 709 4666 
L 2188 738 
L 3669 4666 
L 4325 4666 
L 2547 0 
L 1831 0 
z
" transform="scale(0.015625)"/>
        <path id="DejaVuSans-34" d="M 2419 4116 
L 825 1625 
L 2419 1625 
L 2419 4116 
z
M 2253 4666 
L 3047 4666 
L 3047 1625 
L 3713 1625 
L 3713 1100 
L 3047 1100 
L 3047 0 
L 2419 0 
L 2419 1100 
L 313 1100 
L 313 1709 
L 2253 4666 
z
" transform="scale(0.015625)"/>
        <path id="DejaVuSans-39" d="M 703 97 
L 703 672 
Q 941 559 1184 500 
Q 1428 441 1663 441 
Q 2288 441 2617 861 
Q 2947 1281 2994 2138 
Q 2813 1869 2534 1725 
Q 2256 1581 1919 1581 
Q 1219 1581 811 2004 
Q 403 2428 403 3163 
Q 403 3881 828 4315 
Q 1253 4750 1959 4750 
Q 2769 4750 3195 4129 
Q 3622 3509 3622 2328 
Q 3622 1225 3098 567 
Q 2575 -91 1691 -91 
Q 1453 -91 1209 -44 
Q 966 3 703 97 
z
M 1959 2075 
Q 2384 2075 2632 2365 
Q 2881 2656 2881 3163 
Q 2881 3666 2632 3958 
Q 2384 4250 1959 4250 
Q 1534 4250 1286 3958 
Q 1038 3666 1038 3163 
Q 1038 2656 1286 2365 
Q 1534 2075 1959 2075 
z
" transform="scale(0.015625)"/>
       </defs>
       <use xlink:href="#DejaVuSans-6e"/>
       <use xlink:href="#DejaVuSans-75" transform="translate(63.378906 0)"/>
       <use xlink:href="#DejaVuSans-6d" transform="translate(126.757812 0)"/>
       <use xlink:href="#DejaVuSans-5f" transform="translate(224.169922 0)"/>
       <use xlink:href="#DejaVuSans-5f" transform="translate(274.169922 0)"/>
       <use xlink:href="#DejaVuSans-56" transform="translate(324.169922 0)"/>
       <use xlink:href="#DejaVuSans-34" transform="translate(392.578125 0)"/>
       <use xlink:href="#DejaVuSans-39" transform="translate(456.201172 0)"/>
      </g>
     </g>
    </g>
    <g id="ytick_2">
     <g id="line2d_9">
      <g>
       <use xlink:href="#m84bb3de5bc" x="191.27" y="286.089936" style="stroke: #000000; stroke-width: 0.8"/>
      </g>
     </g>
     <g id="text_10">
      <!-- num__V35 -->
      <g transform="translate(132.28875 289.800873) scale(0.1 -0.1)">
       <use xlink:href="#DejaVuSans-6e"/>
       <use xlink:href="#DejaVuSans-75" transform="translate(63.378906 0)"/>
       <use xlink:href="#DejaVuSans-6d" transform="translate(126.757812 0)"/>
       <use xlink:href="#DejaVuSans-5f" transform="translate(224.169922 0)"/>
       <use xlink:href="#DejaVuSans-5f" transform="translate(274.169922 0)"/>
       <use xlink:href="#DejaVuSans-56" transform="translate(324.169922 0)"/>
       <use xlink:href="#DejaVuSans-33" transform="translate(392.578125 0)"/>
       <use xlink:href="#DejaVuSans-35" transform="translate(456.201172 0)"/>
      </g>
     </g>
    </g>
    <g id="ytick_3">
     <g id="line2d_10">
      <g>
       <use xlink:href="#m84bb3de5bc" x="191.27" y="272.721708" style="stroke: #000000; stroke-width: 0.8"/>
      </g>
     </g>
     <g id="text_11">
      <!-- num__V302 -->
      <g transform="translate(125.92625 276.432645) scale(0.1 -0.1)">
       <use xlink:href="#DejaVuSans-6e"/>
       <use xlink:href="#DejaVuSans-75" transform="translate(63.378906 0)"/>
       <use xlink:href="#DejaVuSans-6d" transform="translate(126.757812 0)"/>
       <use xlink:href="#DejaVuSans-5f" transform="translate(224.169922 0)"/>
       <use xlink:href="#DejaVuSans-5f" transform="translate(274.169922 0)"/>
       <use xlink:href="#DejaVuSans-56" transform="translate(324.169922 0)"/>
       <use xlink:href="#DejaVuSans-33" transform="translate(392.578125 0)"/>
       <use xlink:href="#DejaVuSans-30" transform="translate(456.201172 0)"/>
       <use xlink:href="#DejaVuSans-32" transform="translate(519.824219 0)"/>
      </g>
     </g>
    </g>
    <g id="ytick_4">
     <g id="line2d_11">
      <g>
       <use xlink:href="#m84bb3de5bc" x="191.27" y="259.35348" style="stroke: #000000; stroke-width: 0.8"/>
      </g>
     </g>
     <g id="text_12">
      <!-- cat__id_14_-300.0 -->
      <g transform="translate(94.635625 263.152699) scale(0.1 -0.1)">
       <defs>
        <path id="DejaVuSans-69" d="M 603 3500 
L 1178 3500 
L 1178 0 
L 603 0 
L 603 3500 
z
M 603 4863 
L 1178 4863 
L 1178 4134 
L 603 4134 
L 603 4863 
z
" transform="scale(0.015625)"/>
        <path id="DejaVuSans-64" d="M 2906 2969 
L 2906 4863 
L 3481 4863 
L 3481 0 
L 2906 0 
L 2906 525 
Q 2725 213 2448 61 
Q 2172 -91 1784 -91 
Q 1150 -91 751 415 
Q 353 922 353 1747 
Q 353 2572 751 3078 
Q 1150 3584 1784 3584 
Q 2172 3584 2448 3432 
Q 2725 3281 2906 2969 
z
M 947 1747 
Q 947 1113 1208 752 
Q 1469 391 1925 391 
Q 2381 391 2643 752 
Q 2906 1113 2906 1747 
Q 2906 2381 2643 2742 
Q 2381 3103 1925 3103 
Q 1469 3103 1208 2742 
Q 947 2381 947 1747 
z
" transform="scale(0.015625)"/>
        <path id="DejaVuSans-2d" d="M 313 2009 
L 1997 2009 
L 1997 1497 
L 313 1497 
L 313 2009 
z
" transform="scale(0.015625)"/>
       </defs>
       <use xlink:href="#DejaVuSans-63"/>
       <use xlink:href="#DejaVuSans-61" transform="translate(54.980469 0)"/>
       <use xlink:href="#DejaVuSans-74" transform="translate(116.259766 0)"/>
       <use xlink:href="#DejaVuSans-5f" transform="translate(155.46875 0)"/>
       <use xlink:href="#DejaVuSans-5f" transform="translate(205.46875 0)"/>
       <use xlink:href="#DejaVuSans-69" transform="translate(255.46875 0)"/>
       <use xlink:href="#DejaVuSans-64" transform="translate(283.251953 0)"/>
       <use xlink:href="#DejaVuSans-5f" transform="translate(346.728516 0)"/>
       <use xlink:href="#DejaVuSans-31" transform="translate(396.728516 0)"/>
       <use xlink:href="#DejaVuSans-34" transform="translate(460.351562 0)"/>
       <use xlink:href="#DejaVuSans-5f" transform="translate(523.974609 0)"/>
       <use xlink:href="#DejaVuSans-2d" transform="translate(573.974609 0)"/>
       <use xlink:href="#DejaVuSans-33" transform="translate(610.058594 0)"/>
       <use xlink:href="#DejaVuSans-30" transform="translate(673.681641 0)"/>
       <use xlink:href="#DejaVuSans-30" transform="translate(737.304688 0)"/>
       <use xlink:href="#DejaVuSans-2e" transform="translate(800.927734 0)"/>
       <use xlink:href="#DejaVuSans-30" transform="translate(832.714844 0)"/>
      </g>
     </g>
    </g>
    <g id="ytick_5">
     <g id="line2d_12">
      <g>
       <use xlink:href="#m84bb3de5bc" x="191.27" y="245.985253" style="stroke: #000000; stroke-width: 0.8"/>
      </g>
     </g>
     <g id="text_13">
      <!-- cat__id_38_F -->
      <g transform="translate(121.12 249.784471) scale(0.1 -0.1)">
       <defs>
        <path id="DejaVuSans-38" d="M 2034 2216 
Q 1584 2216 1326 1975 
Q 1069 1734 1069 1313 
Q 1069 891 1326 650 
Q 1584 409 2034 409 
Q 2484 409 2743 651 
Q 3003 894 3003 1313 
Q 3003 1734 2745 1975 
Q 2488 2216 2034 2216 
z
M 1403 2484 
Q 997 2584 770 2862 
Q 544 3141 544 3541 
Q 544 4100 942 4425 
Q 1341 4750 2034 4750 
Q 2731 4750 3128 4425 
Q 3525 4100 3525 3541 
Q 3525 3141 3298 2862 
Q 3072 2584 2669 2484 
Q 3125 2378 3379 2068 
Q 3634 1759 3634 1313 
Q 3634 634 3220 271 
Q 2806 -91 2034 -91 
Q 1263 -91 848 271 
Q 434 634 434 1313 
Q 434 1759 690 2068 
Q 947 2378 1403 2484 
z
M 1172 3481 
Q 1172 3119 1398 2916 
Q 1625 2713 2034 2713 
Q 2441 2713 2670 2916 
Q 2900 3119 2900 3481 
Q 2900 3844 2670 4047 
Q 2441 4250 2034 4250 
Q 1625 4250 1398 4047 
Q 1172 3844 1172 3481 
z
" transform="scale(0.015625)"/>
        <path id="DejaVuSans-46" d="M 628 4666 
L 3309 4666 
L 3309 4134 
L 1259 4134 
L 1259 2759 
L 3109 2759 
L 3109 2228 
L 1259 2228 
L 1259 0 
L 628 0 
L 628 4666 
z
" transform="scale(0.015625)"/>
       </defs>
       <use xlink:href="#DejaVuSans-63"/>
       <use xlink:href="#DejaVuSans-61" transform="translate(54.980469 0)"/>
       <use xlink:href="#DejaVuSans-74" transform="translate(116.259766 0)"/>
       <use xlink:href="#DejaVuSans-5f" transform="translate(155.46875 0)"/>
       <use xlink:href="#DejaVuSans-5f" transform="translate(205.46875 0)"/>
       <use xlink:href="#DejaVuSans-69" transform="translate(255.46875 0)"/>
       <use xlink:href="#DejaVuSans-64" transform="translate(283.251953 0)"/>
       <use xlink:href="#DejaVuSans-5f" transform="translate(346.728516 0)"/>
       <use xlink:href="#DejaVuSans-33" transform="translate(396.728516 0)"/>
       <use xlink:href="#DejaVuSans-38" transform="translate(460.351562 0)"/>
       <use xlink:href="#DejaVuSans-5f" transform="translate(523.974609 0)"/>
       <use xlink:href="#DejaVuSans-46" transform="translate(573.974609 0)"/>
      </g>
     </g>
    </g>
    <g id="ytick_6">
     <g id="line2d_13">
      <g>
       <use xlink:href="#m84bb3de5bc" x="191.27" y="232.617025" style="stroke: #000000; stroke-width: 0.8"/>
      </g>
     </g>
     <g id="text_14">
      <!-- num__V54 -->
      <g transform="translate(132.28875 236.277181) scale(0.1 -0.1)">
       <use xlink:href="#DejaVuSans-6e"/>
       <use xlink:href="#DejaVuSans-75" transform="translate(63.378906 0)"/>
       <use xlink:href="#DejaVuSans-6d" transform="translate(126.757812 0)"/>
       <use xlink:href="#DejaVuSans-5f" transform="translate(224.169922 0)"/>
       <use xlink:href="#DejaVuSans-5f" transform="translate(274.169922 0)"/>
       <use xlink:href="#DejaVuSans-56" transform="translate(324.169922 0)"/>
       <use xlink:href="#DejaVuSans-35" transform="translate(392.578125 0)"/>
       <use xlink:href="#DejaVuSans-34" transform="translate(456.201172 0)"/>
      </g>
     </g>
    </g>
    <g id="ytick_7">
     <g id="line2d_14">
      <g>
       <use xlink:href="#m84bb3de5bc" x="191.27" y="219.248797" style="stroke: #000000; stroke-width: 0.8"/>
      </g>
     </g>
     <g id="text_15">
      <!-- cat__M5_F -->
      <g transform="translate(132.980937 222.908953) scale(0.1 -0.1)">
       <defs>
        <path id="DejaVuSans-4d" d="M 628 4666 
L 1569 4666 
L 2759 1491 
L 3956 4666 
L 4897 4666 
L 4897 0 
L 4281 0 
L 4281 4097 
L 3078 897 
L 2444 897 
L 1241 4097 
L 1241 0 
L 628 0 
L 628 4666 
z
" transform="scale(0.015625)"/>
       </defs>
       <use xlink:href="#DejaVuSans-63"/>
       <use xlink:href="#DejaVuSans-61" transform="translate(54.980469 0)"/>
       <use xlink:href="#DejaVuSans-74" transform="translate(116.259766 0)"/>
       <use xlink:href="#DejaVuSans-5f" transform="translate(155.46875 0)"/>
       <use xlink:href="#DejaVuSans-5f" transform="translate(205.46875 0)"/>
       <use xlink:href="#DejaVuSans-4d" transform="translate(255.46875 0)"/>
       <use xlink:href="#DejaVuSans-35" transform="translate(341.748047 0)"/>
       <use xlink:href="#DejaVuSans-5f" transform="translate(405.371094 0)"/>
       <use xlink:href="#DejaVuSans-46" transform="translate(455.371094 0)"/>
      </g>
     </g>
    </g>
    <g id="ytick_8">
     <g id="line2d_15">
      <g>
       <use xlink:href="#m84bb3de5bc" x="191.27" y="205.880569" style="stroke: #000000; stroke-width: 0.8"/>
      </g>
     </g>
     <g id="text_16">
      <!-- cat__M9_T -->
      <g transform="translate(132.624687 209.591507) scale(0.1 -0.1)">
       <defs>
        <path id="DejaVuSans-54" d="M -19 4666 
L 3928 4666 
L 3928 4134 
L 2272 4134 
L 2272 0 
L 1638 0 
L 1638 4134 
L -19 4134 
L -19 4666 
z
" transform="scale(0.015625)"/>
       </defs>
       <use xlink:href="#DejaVuSans-63"/>
       <use xlink:href="#DejaVuSans-61" transform="translate(54.980469 0)"/>
       <use xlink:href="#DejaVuSans-74" transform="translate(116.259766 0)"/>
       <use xlink:href="#DejaVuSans-5f" transform="translate(155.46875 0)"/>
       <use xlink:href="#DejaVuSans-5f" transform="translate(205.46875 0)"/>
       <use xlink:href="#DejaVuSans-4d" transform="translate(255.46875 0)"/>
       <use xlink:href="#DejaVuSans-39" transform="translate(341.748047 0)"/>
       <use xlink:href="#DejaVuSans-5f" transform="translate(405.371094 0)"/>
       <use xlink:href="#DejaVuSans-54" transform="translate(455.371094 0)"/>
      </g>
     </g>
    </g>
    <g id="ytick_9">
     <g id="line2d_16">
      <g>
       <use xlink:href="#m84bb3de5bc" x="191.27" y="192.512342" style="stroke: #000000; stroke-width: 0.8"/>
      </g>
     </g>
     <g id="text_17">
      <!-- cat__M8_F -->
      <g transform="translate(132.980937 196.223279) scale(0.1 -0.1)">
       <use xlink:href="#DejaVuSans-63"/>
       <use xlink:href="#DejaVuSans-61" transform="translate(54.980469 0)"/>
       <use xlink:href="#DejaVuSans-74" transform="translate(116.259766 0)"/>
       <use xlink:href="#DejaVuSans-5f" transform="translate(155.46875 0)"/>
       <use xlink:href="#DejaVuSans-5f" transform="translate(205.46875 0)"/>
       <use xlink:href="#DejaVuSans-4d" transform="translate(255.46875 0)"/>
       <use xlink:href="#DejaVuSans-38" transform="translate(341.748047 0)"/>
       <use xlink:href="#DejaVuSans-5f" transform="translate(405.371094 0)"/>
       <use xlink:href="#DejaVuSans-46" transform="translate(455.371094 0)"/>
      </g>
     </g>
    </g>
    <g id="ytick_10">
     <g id="line2d_17">
      <g>
       <use xlink:href="#m84bb3de5bc" x="191.27" y="179.144114" style="stroke: #000000; stroke-width: 0.8"/>
      </g>
     </g>
     <g id="text_18">
      <!-- cat__M4_M0 -->
      <g transform="translate(123.741875 182.855051) scale(0.1 -0.1)">
       <use xlink:href="#DejaVuSans-63"/>
       <use xlink:href="#DejaVuSans-61" transform="translate(54.980469 0)"/>
       <use xlink:href="#DejaVuSans-74" transform="translate(116.259766 0)"/>
       <use xlink:href="#DejaVuSans-5f" transform="translate(155.46875 0)"/>
       <use xlink:href="#DejaVuSans-5f" transform="translate(205.46875 0)"/>
       <use xlink:href="#DejaVuSans-4d" transform="translate(255.46875 0)"/>
       <use xlink:href="#DejaVuSans-34" transform="translate(341.748047 0)"/>
       <use xlink:href="#DejaVuSans-5f" transform="translate(405.371094 0)"/>
       <use xlink:href="#DejaVuSans-4d" transform="translate(455.371094 0)"/>
       <use xlink:href="#DejaVuSans-30" transform="translate(541.650391 0)"/>
      </g>
     </g>
    </g>
    <g id="ytick_11">
     <g id="line2d_18">
      <g>
       <use xlink:href="#m84bb3de5bc" x="191.27" y="165.775886" style="stroke: #000000; stroke-width: 0.8"/>
      </g>
     </g>
     <g id="text_19">
      <!-- num__V53 -->
      <g transform="translate(132.28875 169.486824) scale(0.1 -0.1)">
       <use xlink:href="#DejaVuSans-6e"/>
       <use xlink:href="#DejaVuSans-75" transform="translate(63.378906 0)"/>
       <use xlink:href="#DejaVuSans-6d" transform="translate(126.757812 0)"/>
       <use xlink:href="#DejaVuSans-5f" transform="translate(224.169922 0)"/>
       <use xlink:href="#DejaVuSans-5f" transform="translate(274.169922 0)"/>
       <use xlink:href="#DejaVuSans-56" transform="translate(324.169922 0)"/>
       <use xlink:href="#DejaVuSans-35" transform="translate(392.578125 0)"/>
       <use xlink:href="#DejaVuSans-33" transform="translate(456.201172 0)"/>
      </g>
     </g>
    </g>
    <g id="ytick_12">
     <g id="line2d_19">
      <g>
       <use xlink:href="#m84bb3de5bc" x="191.27" y="152.407658" style="stroke: #000000; stroke-width: 0.8"/>
      </g>
     </g>
     <g id="text_20">
      <!-- cat__M3_T -->
      <g transform="translate(132.624687 156.118596) scale(0.1 -0.1)">
       <use xlink:href="#DejaVuSans-63"/>
       <use xlink:href="#DejaVuSans-61" transform="translate(54.980469 0)"/>
       <use xlink:href="#DejaVuSans-74" transform="translate(116.259766 0)"/>
       <use xlink:href="#DejaVuSans-5f" transform="translate(155.46875 0)"/>
       <use xlink:href="#DejaVuSans-5f" transform="translate(205.46875 0)"/>
       <use xlink:href="#DejaVuSans-4d" transform="translate(255.46875 0)"/>
       <use xlink:href="#DejaVuSans-33" transform="translate(341.748047 0)"/>
       <use xlink:href="#DejaVuSans-5f" transform="translate(405.371094 0)"/>
       <use xlink:href="#DejaVuSans-54" transform="translate(455.371094 0)"/>
      </g>
     </g>
    </g>
    <g id="ytick_13">
     <g id="line2d_20">
      <g>
       <use xlink:href="#m84bb3de5bc" x="191.27" y="139.039431" style="stroke: #000000; stroke-width: 0.8"/>
      </g>
     </g>
     <g id="text_21">
      <!-- cat__card5_226.0 -->
      <g transform="translate(96.821562 142.838649) scale(0.1 -0.1)">
       <defs>
        <path id="DejaVuSans-36" d="M 2113 2584 
Q 1688 2584 1439 2293 
Q 1191 2003 1191 1497 
Q 1191 994 1439 701 
Q 1688 409 2113 409 
Q 2538 409 2786 701 
Q 3034 994 3034 1497 
Q 3034 2003 2786 2293 
Q 2538 2584 2113 2584 
z
M 3366 4563 
L 3366 3988 
Q 3128 4100 2886 4159 
Q 2644 4219 2406 4219 
Q 1781 4219 1451 3797 
Q 1122 3375 1075 2522 
Q 1259 2794 1537 2939 
Q 1816 3084 2150 3084 
Q 2853 3084 3261 2657 
Q 3669 2231 3669 1497 
Q 3669 778 3244 343 
Q 2819 -91 2113 -91 
Q 1303 -91 875 529 
Q 447 1150 447 2328 
Q 447 3434 972 4092 
Q 1497 4750 2381 4750 
Q 2619 4750 2861 4703 
Q 3103 4656 3366 4563 
z
" transform="scale(0.015625)"/>
       </defs>
       <use xlink:href="#DejaVuSans-63"/>
       <use xlink:href="#DejaVuSans-61" transform="translate(54.980469 0)"/>
       <use xlink:href="#DejaVuSans-74" transform="translate(116.259766 0)"/>
       <use xlink:href="#DejaVuSans-5f" transform="translate(155.46875 0)"/>
       <use xlink:href="#DejaVuSans-5f" transform="translate(205.46875 0)"/>
       <use xlink:href="#DejaVuSans-63" transform="translate(255.46875 0)"/>
       <use xlink:href="#DejaVuSans-61" transform="translate(310.449219 0)"/>
       <use xlink:href="#DejaVuSans-72" transform="translate(371.728516 0)"/>
       <use xlink:href="#DejaVuSans-64" transform="translate(411.091797 0)"/>
       <use xlink:href="#DejaVuSans-35" transform="translate(474.568359 0)"/>
       <use xlink:href="#DejaVuSans-5f" transform="translate(538.191406 0)"/>
       <use xlink:href="#DejaVuSans-32" transform="translate(588.191406 0)"/>
       <use xlink:href="#DejaVuSans-32" transform="translate(651.814453 0)"/>
       <use xlink:href="#DejaVuSans-36" transform="translate(715.4375 0)"/>
       <use xlink:href="#DejaVuSans-2e" transform="translate(779.060547 0)"/>
       <use xlink:href="#DejaVuSans-30" transform="translate(810.847656 0)"/>
      </g>
     </g>
    </g>
    <g id="ytick_14">
     <g id="line2d_21">
      <g>
       <use xlink:href="#m84bb3de5bc" x="191.27" y="125.671203" style="stroke: #000000; stroke-width: 0.8"/>
      </g>
     </g>
     <g id="text_22">
      <!-- num__V201 -->
      <g transform="translate(125.92625 129.38214) scale(0.1 -0.1)">
       <use xlink:href="#DejaVuSans-6e"/>
       <use xlink:href="#DejaVuSans-75" transform="translate(63.378906 0)"/>
       <use xlink:href="#DejaVuSans-6d" transform="translate(126.757812 0)"/>
       <use xlink:href="#DejaVuSans-5f" transform="translate(224.169922 0)"/>
       <use xlink:href="#DejaVuSans-5f" transform="translate(274.169922 0)"/>
       <use xlink:href="#DejaVuSans-56" transform="translate(324.169922 0)"/>
       <use xlink:href="#DejaVuSans-32" transform="translate(392.578125 0)"/>
       <use xlink:href="#DejaVuSans-30" transform="translate(456.201172 0)"/>
       <use xlink:href="#DejaVuSans-31" transform="translate(519.824219 0)"/>
      </g>
     </g>
    </g>
    <g id="ytick_15">
     <g id="line2d_22">
      <g>
       <use xlink:href="#m84bb3de5bc" x="191.27" y="112.302975" style="stroke: #000000; stroke-width: 0.8"/>
      </g>
     </g>
     <g id="text_23">
      <!-- cat__P_emaildomain_gmail.com -->
      <g transform="translate(25.354375 116.102194) scale(0.1 -0.1)">
       <defs>
        <path id="DejaVuSans-50" d="M 1259 4147 
L 1259 2394 
L 2053 2394 
Q 2494 2394 2734 2622 
Q 2975 2850 2975 3272 
Q 2975 3691 2734 3919 
Q 2494 4147 2053 4147 
L 1259 4147 
z
M 628 4666 
L 2053 4666 
Q 2838 4666 3239 4311 
Q 3641 3956 3641 3272 
Q 3641 2581 3239 2228 
Q 2838 1875 2053 1875 
L 1259 1875 
L 1259 0 
L 628 0 
L 628 4666 
z
" transform="scale(0.015625)"/>
        <path id="DejaVuSans-6c" d="M 603 4863 
L 1178 4863 
L 1178 0 
L 603 0 
L 603 4863 
z
" transform="scale(0.015625)"/>
        <path id="DejaVuSans-67" d="M 2906 1791 
Q 2906 2416 2648 2759 
Q 2391 3103 1925 3103 
Q 1463 3103 1205 2759 
Q 947 2416 947 1791 
Q 947 1169 1205 825 
Q 1463 481 1925 481 
Q 2391 481 2648 825 
Q 2906 1169 2906 1791 
z
M 3481 434 
Q 3481 -459 3084 -895 
Q 2688 -1331 1869 -1331 
Q 1566 -1331 1297 -1286 
Q 1028 -1241 775 -1147 
L 775 -588 
Q 1028 -725 1275 -790 
Q 1522 -856 1778 -856 
Q 2344 -856 2625 -561 
Q 2906 -266 2906 331 
L 2906 616 
Q 2728 306 2450 153 
Q 2172 0 1784 0 
Q 1141 0 747 490 
Q 353 981 353 1791 
Q 353 2603 747 3093 
Q 1141 3584 1784 3584 
Q 2172 3584 2450 3431 
Q 2728 3278 2906 2969 
L 2906 3500 
L 3481 3500 
L 3481 434 
z
" transform="scale(0.015625)"/>
       </defs>
       <use xlink:href="#DejaVuSans-63"/>
       <use xlink:href="#DejaVuSans-61" transform="translate(54.980469 0)"/>
       <use xlink:href="#DejaVuSans-74" transform="translate(116.259766 0)"/>
       <use xlink:href="#DejaVuSans-5f" transform="translate(155.46875 0)"/>
       <use xlink:href="#DejaVuSans-5f" transform="translate(205.46875 0)"/>
       <use xlink:href="#DejaVuSans-50" transform="translate(255.46875 0)"/>
       <use xlink:href="#DejaVuSans-5f" transform="translate(315.771484 0)"/>
       <use xlink:href="#DejaVuSans-65" transform="translate(365.771484 0)"/>
       <use xlink:href="#DejaVuSans-6d" transform="translate(427.294922 0)"/>
       <use xlink:href="#DejaVuSans-61" transform="translate(524.707031 0)"/>
       <use xlink:href="#DejaVuSans-69" transform="translate(585.986328 0)"/>
       <use xlink:href="#DejaVuSans-6c" transform="translate(613.769531 0)"/>
       <use xlink:href="#DejaVuSans-64" transform="translate(641.552734 0)"/>
       <use xlink:href="#DejaVuSans-6f" transform="translate(705.029297 0)"/>
       <use xlink:href="#DejaVuSans-6d" transform="translate(766.210938 0)"/>
       <use xlink:href="#DejaVuSans-61" transform="translate(863.623047 0)"/>
       <use xlink:href="#DejaVuSans-69" transform="translate(924.902344 0)"/>
       <use xlink:href="#DejaVuSans-6e" transform="translate(952.685547 0)"/>
       <use xlink:href="#DejaVuSans-5f" transform="translate(1016.064453 0)"/>
       <use xlink:href="#DejaVuSans-67" transform="translate(1066.064453 0)"/>
       <use xlink:href="#DejaVuSans-6d" transform="translate(1129.541016 0)"/>
       <use xlink:href="#DejaVuSans-61" transform="translate(1226.953125 0)"/>
       <use xlink:href="#DejaVuSans-69" transform="translate(1288.232422 0)"/>
       <use xlink:href="#DejaVuSans-6c" transform="translate(1316.015625 0)"/>
       <use xlink:href="#DejaVuSans-2e" transform="translate(1343.798828 0)"/>
       <use xlink:href="#DejaVuSans-63" transform="translate(1375.585938 0)"/>
       <use xlink:href="#DejaVuSans-6f" transform="translate(1430.566406 0)"/>
       <use xlink:href="#DejaVuSans-6d" transform="translate(1491.748047 0)"/>
      </g>
     </g>
    </g>
    <g id="ytick_16">
     <g id="line2d_23">
      <g>
       <use xlink:href="#m84bb3de5bc" x="191.27" y="98.934747" style="stroke: #000000; stroke-width: 0.8"/>
      </g>
     </g>
     <g id="text_24">
      <!-- num__TransactionAmt -->
      <g transform="translate(74.152812 102.733966) scale(0.1 -0.1)">
       <defs>
        <path id="DejaVuSans-73" d="M 2834 3397 
L 2834 2853 
Q 2591 2978 2328 3040 
Q 2066 3103 1784 3103 
Q 1356 3103 1142 2972 
Q 928 2841 928 2578 
Q 928 2378 1081 2264 
Q 1234 2150 1697 2047 
L 1894 2003 
Q 2506 1872 2764 1633 
Q 3022 1394 3022 966 
Q 3022 478 2636 193 
Q 2250 -91 1575 -91 
Q 1294 -91 989 -36 
Q 684 19 347 128 
L 347 722 
Q 666 556 975 473 
Q 1284 391 1588 391 
Q 1994 391 2212 530 
Q 2431 669 2431 922 
Q 2431 1156 2273 1281 
Q 2116 1406 1581 1522 
L 1381 1569 
Q 847 1681 609 1914 
Q 372 2147 372 2553 
Q 372 3047 722 3315 
Q 1072 3584 1716 3584 
Q 2034 3584 2315 3537 
Q 2597 3491 2834 3397 
z
" transform="scale(0.015625)"/>
        <path id="DejaVuSans-41" d="M 2188 4044 
L 1331 1722 
L 3047 1722 
L 2188 4044 
z
M 1831 4666 
L 2547 4666 
L 4325 0 
L 3669 0 
L 3244 1197 
L 1141 1197 
L 716 0 
L 50 0 
L 1831 4666 
z
" transform="scale(0.015625)"/>
       </defs>
       <use xlink:href="#DejaVuSans-6e"/>
       <use xlink:href="#DejaVuSans-75" transform="translate(63.378906 0)"/>
       <use xlink:href="#DejaVuSans-6d" transform="translate(126.757812 0)"/>
       <use xlink:href="#DejaVuSans-5f" transform="translate(224.169922 0)"/>
       <use xlink:href="#DejaVuSans-5f" transform="translate(274.169922 0)"/>
       <use xlink:href="#DejaVuSans-54" transform="translate(324.169922 0)"/>
       <use xlink:href="#DejaVuSans-72" transform="translate(370.503906 0)"/>
       <use xlink:href="#DejaVuSans-61" transform="translate(411.617188 0)"/>
       <use xlink:href="#DejaVuSans-6e" transform="translate(472.896484 0)"/>
       <use xlink:href="#DejaVuSans-73" transform="translate(536.275391 0)"/>
       <use xlink:href="#DejaVuSans-61" transform="translate(588.375 0)"/>
       <use xlink:href="#DejaVuSans-63" transform="translate(649.654297 0)"/>
       <use xlink:href="#DejaVuSans-74" transform="translate(704.634766 0)"/>
       <use xlink:href="#DejaVuSans-69" transform="translate(743.84375 0)"/>
       <use xlink:href="#DejaVuSans-6f" transform="translate(771.626953 0)"/>
       <use xlink:href="#DejaVuSans-6e" transform="translate(832.808594 0)"/>
       <use xlink:href="#DejaVuSans-41" transform="translate(896.1875 0)"/>
       <use xlink:href="#DejaVuSans-6d" transform="translate(964.595703 0)"/>
       <use xlink:href="#DejaVuSans-74" transform="translate(1062.007812 0)"/>
      </g>
     </g>
    </g>
    <g id="ytick_17">
     <g id="line2d_24">
      <g>
       <use xlink:href="#m84bb3de5bc" x="191.27" y="85.56652" style="stroke: #000000; stroke-width: 0.8"/>
      </g>
     </g>
     <g id="text_25">
      <!-- num__C12 -->
      <g transform="translate(132.146562 89.277457) scale(0.1 -0.1)">
       <defs>
        <path id="DejaVuSans-43" d="M 4122 4306 
L 4122 3641 
Q 3803 3938 3442 4084 
Q 3081 4231 2675 4231 
Q 1875 4231 1450 3742 
Q 1025 3253 1025 2328 
Q 1025 1406 1450 917 
Q 1875 428 2675 428 
Q 3081 428 3442 575 
Q 3803 722 4122 1019 
L 4122 359 
Q 3791 134 3420 21 
Q 3050 -91 2638 -91 
Q 1578 -91 968 557 
Q 359 1206 359 2328 
Q 359 3453 968 4101 
Q 1578 4750 2638 4750 
Q 3056 4750 3426 4639 
Q 3797 4528 4122 4306 
z
" transform="scale(0.015625)"/>
       </defs>
       <use xlink:href="#DejaVuSans-6e"/>
       <use xlink:href="#DejaVuSans-75" transform="translate(63.378906 0)"/>
       <use xlink:href="#DejaVuSans-6d" transform="translate(126.757812 0)"/>
       <use xlink:href="#DejaVuSans-5f" transform="translate(224.169922 0)"/>
       <use xlink:href="#DejaVuSans-5f" transform="translate(274.169922 0)"/>
       <use xlink:href="#DejaVuSans-43" transform="translate(324.169922 0)"/>
       <use xlink:href="#DejaVuSans-31" transform="translate(393.994141 0)"/>
       <use xlink:href="#DejaVuSans-32" transform="translate(457.617188 0)"/>
      </g>
     </g>
    </g>
    <g id="ytick_18">
     <g id="line2d_25">
      <g>
       <use xlink:href="#m84bb3de5bc" x="191.27" y="72.198292" style="stroke: #000000; stroke-width: 0.8"/>
      </g>
     </g>
     <g id="text_26">
      <!-- num__V258 -->
      <g transform="translate(125.92625 75.90923) scale(0.1 -0.1)">
       <use xlink:href="#DejaVuSans-6e"/>
       <use xlink:href="#DejaVuSans-75" transform="translate(63.378906 0)"/>
       <use xlink:href="#DejaVuSans-6d" transform="translate(126.757812 0)"/>
       <use xlink:href="#DejaVuSans-5f" transform="translate(224.169922 0)"/>
       <use xlink:href="#DejaVuSans-5f" transform="translate(274.169922 0)"/>
       <use xlink:href="#DejaVuSans-56" transform="translate(324.169922 0)"/>
       <use xlink:href="#DejaVuSans-32" transform="translate(392.578125 0)"/>
       <use xlink:href="#DejaVuSans-35" transform="translate(456.201172 0)"/>
       <use xlink:href="#DejaVuSans-38" transform="translate(519.824219 0)"/>
      </g>
     </g>
    </g>
    <g id="ytick_19">
     <g id="line2d_26">
      <g>
       <use xlink:href="#m84bb3de5bc" x="191.27" y="58.830064" style="stroke: #000000; stroke-width: 0.8"/>
      </g>
     </g>
     <g id="text_27">
      <!-- num__V282 -->
      <g transform="translate(125.92625 62.541002) scale(0.1 -0.1)">
       <use xlink:href="#DejaVuSans-6e"/>
       <use xlink:href="#DejaVuSans-75" transform="translate(63.378906 0)"/>
       <use xlink:href="#DejaVuSans-6d" transform="translate(126.757812 0)"/>
       <use xlink:href="#DejaVuSans-5f" transform="translate(224.169922 0)"/>
       <use xlink:href="#DejaVuSans-5f" transform="translate(274.169922 0)"/>
       <use xlink:href="#DejaVuSans-56" transform="translate(324.169922 0)"/>
       <use xlink:href="#DejaVuSans-32" transform="translate(392.578125 0)"/>
       <use xlink:href="#DejaVuSans-38" transform="translate(456.201172 0)"/>
       <use xlink:href="#DejaVuSans-32" transform="translate(519.824219 0)"/>
      </g>
     </g>
    </g>
    <g id="ytick_20">
     <g id="line2d_27">
      <g>
       <use xlink:href="#m84bb3de5bc" x="191.27" y="45.461837" style="stroke: #000000; stroke-width: 0.8"/>
      </g>
     </g>
     <g id="text_28">
      <!-- num__dayofweek_cos -->
      <g transform="translate(75.893437 49.261055) scale(0.1 -0.1)">
       <defs>
        <path id="DejaVuSans-79" d="M 2059 -325 
Q 1816 -950 1584 -1140 
Q 1353 -1331 966 -1331 
L 506 -1331 
L 506 -850 
L 844 -850 
Q 1081 -850 1212 -737 
Q 1344 -625 1503 -206 
L 1606 56 
L 191 3500 
L 800 3500 
L 1894 763 
L 2988 3500 
L 3597 3500 
L 2059 -325 
z
" transform="scale(0.015625)"/>
        <path id="DejaVuSans-66" d="M 2375 4863 
L 2375 4384 
L 1825 4384 
Q 1516 4384 1395 4259 
Q 1275 4134 1275 3809 
L 1275 3500 
L 2222 3500 
L 2222 3053 
L 1275 3053 
L 1275 0 
L 697 0 
L 697 3053 
L 147 3053 
L 147 3500 
L 697 3500 
L 697 3744 
Q 697 4328 969 4595 
Q 1241 4863 1831 4863 
L 2375 4863 
z
" transform="scale(0.015625)"/>
        <path id="DejaVuSans-77" d="M 269 3500 
L 844 3500 
L 1563 769 
L 2278 3500 
L 2956 3500 
L 3675 769 
L 4391 3500 
L 4966 3500 
L 4050 0 
L 3372 0 
L 2619 2869 
L 1863 0 
L 1184 0 
L 269 3500 
z
" transform="scale(0.015625)"/>
        <path id="DejaVuSans-6b" d="M 581 4863 
L 1159 4863 
L 1159 1991 
L 2875 3500 
L 3609 3500 
L 1753 1863 
L 3688 0 
L 2938 0 
L 1159 1709 
L 1159 0 
L 581 0 
L 581 4863 
z
" transform="scale(0.015625)"/>
       </defs>
       <use xlink:href="#DejaVuSans-6e"/>
       <use xlink:href="#DejaVuSans-75" transform="translate(63.378906 0)"/>
       <use xlink:href="#DejaVuSans-6d" transform="translate(126.757812 0)"/>
       <use xlink:href="#DejaVuSans-5f" transform="translate(224.169922 0)"/>
       <use xlink:href="#DejaVuSans-5f" transform="translate(274.169922 0)"/>
       <use xlink:href="#DejaVuSans-64" transform="translate(324.169922 0)"/>
       <use xlink:href="#DejaVuSans-61" transform="translate(387.646484 0)"/>
       <use xlink:href="#DejaVuSans-79" transform="translate(448.925781 0)"/>
       <use xlink:href="#DejaVuSans-6f" transform="translate(508.105469 0)"/>
       <use xlink:href="#DejaVuSans-66" transform="translate(569.287109 0)"/>
       <use xlink:href="#DejaVuSans-77" transform="translate(602.742188 0)"/>
       <use xlink:href="#DejaVuSans-65" transform="translate(684.529297 0)"/>
       <use xlink:href="#DejaVuSans-65" transform="translate(746.052734 0)"/>
       <use xlink:href="#DejaVuSans-6b" transform="translate(807.576172 0)"/>
       <use xlink:href="#DejaVuSans-5f" transform="translate(865.486328 0)"/>
       <use xlink:href="#DejaVuSans-63" transform="translate(915.486328 0)"/>
       <use xlink:href="#DejaVuSans-6f" transform="translate(970.466797 0)"/>
       <use xlink:href="#DejaVuSans-73" transform="translate(1031.648438 0)"/>
      </g>
     </g>
    </g>
    <g id="text_29">
     <!-- Features -->
     <g transform="translate(19.274687 193.954531) rotate(-90) scale(0.1 -0.1)">
      <use xlink:href="#DejaVuSans-46"/>
      <use xlink:href="#DejaVuSans-65" transform="translate(52.019531 0)"/>
      <use xlink:href="#DejaVuSans-61" transform="translate(113.542969 0)"/>
      <use xlink:href="#DejaVuSans-74" transform="translate(174.822266 0)"/>
      <use xlink:href="#DejaVuSans-75" transform="translate(214.03125 0)"/>
      <use xlink:href="#DejaVuSans-72" transform="translate(277.410156 0)"/>
      <use xlink:href="#DejaVuSans-65" transform="translate(316.273438 0)"/>
      <use xlink:href="#DejaVuSans-73" transform="translate(377.796875 0)"/>
     </g>
    </g>
   </g>
   <g id="patch_23">
    <path d="M 191.27 318.04 
L 191.27 26.88 
" style="fill: none; stroke: #000000; stroke-width: 0.8; stroke-linejoin: miter; stroke-linecap: square"/>
   </g>
   <g id="patch_24">
    <path d="M 563.493688 318.04 
L 563.493688 26.88 
" style="fill: none; stroke: #000000; stroke-width: 0.8; stroke-linejoin: miter; stroke-linecap: square"/>
   </g>
   <g id="patch_25">
    <path d="M 191.27 318.04 
L 563.493688 318.04 
" style="fill: none; stroke: #000000; stroke-width: 0.8; stroke-linejoin: miter; stroke-linecap: square"/>
   </g>
   <g id="patch_26">
    <path d="M 191.27 26.88 
L 563.493688 26.88 
" style="fill: none; stroke: #000000; stroke-width: 0.8; stroke-linejoin: miter; stroke-linecap: square"/>
   </g>
   <g id="text_30">
    <!-- Feature Importances - AdaBoost -->
    <g transform="translate(280.897156 20.88) scale(0.12 -0.12)">
     <defs>
      <path id="DejaVuSans-20" transform="scale(0.015625)"/>
      <path id="DejaVuSans-42" d="M 1259 2228 
L 1259 519 
L 2272 519 
Q 2781 519 3026 730 
Q 3272 941 3272 1375 
Q 3272 1813 3026 2020 
Q 2781 2228 2272 2228 
L 1259 2228 
z
M 1259 4147 
L 1259 2741 
L 2194 2741 
Q 2656 2741 2882 2914 
Q 3109 3088 3109 3444 
Q 3109 3797 2882 3972 
Q 2656 4147 2194 4147 
L 1259 4147 
z
M 628 4666 
L 2241 4666 
Q 2963 4666 3353 4366 
Q 3744 4066 3744 3513 
Q 3744 3084 3544 2831 
Q 3344 2578 2956 2516 
Q 3422 2416 3680 2098 
Q 3938 1781 3938 1306 
Q 3938 681 3513 340 
Q 3088 0 2303 0 
L 628 0 
L 628 4666 
z
" transform="scale(0.015625)"/>
     </defs>
     <use xlink:href="#DejaVuSans-46"/>
     <use xlink:href="#DejaVuSans-65" transform="translate(52.019531 0)"/>
     <use xlink:href="#DejaVuSans-61" transform="translate(113.542969 0)"/>
     <use xlink:href="#DejaVuSans-74" transform="translate(174.822266 0)"/>
     <use xlink:href="#DejaVuSans-75" transform="translate(214.03125 0)"/>
     <use xlink:href="#DejaVuSans-72" transform="translate(277.410156 0)"/>
     <use xlink:href="#DejaVuSans-65" transform="translate(316.273438 0)"/>
     <use xlink:href="#DejaVuSans-20" transform="translate(377.796875 0)"/>
     <use xlink:href="#DejaVuSans-49" transform="translate(409.583984 0)"/>
     <use xlink:href="#DejaVuSans-6d" transform="translate(439.076172 0)"/>
     <use xlink:href="#DejaVuSans-70" transform="translate(536.488281 0)"/>
     <use xlink:href="#DejaVuSans-6f" transform="translate(599.964844 0)"/>
     <use xlink:href="#DejaVuSans-72" transform="translate(661.146484 0)"/>
     <use xlink:href="#DejaVuSans-74" transform="translate(702.259766 0)"/>
     <use xlink:href="#DejaVuSans-61" transform="translate(741.46875 0)"/>
     <use xlink:href="#DejaVuSans-6e" transform="translate(802.748047 0)"/>
     <use xlink:href="#DejaVuSans-63" transform="translate(866.126953 0)"/>
     <use xlink:href="#DejaVuSans-65" transform="translate(921.107422 0)"/>
     <use xlink:href="#DejaVuSans-73" transform="translate(982.630859 0)"/>
     <use xlink:href="#DejaVuSans-20" transform="translate(1034.730469 0)"/>
     <use xlink:href="#DejaVuSans-2d" transform="translate(1066.517578 0)"/>
     <use xlink:href="#DejaVuSans-20" transform="translate(1102.601562 0)"/>
     <use xlink:href="#DejaVuSans-41" transform="translate(1134.388672 0)"/>
     <use xlink:href="#DejaVuSans-64" transform="translate(1201.046875 0)"/>
     <use xlink:href="#DejaVuSans-61" transform="translate(1264.523438 0)"/>
     <use xlink:href="#DejaVuSans-42" transform="translate(1325.802734 0)"/>
     <use xlink:href="#DejaVuSans-6f" transform="translate(1394.40625 0)"/>
     <use xlink:href="#DejaVuSans-6f" transform="translate(1455.587891 0)"/>
     <use xlink:href="#DejaVuSans-73" transform="translate(1516.769531 0)"/>
     <use xlink:href="#DejaVuSans-74" transform="translate(1568.869141 0)"/>
    </g>
   </g>
  </g>
 </g>
 <defs>
  <clipPath id="p0f53be1508">
   <rect x="191.27" y="26.88" width="372.223688" height="291.16"/>
  </clipPath>
 </defs>
</svg>
